G04*
G04 #@! TF.GenerationSoftware,Altium Limited,Altium Designer,21.3.2 (30)*
G04*
G04 Layer_Physical_Order=1*
G04 Layer_Color=255*
%FSTAX24Y24*%
%MOIN*%
G70*
G04*
G04 #@! TF.SameCoordinates,09EB0EA2-9561-46F4-B1F3-F0EC52C3B4A3*
G04*
G04*
G04 #@! TF.FilePolarity,Positive*
G04*
G01*
G75*
%ADD12C,0.0079*%
%ADD20C,0.0100*%
%ADD25R,0.0669X0.0669*%
%ADD26R,0.0630X0.0591*%
%ADD27R,0.2000X0.0591*%
%ADD28O,0.2000X0.0591*%
G04:AMPARAMS|DCode=29|XSize=48mil|YSize=23.6mil|CornerRadius=5.9mil|HoleSize=0mil|Usage=FLASHONLY|Rotation=270.000|XOffset=0mil|YOffset=0mil|HoleType=Round|Shape=RoundedRectangle|*
%AMROUNDEDRECTD29*
21,1,0.0480,0.0118,0,0,270.0*
21,1,0.0362,0.0236,0,0,270.0*
1,1,0.0118,-0.0059,-0.0181*
1,1,0.0118,-0.0059,0.0181*
1,1,0.0118,0.0059,0.0181*
1,1,0.0118,0.0059,-0.0181*
%
%ADD29ROUNDEDRECTD29*%
%ADD30R,0.0591X0.0630*%
%ADD31R,0.0669X0.0118*%
%ADD32R,0.0118X0.0669*%
%ADD33R,0.0709X0.0669*%
%ADD34R,0.1181X0.0276*%
%ADD35O,0.1181X0.0276*%
%ADD36R,0.0669X0.0669*%
%ADD37R,0.1140X0.2130*%
%ADD38R,0.1378X0.0472*%
%ADD39R,0.0984X0.4134*%
%ADD40R,0.2559X0.3346*%
%ADD41R,0.1299X0.0945*%
%ADD42R,0.0394X0.0945*%
%ADD43R,0.0610X0.0886*%
%ADD44R,0.0650X0.0600*%
%ADD45R,0.0315X0.0472*%
%ADD46R,0.1102X0.0433*%
%ADD47R,0.1024X0.0433*%
%ADD84C,0.0197*%
%ADD85C,0.0787*%
%ADD86C,0.2756*%
%ADD87C,0.0197*%
%ADD88C,0.0803*%
%ADD89R,0.0803X0.0803*%
%ADD90C,0.2165*%
%ADD91C,0.0630*%
%ADD92R,0.0630X0.0630*%
%ADD93R,0.0630X0.0630*%
%ADD94R,0.1000X0.1600*%
%ADD95R,0.1600X0.1000*%
%ADD96C,0.0425*%
%ADD97C,0.0157*%
%ADD98C,0.0276*%
G36*
X03345Y043003D02*
X04245Y043003D01*
X0483D01*
X048344Y04292D01*
X048346Y042916D01*
X048359Y042906D01*
X048422Y042852D01*
Y040271D01*
X048355Y040199D01*
X048355Y040199D01*
X048355Y040199D01*
X048667Y038628D01*
X049581Y037261D01*
X050948Y036347D01*
X05256Y036026D01*
X052745Y036063D01*
X052745Y036063D01*
Y036063D01*
X052783Y036102D01*
X054978D01*
X054986Y036099D01*
X055026Y03601D01*
X055027Y036007D01*
X055042Y035997D01*
X055103Y035944D01*
Y031943D01*
Y029507D01*
X055103Y029505D01*
X055103Y029504D01*
Y0295D01*
X055132Y029432D01*
X055132Y029432D01*
X055133Y029431D01*
X055134Y029429D01*
X05515Y029422D01*
X055194Y029404D01*
X055178Y029309D01*
X055546Y029236D01*
X056085Y028875D01*
X056446Y028336D01*
X056572Y0277D01*
X056513Y027405D01*
X056413Y027415D01*
X056413Y027482D01*
Y027969D01*
X056196Y028494D01*
X055794Y028896D01*
X055269Y029113D01*
X054701D01*
X054176Y028896D01*
X053775Y028494D01*
X053557Y027969D01*
Y027401D01*
X053775Y026876D01*
X054176Y026475D01*
X054701Y026257D01*
X055269D01*
X055794Y026475D01*
X056196Y026876D01*
X056382Y027326D01*
X056408Y027389D01*
X056504Y02736D01*
X056446Y027064D01*
X056085Y026525D01*
X055546Y026164D01*
X055178Y026091D01*
X055194Y025996D01*
X055134Y025971D01*
X055133Y025969D01*
X055132Y025968D01*
X055132Y025968D01*
X055103Y0259D01*
Y025896D01*
X055103Y025895D01*
X055103Y025893D01*
X055103Y023428D01*
Y019414D01*
X055025Y019352D01*
X055016Y019354D01*
X055006Y019343D01*
X054958Y019268D01*
X052655D01*
X05265Y01927D01*
X052649Y01927D01*
X052649Y019335D01*
X051078Y019023D01*
X049711Y018109D01*
X048797Y016742D01*
X048476Y01513D01*
X048513Y014945D01*
X048513Y014945D01*
X048513D01*
X048552Y014907D01*
Y01228D01*
X048525Y012191D01*
X04847Y012168D01*
X048447Y012112D01*
X048355Y012093D01*
X018512Y012093D01*
X018431Y012142D01*
X01842Y01217D01*
X018402Y012177D01*
X018336Y012243D01*
Y017799D01*
X018356Y01789D01*
X018357Y017898D01*
X01834Y017984D01*
X018245Y018463D01*
X017924Y018943D01*
X017762Y019051D01*
X01775Y01914D01*
X017751Y019146D01*
X017761Y01918D01*
X017746Y019216D01*
X017699Y019282D01*
X017686Y019308D01*
X017667Y019352D01*
X017643Y019362D01*
X017617Y0238D01*
X017676Y036466D01*
X01775Y036533D01*
X017767Y036532D01*
X017779Y03655D01*
X017779Y03655D01*
X017756Y036624D01*
X018073Y037099D01*
X018181Y037641D01*
X018165Y037641D01*
X018164Y037643D01*
Y042875D01*
X018217Y042951D01*
X018218Y042952D01*
X018219Y042953D01*
X018297Y043003D01*
X0334D01*
X033425Y043014D01*
X03345Y043003D01*
D02*
G37*
%LPC*%
G36*
X035507Y042814D02*
X0353D01*
Y042528D01*
X035507D01*
Y042814D01*
D02*
G37*
G36*
X033557D02*
X03335D01*
Y042528D01*
X033557D01*
Y042814D01*
D02*
G37*
G36*
X031557D02*
X03135D01*
Y042528D01*
X031557D01*
Y042814D01*
D02*
G37*
G36*
X03325D02*
X033043D01*
Y042528D01*
X03325D01*
Y042814D01*
D02*
G37*
G36*
X03125D02*
X031043D01*
Y042528D01*
X03125D01*
Y042814D01*
D02*
G37*
G36*
X0352D02*
X034993D01*
Y042528D01*
X0352D01*
Y042814D01*
D02*
G37*
G36*
X028365Y042686D02*
X028D01*
Y042341D01*
X028365D01*
Y042686D01*
D02*
G37*
G36*
X0279D02*
X027535D01*
Y042341D01*
X0279D01*
Y042686D01*
D02*
G37*
G36*
X026782D02*
X026417D01*
Y042341D01*
X026782D01*
Y042686D01*
D02*
G37*
G36*
X023615D02*
X02325D01*
Y042341D01*
X023615D01*
Y042686D01*
D02*
G37*
G36*
X02315D02*
X022785D01*
Y042341D01*
X02315D01*
Y042686D01*
D02*
G37*
G36*
X026317D02*
X025952D01*
Y042341D01*
X026317D01*
Y042686D01*
D02*
G37*
G36*
X025198D02*
X024833D01*
Y042341D01*
X025198D01*
Y042686D01*
D02*
G37*
G36*
X024733D02*
X024368D01*
Y042341D01*
X024733D01*
Y042686D01*
D02*
G37*
G36*
X035507Y042428D02*
X0353D01*
Y042142D01*
X035507D01*
Y042428D01*
D02*
G37*
G36*
X0352D02*
X034993D01*
Y042142D01*
X0352D01*
Y042428D01*
D02*
G37*
G36*
X033557D02*
X03335D01*
Y042142D01*
X033557D01*
Y042428D01*
D02*
G37*
G36*
X03325D02*
X033043D01*
Y042142D01*
X03325D01*
Y042428D01*
D02*
G37*
G36*
X031557D02*
X03135D01*
Y042142D01*
X031557D01*
Y042428D01*
D02*
G37*
G36*
X03125D02*
X031043D01*
Y042142D01*
X03125D01*
Y042428D01*
D02*
G37*
G36*
X046212Y042366D02*
X04565D01*
Y0421D01*
X046212D01*
Y042366D01*
D02*
G37*
G36*
X04555D02*
X044988D01*
Y0421D01*
X04555D01*
Y042366D01*
D02*
G37*
G36*
X040228D02*
X039626D01*
Y0421D01*
X040228D01*
Y042366D01*
D02*
G37*
G36*
X039526D02*
X038925D01*
Y0421D01*
X039526D01*
Y042366D01*
D02*
G37*
G36*
X028365Y042241D02*
X028D01*
Y041895D01*
X028365D01*
Y042241D01*
D02*
G37*
G36*
X0279D02*
X027535D01*
Y041895D01*
X0279D01*
Y042241D01*
D02*
G37*
G36*
X026782Y042241D02*
X026417D01*
Y041895D01*
X026782D01*
Y042241D01*
D02*
G37*
G36*
X026317D02*
X025952D01*
Y041895D01*
X026317D01*
Y042241D01*
D02*
G37*
G36*
X025198Y042241D02*
X024833D01*
Y041895D01*
X025198D01*
Y042241D01*
D02*
G37*
G36*
X024733D02*
X024368D01*
Y041895D01*
X024733D01*
Y042241D01*
D02*
G37*
G36*
X023615Y042241D02*
X02325D01*
Y041895D01*
X023615D01*
Y042241D01*
D02*
G37*
G36*
X02315D02*
X022785D01*
Y041895D01*
X02315D01*
Y042241D01*
D02*
G37*
G36*
X038385Y042134D02*
X038D01*
Y041749D01*
X038385D01*
Y042134D01*
D02*
G37*
G36*
X0379D02*
X037515D01*
Y041749D01*
X0379D01*
Y042134D01*
D02*
G37*
G36*
X046212Y042D02*
X04565D01*
Y041733D01*
X046212D01*
Y042D01*
D02*
G37*
G36*
X04555D02*
X044988D01*
Y041733D01*
X04555D01*
Y042D01*
D02*
G37*
G36*
X040228Y042D02*
X039626D01*
Y041733D01*
X040228D01*
Y042D01*
D02*
G37*
G36*
X039526D02*
X038925D01*
Y041733D01*
X039526D01*
Y042D01*
D02*
G37*
G36*
X040149Y041579D02*
X039587D01*
Y041312D01*
X040149D01*
Y041579D01*
D02*
G37*
G36*
X039487D02*
X038925D01*
Y041312D01*
X039487D01*
Y041579D01*
D02*
G37*
G36*
X038385Y041649D02*
X038D01*
Y041265D01*
X038385D01*
Y041649D01*
D02*
G37*
G36*
X0379D02*
X037515D01*
Y041265D01*
X0379D01*
Y041649D01*
D02*
G37*
G36*
X040149Y041212D02*
X039587D01*
Y040946D01*
X040149D01*
Y041212D01*
D02*
G37*
G36*
X039487D02*
X038925D01*
Y040946D01*
X039487D01*
Y041212D01*
D02*
G37*
G36*
X046162Y041529D02*
X045038D01*
Y040996D01*
X046162D01*
Y041303D01*
X04651D01*
X047473Y04034D01*
Y036D01*
X043137Y031664D01*
X043037Y031706D01*
Y03202D01*
X046988Y035972D01*
X046988Y035972D01*
X047017Y03604D01*
X047017Y03604D01*
Y03858D01*
X047017Y03858D01*
X046988Y038648D01*
X046668Y038968D01*
X0466Y038997D01*
X0466Y038997D01*
X046162D01*
Y039167D01*
X045038D01*
Y038633D01*
X046162D01*
Y038803D01*
X04656D01*
X046823Y03854D01*
Y03608D01*
X04294Y032197D01*
X04284Y032239D01*
Y039184D01*
X04326Y039603D01*
X045038D01*
Y039421D01*
X046162D01*
Y039954D01*
X045038D01*
Y039797D01*
X04322D01*
X04322Y039797D01*
X043152Y039768D01*
X043152Y039768D01*
X042744Y03936D01*
X042644Y039402D01*
Y039707D01*
X043315Y040378D01*
X045038D01*
Y040208D01*
X046162D01*
Y040741D01*
X045038D01*
Y040572D01*
X043275D01*
X043275Y040572D01*
X043206Y040543D01*
X043206Y040543D01*
X042478Y039815D01*
X04245Y039747D01*
X04245Y039747D01*
Y039338D01*
X04235Y039297D01*
X041878Y039768D01*
X04181Y039797D01*
X04181Y039797D01*
X040099D01*
Y039954D01*
X038975D01*
Y039421D01*
X040099D01*
Y039603D01*
X04177D01*
X042253Y03912D01*
Y033015D01*
X042153Y032974D01*
X041808Y033318D01*
X04174Y033347D01*
X04174Y033347D01*
X039655D01*
X039623Y033379D01*
X039517D01*
X039441Y033303D01*
Y033197D01*
X039517Y033121D01*
X039623D01*
X039655Y033153D01*
X0417D01*
X042056Y032797D01*
Y029522D01*
X041856D01*
Y032461D01*
X041856Y032461D01*
X041828Y032529D01*
X041828Y032529D01*
X041388Y032968D01*
X04132Y032997D01*
X04132Y032997D01*
X038285D01*
X038253Y033029D01*
X038147D01*
X038071Y032953D01*
Y032847D01*
X038147Y032771D01*
X038253D01*
X038285Y032803D01*
X04128D01*
X04159Y032494D01*
X041589Y032489D01*
X04148Y032456D01*
X041318Y032618D01*
X04125Y032647D01*
X04125Y032647D01*
X038485D01*
X038453Y032679D01*
X038347D01*
X038271Y032603D01*
Y032497D01*
X038347Y032421D01*
X038453D01*
X038485Y032453D01*
X04121D01*
X041421Y032242D01*
X041414Y032214D01*
X041303Y032183D01*
X041248Y032238D01*
X0412D01*
Y032D01*
Y031762D01*
X041248D01*
X041366Y03188D01*
X041466Y031849D01*
Y029572D01*
X041416D01*
Y029137D01*
Y028702D01*
X041525D01*
Y028752D01*
X043443D01*
Y029144D01*
X043447Y029153D01*
X043447Y029153D01*
Y03101D01*
X04437Y031933D01*
X04928D01*
X050413Y0308D01*
Y024925D01*
X050387Y024908D01*
X050287Y024964D01*
Y03061D01*
X050287Y03061D01*
X050258Y030678D01*
X049368Y031568D01*
X0493Y031597D01*
X0493Y031597D01*
X0445D01*
X044432Y031568D01*
X044432Y031568D01*
X043902Y031038D01*
X043873Y03097D01*
X043873Y03097D01*
Y02866D01*
X043535D01*
Y028245D01*
Y027923D01*
X043485D01*
Y027814D01*
X04392D01*
X044355D01*
Y027852D01*
X044561D01*
X044561Y027852D01*
X044637Y027884D01*
X045807Y029053D01*
X045807Y029053D01*
X045838Y02913D01*
X045838Y02913D01*
Y030095D01*
X046105D01*
Y030865D01*
X045336D01*
Y030588D01*
X044707D01*
X044628Y030668D01*
X044472D01*
X044362Y030558D01*
Y030402D01*
X044472Y030292D01*
X044628D01*
X044707Y030372D01*
X045336D01*
Y030095D01*
X045622D01*
Y029175D01*
X045471Y029024D01*
X045371Y029066D01*
Y029104D01*
X045296Y029179D01*
X045189D01*
X045114Y029104D01*
Y029D01*
X044997Y028884D01*
X044897Y028925D01*
Y02946D01*
X04502Y029583D01*
X04518D01*
X045212Y029551D01*
X045319D01*
X045394Y029626D01*
Y029733D01*
X045319Y029808D01*
X045212D01*
X04518Y029776D01*
X04498D01*
X04498Y029776D01*
X044911Y029748D01*
X044911Y029748D01*
X044732Y029568D01*
X044703Y0295D01*
X044703Y0295D01*
Y02884D01*
X044405Y028542D01*
X044305Y028583D01*
Y02866D01*
X044067D01*
Y03093D01*
X04454Y031403D01*
X04926D01*
X050093Y03057D01*
Y02492D01*
X04645Y021277D01*
X0386D01*
X0386Y021277D01*
X038532Y021248D01*
X038532Y021248D01*
X037882Y020598D01*
X037853Y02053D01*
X037853Y02053D01*
Y016894D01*
X037761Y016855D01*
X037651Y016965D01*
X037349D01*
X037135Y016751D01*
Y016449D01*
X037349Y016235D01*
X037651D01*
X037865Y016449D01*
X037904Y016503D01*
X037972Y016532D01*
X037983Y016543D01*
X038083Y016501D01*
Y01577D01*
X03801Y015697D01*
X037865D01*
Y015751D01*
X037651Y015965D01*
X037349D01*
X037135Y015751D01*
Y015449D01*
X037349Y015235D01*
X037651D01*
X037865Y015449D01*
Y015503D01*
X03805D01*
X03805Y015503D01*
X038118Y015532D01*
X038248Y015662D01*
X038248Y015662D01*
X038277Y01573D01*
X038277Y01573D01*
Y02038D01*
X03874Y020843D01*
X04662D01*
X04662Y020843D01*
X046688Y020872D01*
X050578Y024762D01*
X050578Y024762D01*
X050607Y02483D01*
X050607Y02483D01*
Y03084D01*
X050607Y03084D01*
X050578Y030908D01*
X050578Y030908D01*
X049388Y032098D01*
X04932Y032127D01*
X04932Y032127D01*
X04433D01*
X044262Y032098D01*
X044262Y032098D01*
X043334Y031171D01*
X043234Y031212D01*
Y031487D01*
X047638Y035892D01*
X047638Y035892D01*
X047667Y03596D01*
Y04038D01*
X047667Y04038D01*
X047638Y040448D01*
X047638Y040448D01*
X046618Y041468D01*
X04655Y041497D01*
X04655Y041497D01*
X046162D01*
Y041529D01*
D02*
G37*
G36*
X038335Y040785D02*
X037565D01*
Y040015D01*
X037789D01*
Y039035D01*
X037515D01*
Y038726D01*
X037315D01*
X037315Y038726D01*
X037202Y038679D01*
X037202Y038679D01*
X037086Y038564D01*
X037043Y038458D01*
X036995Y038408D01*
X036973Y038386D01*
X036939Y038386D01*
X036697D01*
Y038522D01*
X036668Y03859D01*
X036668Y03859D01*
X035548Y039711D01*
X035479Y039739D01*
X035457Y039832D01*
Y040008D01*
X035043D01*
Y039436D01*
X035457D01*
Y039436D01*
X035522Y039463D01*
X036499Y038486D01*
X036494Y038386D01*
X036245D01*
Y037892D01*
X036235D01*
X036167Y037864D01*
X036167Y037864D01*
X035528Y037225D01*
X0355Y037157D01*
X035408Y037135D01*
X034945D01*
Y036366D01*
X035233D01*
Y03416D01*
X035233Y03416D01*
X035262Y034092D01*
X037361Y031992D01*
Y031947D01*
X037437Y031871D01*
X037543D01*
X037619Y031947D01*
Y032053D01*
X037543Y032129D01*
X037498D01*
X035427Y0342D01*
Y036366D01*
X035715D01*
Y037135D01*
X035715Y037135D01*
X035715D01*
X03578Y037203D01*
X036272Y037695D01*
X036939D01*
X036975Y037695D01*
X037039Y037622D01*
Y037278D01*
X036975Y037205D01*
X036245D01*
Y036514D01*
X036975D01*
Y036789D01*
X037085D01*
X037085Y036789D01*
X037198Y036836D01*
X037314Y036952D01*
X037314Y036952D01*
X037361Y037065D01*
X037361Y037065D01*
Y038383D01*
X037382Y038405D01*
X037515D01*
Y038265D01*
X038285D01*
Y039035D01*
X038111D01*
Y040015D01*
X038335D01*
Y040314D01*
X038975D01*
Y040208D01*
X040099D01*
Y040741D01*
X038975D01*
Y040635D01*
X038335D01*
Y040785D01*
D02*
G37*
G36*
X020124Y042678D02*
X019556D01*
X019031Y042461D01*
X018629Y042059D01*
X018412Y041534D01*
Y040966D01*
X018629Y040441D01*
X019031Y040039D01*
X019556Y039822D01*
X020124D01*
X020649Y040039D01*
X021051Y040441D01*
X021268Y040966D01*
Y041534D01*
X021051Y042059D01*
X020649Y042461D01*
X020124Y042678D01*
D02*
G37*
G36*
X031507Y040008D02*
X031093D01*
Y039969D01*
X030822D01*
X030754Y03994D01*
X030754Y03994D01*
X030132Y039318D01*
X030103Y03925D01*
X030103Y03925D01*
Y038426D01*
X029835D01*
Y037735D01*
X030428D01*
X031136Y037028D01*
X031136Y037028D01*
X031165Y037015D01*
Y036416D01*
X031765D01*
X031777Y036386D01*
X036832Y031332D01*
X036832Y031332D01*
X0369Y031303D01*
X040765D01*
X040797Y031271D01*
X040903D01*
X040979Y031347D01*
Y031453D01*
X040903Y031529D01*
X040797D01*
X040765Y031497D01*
X03694D01*
X031942Y036495D01*
Y036506D01*
X031935Y036523D01*
Y037185D01*
X031272D01*
X031255Y037193D01*
X031255Y037193D01*
X031244D01*
X030565Y037872D01*
Y038426D01*
X030297D01*
Y03921D01*
X030862Y039775D01*
X031093D01*
Y039436D01*
X031507D01*
Y040008D01*
D02*
G37*
G36*
X028315Y041455D02*
X027585D01*
Y040764D01*
X027853D01*
Y03917D01*
X027675D01*
Y03847D01*
X028425D01*
Y03917D01*
X028047D01*
Y040764D01*
X028315D01*
Y041455D01*
D02*
G37*
G36*
X026732D02*
X026002D01*
Y040764D01*
X02627D01*
Y03917D01*
X026058D01*
Y03847D01*
X026808D01*
Y03917D01*
X026463D01*
Y040764D01*
X026732D01*
Y041455D01*
D02*
G37*
G36*
X025148D02*
X024418D01*
Y040764D01*
X024687D01*
Y03917D01*
X024442D01*
Y03847D01*
X025192D01*
Y03917D01*
X02488D01*
Y040764D01*
X025148D01*
Y041455D01*
D02*
G37*
G36*
X023565D02*
X022835D01*
Y040764D01*
X023103D01*
Y03917D01*
X022825D01*
Y03847D01*
X023575D01*
Y03917D01*
X023297D01*
Y040764D01*
X023565D01*
Y041455D01*
D02*
G37*
G36*
X031985Y038535D02*
X0316D01*
Y03815D01*
X031985D01*
Y038535D01*
D02*
G37*
G36*
X0315D02*
X031115D01*
Y03815D01*
X0315D01*
Y038535D01*
D02*
G37*
G36*
X035765Y038484D02*
X03538D01*
Y0381D01*
X035765D01*
Y038484D01*
D02*
G37*
G36*
X033205D02*
X03282D01*
Y0381D01*
X033205D01*
Y038484D01*
D02*
G37*
G36*
X03272D02*
X032335D01*
Y0381D01*
X03272D01*
Y038484D01*
D02*
G37*
G36*
X03528D02*
X034895D01*
Y0381D01*
X03528D01*
Y038484D01*
D02*
G37*
G36*
X046162Y038379D02*
X045038D01*
Y037846D01*
X046162D01*
Y038379D01*
D02*
G37*
G36*
X040099D02*
X038975D01*
Y037846D01*
X040099D01*
Y038379D01*
D02*
G37*
G36*
X031985Y03805D02*
X0316D01*
Y037665D01*
X031985D01*
Y03805D01*
D02*
G37*
G36*
X0315D02*
X031115D01*
Y037665D01*
X0315D01*
Y03805D01*
D02*
G37*
G36*
X035765Y038D02*
X03538D01*
Y037615D01*
X035765D01*
Y038D01*
D02*
G37*
G36*
X03528D02*
X034895D01*
Y037615D01*
X03528D01*
Y038D01*
D02*
G37*
G36*
X033205D02*
X03282D01*
Y037615D01*
X033205D01*
Y038D01*
D02*
G37*
G36*
X03272D02*
X032335D01*
Y037615D01*
X03272D01*
Y038D01*
D02*
G37*
G36*
X038335Y037785D02*
X03795D01*
Y037401D01*
X038335D01*
Y037785D01*
D02*
G37*
G36*
X03785D02*
X037465D01*
Y037401D01*
X03785D01*
Y037785D01*
D02*
G37*
G36*
X046162Y037592D02*
X045038D01*
Y037059D01*
X046162D01*
Y037592D01*
D02*
G37*
G36*
X040099D02*
X038975D01*
Y037059D01*
X040099D01*
Y037592D01*
D02*
G37*
G36*
X038335Y037301D02*
X03795D01*
Y036916D01*
X038335D01*
Y037301D01*
D02*
G37*
G36*
X03785D02*
X037465D01*
Y036916D01*
X03785D01*
Y037301D01*
D02*
G37*
G36*
X046212Y036854D02*
X04565D01*
Y036588D01*
X046212D01*
Y036854D01*
D02*
G37*
G36*
X04555D02*
X044988D01*
Y036588D01*
X04555D01*
Y036854D01*
D02*
G37*
G36*
X034405Y037245D02*
X033675D01*
Y036554D01*
X034405D01*
Y037245D01*
D02*
G37*
G36*
X030565D02*
X029835D01*
Y036554D01*
X030565D01*
Y037245D01*
D02*
G37*
G36*
X040099Y036804D02*
X038975D01*
Y036271D01*
X040099D01*
Y036804D01*
D02*
G37*
G36*
X046212Y036488D02*
X04565D01*
Y036221D01*
X046212D01*
Y036488D01*
D02*
G37*
G36*
X04555D02*
X044988D01*
Y036221D01*
X04555D01*
Y036488D01*
D02*
G37*
G36*
X028425Y03775D02*
X027675D01*
Y03705D01*
X027953D01*
Y0362D01*
X027953Y0362D01*
X027982Y036132D01*
X028616Y035497D01*
X028601Y035425D01*
X028586Y035397D01*
X02699D01*
X02653Y035857D01*
Y03705D01*
X026808D01*
Y03775D01*
X026058D01*
Y03705D01*
X026337D01*
Y035817D01*
X026337Y035817D01*
X026365Y035748D01*
X026816Y035297D01*
X026775Y035197D01*
X024913D01*
Y03705D01*
X025192D01*
Y03775D01*
X024442D01*
Y03705D01*
X02472D01*
Y035146D01*
X024748Y035078D01*
X024781Y035064D01*
X024794Y035032D01*
X024863Y035003D01*
X03186D01*
X038896Y027967D01*
X038861Y027878D01*
X038769Y027868D01*
X031768Y034868D01*
X0317Y034897D01*
X0317Y034897D01*
X02429D01*
X023297Y03589D01*
Y03705D01*
X023575D01*
Y03775D01*
X022825D01*
Y03705D01*
X023103D01*
Y03585D01*
X023103Y03585D01*
X023132Y035782D01*
X024182Y034732D01*
X024182Y034732D01*
X02425Y034703D01*
X03166D01*
X0386Y027764D01*
X038558Y027664D01*
X038463D01*
X034238Y031888D01*
X03417Y031917D01*
X03417Y031917D01*
X03233D01*
X03233Y031917D01*
X032262Y031888D01*
X032262Y031888D01*
X031922Y031548D01*
X031893Y03148D01*
X031801Y031445D01*
X031645D01*
Y030715D01*
X032375D01*
Y031445D01*
X032222D01*
X032184Y031537D01*
X03237Y031723D01*
X03413D01*
X038286Y027567D01*
X038245Y027467D01*
X03807D01*
X034388Y031148D01*
X03432Y031177D01*
X03432Y031177D01*
X033375D01*
Y031231D01*
X033161Y031445D01*
X032859D01*
X032645Y031231D01*
Y030929D01*
X032859Y030715D01*
X033161D01*
X033375Y030929D01*
Y030983D01*
X03428D01*
X037844Y027419D01*
X037803Y027319D01*
X037764Y027318D01*
X037703Y027379D01*
X037597D01*
X037521Y027303D01*
Y027197D01*
X037597Y027121D01*
X037663D01*
X03768Y027105D01*
X037748Y027076D01*
X037748Y027076D01*
X040198D01*
Y026876D01*
X03707D01*
X035627Y028318D01*
X035559Y028347D01*
X035559Y028347D01*
X0343D01*
X034232Y028318D01*
X034232Y028318D01*
X033982Y028068D01*
X033953Y028D01*
X033908Y027915D01*
X033899D01*
X033685Y027701D01*
Y027399D01*
X033899Y027185D01*
X034201D01*
X034415Y027399D01*
Y027701D01*
X034201Y027915D01*
X034202Y028015D01*
X03434Y028153D01*
X035519D01*
X036961Y026711D01*
X036961Y026711D01*
X03703Y026683D01*
X040148D01*
Y026633D01*
X040583D01*
X041018D01*
Y026742D01*
X040968D01*
Y027064D01*
Y027458D01*
Y027852D01*
Y028245D01*
Y02866D01*
X040198D01*
Y028647D01*
X03976D01*
X038038Y030369D01*
Y030491D01*
X03807Y030523D01*
Y030629D01*
X037995Y030705D01*
X037888D01*
X037813Y030629D01*
Y030523D01*
X037845Y030491D01*
Y030329D01*
X037845Y030329D01*
X037873Y03026D01*
X037799Y030198D01*
X032378Y035618D01*
X03231Y035647D01*
X03231Y035647D01*
X02874D01*
X028147Y03624D01*
Y03705D01*
X028425D01*
Y03775D01*
D02*
G37*
G36*
X040099Y039167D02*
X038975D01*
Y038633D01*
X040099D01*
Y038803D01*
X04036D01*
X040603Y03856D01*
Y034865D01*
X040571Y034833D01*
Y034727D01*
X040647Y034651D01*
X040753D01*
X040829Y034727D01*
Y034833D01*
X040797Y034865D01*
Y0386D01*
X040797Y0386D01*
X040768Y038668D01*
X040768Y038668D01*
X040468Y038968D01*
X0404Y038997D01*
X0404Y038997D01*
X040099D01*
Y039167D01*
D02*
G37*
G36*
X029055Y034218D02*
X028345D01*
Y033822D01*
X027825D01*
X027825Y033822D01*
X027756Y033793D01*
X027756Y033793D01*
X027412Y033449D01*
X027384Y033381D01*
X027384Y033381D01*
Y033015D01*
X02633D01*
Y030785D01*
X02757D01*
Y032413D01*
X027577Y032431D01*
X027577Y032431D01*
Y033341D01*
X027865Y033628D01*
X028345D01*
Y033232D01*
X029055D01*
Y034218D01*
D02*
G37*
G36*
X050919Y035083D02*
X049981D01*
X049317Y034419D01*
Y033481D01*
X049981Y032817D01*
X050919D01*
X051583Y033481D01*
Y034419D01*
X050919Y035083D01*
D02*
G37*
G36*
X021419D02*
X020481D01*
X019817Y034419D01*
Y033481D01*
X020481Y032817D01*
X021419D01*
X022083Y033481D01*
Y034419D01*
X021419Y035083D01*
D02*
G37*
G36*
X029105Y032693D02*
X02875D01*
Y0322D01*
X029105D01*
Y032693D01*
D02*
G37*
G36*
X02865D02*
X028295D01*
Y0322D01*
X02865D01*
Y032693D01*
D02*
G37*
G36*
X0411Y032238D02*
X041052D01*
X040912Y032099D01*
Y03205D01*
X0411D01*
Y032238D01*
D02*
G37*
G36*
X033507Y040008D02*
X033093D01*
Y039436D01*
X033158D01*
X033203Y03935D01*
X033232Y039282D01*
X033943Y03857D01*
Y038426D01*
X033675D01*
Y037842D01*
X033668Y037825D01*
X033668Y037825D01*
Y037785D01*
X033018Y037135D01*
X032385D01*
Y036366D01*
X032673D01*
Y03614D01*
X032673Y03614D01*
X032702Y036072D01*
X036851Y031922D01*
Y031867D01*
X036927Y031791D01*
X037033D01*
X037109Y031867D01*
Y031973D01*
X037033Y032049D01*
X036998D01*
X032867Y03618D01*
Y036366D01*
X033155D01*
Y036998D01*
X033833Y037676D01*
X033833Y037676D01*
X033857Y037735D01*
X034405D01*
Y038426D01*
X034137D01*
Y03861D01*
X034137Y03861D01*
X034108Y038678D01*
X034108Y038678D01*
X033451Y039336D01*
X033492Y039436D01*
X033507D01*
Y040008D01*
D02*
G37*
G36*
X0411Y03195D02*
X040912D01*
Y031902D01*
X041052Y031762D01*
X0411D01*
Y03195D01*
D02*
G37*
G36*
X029105Y0321D02*
X02875D01*
Y031607D01*
X029105D01*
Y0321D01*
D02*
G37*
G36*
X02865D02*
X028295D01*
Y031607D01*
X02865D01*
Y0321D01*
D02*
G37*
G36*
X021503Y031257D02*
X0211D01*
Y03105D01*
X021739D01*
X021685Y031182D01*
X021503Y031257D01*
D02*
G37*
G36*
X021D02*
X020597D01*
X020415Y031182D01*
X020361Y03105D01*
X021D01*
Y031257D01*
D02*
G37*
G36*
X040735Y031135D02*
X04035D01*
Y03075D01*
X040735D01*
Y031135D01*
D02*
G37*
G36*
X04025D02*
X039865D01*
Y03075D01*
X04025D01*
Y031135D01*
D02*
G37*
G36*
X021739Y03095D02*
X0211D01*
Y030743D01*
X021503D01*
X021685Y030818D01*
X021739Y03095D01*
D02*
G37*
G36*
X021D02*
X020361D01*
X020415Y030818D01*
X020597Y030743D01*
X021D01*
Y03095D01*
D02*
G37*
G36*
X047454Y030915D02*
X04707D01*
Y03053D01*
X047454D01*
Y030915D01*
D02*
G37*
G36*
X04697D02*
X046585D01*
Y03053D01*
X04697D01*
Y030915D01*
D02*
G37*
G36*
X040735Y03065D02*
X04035D01*
Y030265D01*
X040735D01*
Y03065D01*
D02*
G37*
G36*
X04025D02*
X039865D01*
Y030265D01*
X04025D01*
Y03065D01*
D02*
G37*
G36*
X029135Y030584D02*
X02875D01*
Y0302D01*
X029135D01*
Y030584D01*
D02*
G37*
G36*
X02865D02*
X028265D01*
Y0302D01*
X02865D01*
Y030584D01*
D02*
G37*
G36*
X047454Y03043D02*
X04707D01*
Y030045D01*
X047454D01*
Y03043D01*
D02*
G37*
G36*
X04697D02*
X046585D01*
Y030045D01*
X04697D01*
Y03043D01*
D02*
G37*
G36*
X029135Y0301D02*
X02875D01*
Y029715D01*
X029135D01*
Y0301D01*
D02*
G37*
G36*
X02865D02*
X028265D01*
Y029715D01*
X02865D01*
Y0301D01*
D02*
G37*
G36*
X049235Y029984D02*
X04885D01*
Y0296D01*
X049235D01*
Y029984D01*
D02*
G37*
G36*
X04875D02*
X048365D01*
Y0296D01*
X04875D01*
Y029984D01*
D02*
G37*
G36*
X032355Y029765D02*
X031971D01*
Y02938D01*
X032355D01*
Y029765D01*
D02*
G37*
G36*
X031871D02*
X031486D01*
Y02938D01*
X031871D01*
Y029765D01*
D02*
G37*
G36*
X049235Y0295D02*
X04885D01*
Y029115D01*
X049235D01*
Y0295D01*
D02*
G37*
G36*
X04875D02*
X048365D01*
Y029115D01*
X04875D01*
Y0295D01*
D02*
G37*
G36*
X033605Y029715D02*
X032835D01*
Y028945D01*
X033605D01*
Y029715D01*
D02*
G37*
G36*
X032355Y02928D02*
X031971D01*
Y028895D01*
X032355D01*
Y02928D01*
D02*
G37*
G36*
X031871D02*
X031486D01*
Y028895D01*
X031871D01*
Y02928D01*
D02*
G37*
G36*
X039385Y031085D02*
X038616D01*
Y030315D01*
X038893D01*
Y030159D01*
X038893Y030159D01*
X038924Y030082D01*
X039083Y029923D01*
X039083Y029923D01*
X039159Y029892D01*
X039159Y029892D01*
X040676D01*
X040697Y029871D01*
X040803D01*
X040824Y029892D01*
X041061D01*
Y029522D01*
X04106D01*
Y028752D01*
X041207D01*
Y028702D01*
X041316D01*
Y029137D01*
Y029572D01*
X041277D01*
Y029941D01*
X041277Y029941D01*
X041245Y030018D01*
X041245Y030018D01*
X041187Y030077D01*
X04111Y030108D01*
X04111Y030108D01*
X040824D01*
X040803Y030129D01*
X040697D01*
X040676Y030108D01*
X039204D01*
X039109Y030203D01*
Y030315D01*
X039385D01*
Y031085D01*
D02*
G37*
G36*
X049185Y028635D02*
X048415D01*
Y028468D01*
X046663D01*
Y02848D01*
X046509Y028634D01*
X046291D01*
X046137Y02848D01*
Y028262D01*
X046146Y028254D01*
X045359Y027467D01*
X045148D01*
X045119Y027537D01*
Y027643D01*
X045043Y027719D01*
X044937D01*
X044893Y027675D01*
X044355D01*
Y027714D01*
X04392D01*
X043485D01*
Y027605D01*
X043535D01*
Y027064D01*
Y02667D01*
Y026277D01*
X044305D01*
X044383Y026224D01*
X044472Y026135D01*
Y025827D01*
X044423Y025778D01*
X043443D01*
Y026185D01*
X043296D01*
Y026235D01*
X043187D01*
Y0258D01*
Y025365D01*
X043226D01*
Y024616D01*
X043226Y024616D01*
X043258Y024539D01*
X043542Y024255D01*
Y022595D01*
X043506Y022559D01*
X043335D01*
Y022835D01*
X042565D01*
Y022066D01*
X043335D01*
Y022342D01*
X04355D01*
X04355Y022342D01*
X043627Y022374D01*
X043727Y022473D01*
X043727Y022473D01*
X043758Y02255D01*
X043758Y02255D01*
Y0243D01*
X043758Y0243D01*
X043727Y024377D01*
X043727Y024377D01*
X043442Y024661D01*
Y025415D01*
X043443D01*
Y025562D01*
X044423D01*
X044502Y025482D01*
X044658D01*
X044768Y025592D01*
Y025748D01*
X044688Y025827D01*
Y02618D01*
X044657Y026257D01*
X044657Y026257D01*
X044451Y026462D01*
X044374Y026494D01*
X044305Y026555D01*
Y027076D01*
X045637D01*
X046146Y026567D01*
X046137Y026559D01*
Y026341D01*
X046291Y026187D01*
X046509D01*
X046517Y026196D01*
X047579Y025134D01*
X047582Y025128D01*
X047628Y025082D01*
X047628Y025082D01*
X047696Y025053D01*
X047696Y025053D01*
X048445D01*
Y024736D01*
X049215D01*
Y025505D01*
X048445D01*
Y025247D01*
X047736D01*
X047721Y025262D01*
X047718Y025268D01*
X046654Y026333D01*
X046663Y026341D01*
Y026559D01*
X046509Y026713D01*
X046291D01*
X046283Y026704D01*
X045745Y027242D01*
X045677Y02727D01*
X045677Y02727D01*
X045577D01*
X045535Y02737D01*
X046283Y028117D01*
X046291Y028109D01*
X046509D01*
X046663Y028262D01*
Y028275D01*
X048415D01*
Y027866D01*
X049185D01*
Y028635D01*
D02*
G37*
G36*
X025189Y028444D02*
X02445D01*
Y028158D01*
X025189D01*
Y028444D01*
D02*
G37*
G36*
X02435D02*
X023611D01*
Y028158D01*
X02435D01*
Y028444D01*
D02*
G37*
G36*
X032222Y027965D02*
X0321D01*
Y0276D01*
X032465D01*
Y027722D01*
X032222Y027965D01*
D02*
G37*
G36*
X032D02*
X031878D01*
X031635Y027722D01*
Y0276D01*
X032D01*
Y027965D01*
D02*
G37*
G36*
X02367Y033015D02*
X02243D01*
Y032261D01*
X0191D01*
X018986Y032214D01*
X018986Y032214D01*
X018736Y031964D01*
X018689Y03185D01*
X018689Y03185D01*
Y031188D01*
X018209D01*
Y030812D01*
X019491D01*
Y031188D01*
X019011D01*
Y031783D01*
X019167Y031939D01*
X02243D01*
Y030785D01*
X02367D01*
Y031739D01*
X025418D01*
X025439Y031718D01*
Y027637D01*
X025401Y027599D01*
X02521D01*
X025154Y027655D01*
X025143Y027699D01*
X025189Y027772D01*
X025189Y027804D01*
Y028058D01*
X0244D01*
X023611D01*
Y027804D01*
X023611Y027772D01*
X023661Y027692D01*
X023661Y027672D01*
X023661Y027185D01*
X023611Y027106D01*
X023611Y027073D01*
Y026819D01*
X0244D01*
X025189D01*
X025189Y027106D01*
X025143Y027178D01*
X025154Y027222D01*
X02521Y027278D01*
X025468D01*
X025468Y027278D01*
X025581Y027325D01*
X025714Y027457D01*
X025761Y027571D01*
X025761Y027571D01*
Y031785D01*
X025761Y031785D01*
X025714Y031898D01*
X025714Y031898D01*
X025598Y032014D01*
X025485Y032061D01*
X025485Y032061D01*
X02367D01*
Y033015D01*
D02*
G37*
G36*
X033201Y027915D02*
X032899D01*
X032685Y027701D01*
Y027399D01*
X032899Y027185D01*
X033201D01*
X033415Y027399D01*
Y027701D01*
X033201Y027915D01*
D02*
G37*
G36*
X032465Y0275D02*
X0321D01*
Y027135D01*
X032222D01*
X032465Y027378D01*
Y0275D01*
D02*
G37*
G36*
X032D02*
X031635D01*
Y027378D01*
X031878Y027135D01*
X032D01*
Y0275D01*
D02*
G37*
G36*
X02855Y028064D02*
X02715D01*
Y027019D01*
X02855D01*
Y028064D01*
D02*
G37*
G36*
X030485Y027334D02*
X0301D01*
Y02695D01*
X030485D01*
Y027334D01*
D02*
G37*
G36*
X03D02*
X029615D01*
Y02695D01*
X03D01*
Y027334D01*
D02*
G37*
G36*
X021537Y028543D02*
X020208D01*
Y026819D01*
X021537D01*
Y028543D01*
D02*
G37*
G36*
X018828Y028936D02*
X018286D01*
Y026819D01*
X018828D01*
Y028936D01*
D02*
G37*
G36*
X041018Y026533D02*
X040583D01*
X040148D01*
Y026494D01*
X039586D01*
X039586Y026494D01*
X039509Y026462D01*
X039509Y026462D01*
X039184Y026137D01*
X039084Y026179D01*
Y026335D01*
X038315D01*
Y025565D01*
X039084D01*
Y025826D01*
X039174Y025866D01*
X039251Y025898D01*
X039631Y026278D01*
X040198D01*
Y026277D01*
X040968D01*
Y026424D01*
X041018D01*
Y026533D01*
D02*
G37*
G36*
X049265Y026854D02*
X04888D01*
Y02647D01*
X049265D01*
Y026854D01*
D02*
G37*
G36*
X04878D02*
X048395D01*
Y02647D01*
X04878D01*
Y026854D01*
D02*
G37*
G36*
X030485Y02685D02*
X0301D01*
Y026465D01*
X030485D01*
Y02685D01*
D02*
G37*
G36*
X03D02*
X029615D01*
Y026465D01*
X03D01*
Y02685D01*
D02*
G37*
G36*
X035415Y027915D02*
X034685D01*
Y027372D01*
X033923Y026611D01*
X03096D01*
X030846Y026564D01*
X030846Y026564D01*
X030276Y025993D01*
X030257Y025985D01*
X029665D01*
Y025216D01*
X029889D01*
Y024817D01*
X029433Y024361D01*
X028267D01*
X028011Y024617D01*
Y024736D01*
X028097D01*
Y025781D01*
X027603D01*
Y024736D01*
X027689D01*
Y02455D01*
X027689Y02455D01*
X027736Y024436D01*
X028086Y024086D01*
X028086Y024086D01*
X0282Y024039D01*
X0282Y024039D01*
X0295D01*
X0295Y024039D01*
X029614Y024086D01*
X030164Y024636D01*
X030164Y024636D01*
X030211Y02475D01*
Y025216D01*
X030435D01*
Y025712D01*
X03046Y025723D01*
X031027Y026289D01*
X03399D01*
X03399Y026289D01*
X034104Y026336D01*
X034947Y02718D01*
X034947Y02718D01*
X034949Y027185D01*
X035415D01*
Y027915D01*
D02*
G37*
G36*
X037835Y026385D02*
X03745D01*
Y026D01*
X037835D01*
Y026385D01*
D02*
G37*
G36*
X03735D02*
X036966D01*
Y026D01*
X03735D01*
Y026385D01*
D02*
G37*
G36*
X049265Y02637D02*
X04888D01*
Y025985D01*
X049265D01*
Y02637D01*
D02*
G37*
G36*
X04878D02*
X048395D01*
Y025985D01*
X04878D01*
Y02637D01*
D02*
G37*
G36*
X025189Y026719D02*
X0244D01*
X023611D01*
X023611Y026433D01*
X023661Y026354D01*
X023661Y026333D01*
Y025817D01*
X023661Y025814D01*
Y025717D01*
X023661Y025714D01*
Y025591D01*
X023565D01*
X023565Y025591D01*
X023452Y025544D01*
X023452Y025544D01*
X023336Y025429D01*
X023289Y025315D01*
X023289Y025315D01*
Y021864D01*
X02311Y02179D01*
X023092Y021745D01*
X0226D01*
Y021055D01*
X02297D01*
Y018468D01*
X02311Y018128D01*
X023572Y017667D01*
X02375Y017593D01*
Y01735D01*
X02545D01*
Y01845D01*
X024582D01*
X024494Y018487D01*
X02411D01*
X02393Y018666D01*
Y021055D01*
X0247D01*
Y021745D01*
X023808D01*
X02379Y02179D01*
X023611Y021864D01*
Y025065D01*
X023661Y025144D01*
X025139D01*
Y025714D01*
X025139Y025717D01*
Y025814D01*
X025139Y025817D01*
Y026003D01*
X026015D01*
X026047Y025971D01*
X026153D01*
X026229Y026047D01*
Y026153D01*
X026153Y026229D01*
X026047D01*
X026015Y026197D01*
X025139D01*
X025139Y026354D01*
X025189Y026433D01*
X025189Y026466D01*
Y026719D01*
D02*
G37*
G36*
X037835Y0259D02*
X03745D01*
Y025515D01*
X037835D01*
Y0259D01*
D02*
G37*
G36*
X03735D02*
X036966D01*
Y025515D01*
X03735D01*
Y0259D01*
D02*
G37*
G36*
X043087Y026235D02*
X042978D01*
Y026185D01*
X04106D01*
Y025798D01*
X041052Y02578D01*
X041052Y02578D01*
Y025545D01*
X040674Y025167D01*
X038955D01*
X038923Y025199D01*
X038817D01*
X038741Y025123D01*
Y025017D01*
X038817Y024941D01*
X038923D01*
X038955Y024973D01*
X040435D01*
X040476Y024873D01*
X039002Y023398D01*
X038973Y02333D01*
X038973Y02333D01*
Y02171D01*
X038973Y02171D01*
X039002Y021642D01*
X039162Y021482D01*
X039162Y021482D01*
X03923Y021453D01*
X03923Y021453D01*
X042465D01*
X042497Y021421D01*
X042603D01*
X042679Y021497D01*
Y021603D01*
X042603Y021679D01*
X042497D01*
X042465Y021647D01*
X03927D01*
X039167Y02175D01*
Y02329D01*
X04063Y024753D01*
X04102D01*
X04102Y024753D01*
X041088Y024782D01*
X041434Y025127D01*
X041434Y025127D01*
X041462Y025196D01*
X041462Y025196D01*
Y025415D01*
X041856D01*
Y025138D01*
X041821Y025103D01*
Y024997D01*
X041897Y024921D01*
X042003D01*
X042004Y024921D01*
X042021Y024808D01*
X04186Y024647D01*
X041515D01*
X041483Y024679D01*
X041377D01*
X041301Y024603D01*
Y024497D01*
X041281Y024447D01*
X04107D01*
X04107Y024447D01*
X041002Y024418D01*
X041002Y024418D01*
X040477Y023893D01*
X040448Y023825D01*
X040448Y023825D01*
Y02382D01*
X040401Y023773D01*
Y023667D01*
X040477Y023591D01*
X040583D01*
X040659Y023667D01*
Y023773D01*
X040644Y023788D01*
X04111Y024253D01*
X041975D01*
X042015Y024157D01*
X041963Y024106D01*
X041915Y024126D01*
Y024126D01*
X041185D01*
Y023435D01*
X041915D01*
Y023718D01*
X041937Y02381D01*
X042005Y023839D01*
X042615Y024448D01*
X042644Y024517D01*
X042644Y024517D01*
Y025415D01*
X042978D01*
Y025365D01*
X043087D01*
Y0258D01*
Y026235D01*
D02*
G37*
G36*
X027241Y025831D02*
X026994D01*
Y025308D01*
X027241D01*
Y025831D01*
D02*
G37*
G36*
X026894D02*
X026648D01*
Y025308D01*
X026894D01*
Y025831D01*
D02*
G37*
G36*
X034644Y025565D02*
X03426D01*
Y02518D01*
X034644D01*
Y025565D01*
D02*
G37*
G36*
X03416D02*
X033775D01*
Y02518D01*
X03416D01*
Y025565D01*
D02*
G37*
G36*
X021537Y026719D02*
X020208D01*
Y024996D01*
X021537D01*
Y026719D01*
D02*
G37*
G36*
X029085Y029235D02*
X028315D01*
Y028466D01*
X028857D01*
X028989Y028334D01*
Y026317D01*
X02874Y026068D01*
X028693Y025954D01*
X028693Y025954D01*
Y025781D01*
X028509D01*
Y024736D01*
X029002D01*
Y025327D01*
X029015Y025357D01*
Y025887D01*
X029264Y026136D01*
X029264Y026136D01*
X029311Y02625D01*
X029311Y02625D01*
Y0284D01*
X029311Y0284D01*
X029264Y028514D01*
X029264Y028514D01*
X029085Y028693D01*
Y029235D01*
D02*
G37*
G36*
X034644Y02508D02*
X03426D01*
Y024695D01*
X034644D01*
Y02508D01*
D02*
G37*
G36*
X03416D02*
X033775D01*
Y024695D01*
X03416D01*
Y02508D01*
D02*
G37*
G36*
X027241Y025208D02*
X026994D01*
Y024686D01*
X027241D01*
Y025208D01*
D02*
G37*
G36*
X026894D02*
X026648D01*
Y024686D01*
X026894D01*
Y025208D01*
D02*
G37*
G36*
X01947Y028936D02*
X018928D01*
Y026769D01*
Y024602D01*
X01947D01*
Y024996D01*
X020108D01*
Y026769D01*
Y028543D01*
X01947D01*
Y028936D01*
D02*
G37*
G36*
X018828Y026719D02*
X018286D01*
Y024602D01*
X018828D01*
Y026719D01*
D02*
G37*
G36*
X044598Y024008D02*
X04455D01*
Y02382D01*
X044738D01*
Y023869D01*
X044598Y024008D01*
D02*
G37*
G36*
X04445D02*
X044401D01*
X044262Y023869D01*
Y02382D01*
X04445D01*
Y024008D01*
D02*
G37*
G36*
X043385Y024184D02*
X043D01*
Y0238D01*
X043385D01*
Y024184D01*
D02*
G37*
G36*
X0429D02*
X042515D01*
Y0238D01*
X0429D01*
Y024184D01*
D02*
G37*
G36*
X030964Y023845D02*
X030195D01*
Y023539D01*
X030052D01*
X030052Y023539D01*
X029984Y023511D01*
X029984Y023511D01*
X029832Y023358D01*
X029815Y023318D01*
X029715Y023338D01*
Y02341D01*
X02933D01*
Y023025D01*
X029703D01*
X029715Y023025D01*
X029803Y022997D01*
Y022704D01*
X029755Y022666D01*
X029655Y022714D01*
Y022725D01*
X028964D01*
Y021995D01*
X029655D01*
Y022399D01*
X029766D01*
X029766Y022399D01*
X029834Y022427D01*
X029968Y022562D01*
X029968Y022562D01*
X029997Y02263D01*
Y02325D01*
X030092Y023346D01*
X030195D01*
Y023075D01*
X030964D01*
Y023353D01*
X03107D01*
X031849Y022574D01*
X031793Y022489D01*
X031707D01*
X031631Y022413D01*
Y022307D01*
X031663Y022275D01*
Y020825D01*
X031631Y020793D01*
Y020687D01*
X031707Y020611D01*
X031813D01*
X031889Y020687D01*
Y020793D01*
X031857Y020825D01*
Y022275D01*
X031889Y022307D01*
Y022393D01*
X031974Y022449D01*
X033802Y020622D01*
X033802Y020622D01*
X03387Y020593D01*
X035605D01*
X035637Y020561D01*
X035743D01*
X035819Y020637D01*
Y020743D01*
X035743Y020819D01*
X035637D01*
X035605Y020787D01*
X03391D01*
X031178Y023518D01*
X03111Y023547D01*
X03111Y023547D01*
X030964D01*
Y023845D01*
D02*
G37*
G36*
X044738Y02372D02*
X04455D01*
Y023532D01*
X044598D01*
X044738Y023672D01*
Y02372D01*
D02*
G37*
G36*
X04445D02*
X044262D01*
Y023672D01*
X044401Y023532D01*
X04445D01*
Y02372D01*
D02*
G37*
G36*
X029715Y023895D02*
X02933D01*
Y02351D01*
X029715D01*
Y023895D01*
D02*
G37*
G36*
X02923D02*
X028846D01*
Y02351D01*
X02923D01*
Y023895D01*
D02*
G37*
G36*
X043385Y0237D02*
X043D01*
Y023315D01*
X043385D01*
Y0237D01*
D02*
G37*
G36*
X0429D02*
X042515D01*
Y023315D01*
X0429D01*
Y0237D01*
D02*
G37*
G36*
X02923Y02341D02*
X028846D01*
Y023025D01*
X02923D01*
Y02341D01*
D02*
G37*
G36*
X036365Y023165D02*
X036D01*
Y0228D01*
X036365D01*
Y023165D01*
D02*
G37*
G36*
X0359D02*
X035535D01*
Y0228D01*
X0359D01*
Y023165D01*
D02*
G37*
G36*
X041965Y022995D02*
X0416D01*
Y022649D01*
X041965D01*
Y022995D01*
D02*
G37*
G36*
X0415D02*
X041135D01*
Y022649D01*
X0415D01*
Y022995D01*
D02*
G37*
G36*
X034101Y023115D02*
X033799D01*
X033585Y022901D01*
Y022599D01*
X033799Y022385D01*
X034101D01*
X034315Y022599D01*
Y022901D01*
X034101Y023115D01*
D02*
G37*
G36*
X033101D02*
X032799D01*
X032585Y022901D01*
Y022599D01*
X032799Y022385D01*
X033101D01*
X033315Y022599D01*
Y022901D01*
X033101Y023115D01*
D02*
G37*
G36*
X033295Y025515D02*
X032526D01*
Y024745D01*
X032927D01*
X032986Y024673D01*
X033033Y02456D01*
X034638Y022954D01*
X034585Y022901D01*
Y022599D01*
X034779Y022405D01*
X034786Y022386D01*
X0349Y022339D01*
X03501Y022385D01*
X035101D01*
X035315Y022599D01*
Y022901D01*
X035101Y023115D01*
X034932D01*
X033307Y02474D01*
Y025019D01*
X033307Y025019D01*
X033295Y025049D01*
Y025515D01*
D02*
G37*
G36*
X036365Y0227D02*
X036D01*
Y022335D01*
X036365D01*
Y0227D01*
D02*
G37*
G36*
X0359D02*
X035535D01*
Y022335D01*
X0359D01*
Y0227D01*
D02*
G37*
G36*
X041965Y022549D02*
X0416D01*
Y022204D01*
X041965D01*
Y022549D01*
D02*
G37*
G36*
X0415D02*
X041135D01*
Y022204D01*
X0415D01*
Y022549D01*
D02*
G37*
G36*
X039713Y024809D02*
X039607D01*
X039531Y024733D01*
Y024688D01*
X038472Y023628D01*
X038443Y02356D01*
X038443Y02356D01*
Y021845D01*
X038411Y021813D01*
Y021707D01*
X038487Y021631D01*
X038593D01*
X038669Y021707D01*
Y021813D01*
X038637Y021845D01*
Y02352D01*
X039668Y024551D01*
X039713D01*
X039789Y024627D01*
Y024733D01*
X039713Y024809D01*
D02*
G37*
G36*
X030498Y022747D02*
X030445Y022725D01*
X030145D01*
Y021995D01*
X030401D01*
Y021516D01*
X030307Y021483D01*
X030185Y021534D01*
X030176D01*
Y02118D01*
Y020827D01*
X030185D01*
X030235Y020848D01*
X030282Y020827D01*
X030302Y020736D01*
X030042Y020477D01*
X029864D01*
X029811Y020499D01*
X029693D01*
X029609Y020465D01*
X029575Y020381D01*
Y020019D01*
X029609Y019935D01*
X029693Y019901D01*
X029811D01*
X029894Y019935D01*
X029929Y020019D01*
Y020284D01*
X030082D01*
X030082Y020284D01*
X030151Y020312D01*
X030225Y020386D01*
X030323Y020343D01*
Y020019D01*
X030357Y019935D01*
X030441Y019901D01*
X030559D01*
X030643Y019935D01*
X030653Y019961D01*
X032236D01*
X032516Y019681D01*
Y019065D01*
X033285D01*
Y019835D01*
X032668D01*
X032358Y020145D01*
X032281Y020177D01*
X032281Y020177D01*
X031196D01*
X031159Y020277D01*
X031209Y020327D01*
Y020372D01*
X031328Y020492D01*
X031328Y020492D01*
X031357Y02056D01*
Y021936D01*
X031367Y02196D01*
X031367Y02196D01*
Y022325D01*
X031399Y022357D01*
Y022463D01*
X031323Y022539D01*
X031217D01*
X031141Y022463D01*
Y022357D01*
X031173Y022325D01*
Y021974D01*
X031163Y02195D01*
X031163Y02195D01*
Y0206D01*
X031072Y020509D01*
X031027D01*
X030951Y020433D01*
Y020327D01*
X031001Y020277D01*
X030964Y020177D01*
X030677D01*
Y020381D01*
X030643Y020465D01*
X030559Y020499D01*
X030479D01*
X030436Y020597D01*
X03062Y020782D01*
X03062Y020782D01*
X030649Y02085D01*
Y020931D01*
X030677Y020999D01*
Y021361D01*
X030643Y021445D01*
X030595Y021465D01*
Y021995D01*
X030836D01*
Y022725D01*
X030551D01*
X030498Y022747D01*
D02*
G37*
G36*
X030076Y021534D02*
X030067D01*
X029945Y021483D01*
X029832Y021471D01*
X029811Y021479D01*
X029693D01*
X029609Y021445D01*
X029575Y021361D01*
Y021197D01*
X02938D01*
X029312Y021168D01*
X029312Y021168D01*
X029072Y020928D01*
X029043Y02086D01*
X029043Y02086D01*
Y019465D01*
X029008D01*
Y018695D01*
X029355D01*
Y018242D01*
X029307Y018194D01*
X029304Y018186D01*
X028735D01*
Y017495D01*
X029465D01*
Y018078D01*
X02952Y018134D01*
X02952Y018134D01*
X029549Y018202D01*
Y018695D01*
X029817D01*
Y018983D01*
X029885D01*
X029953Y019012D01*
X029982Y01908D01*
X029953Y019148D01*
X029885Y019177D01*
X029817D01*
Y019465D01*
X029237D01*
Y02082D01*
X02942Y021003D01*
X029575D01*
Y020999D01*
X029609Y020916D01*
X029693Y020881D01*
X029811D01*
X029832Y02089D01*
X029945Y020877D01*
X030067Y020827D01*
X030076D01*
Y02118D01*
Y021534D01*
D02*
G37*
G36*
X028405Y021828D02*
X02775D01*
Y02145D01*
X028812D01*
X028707Y021703D01*
X028405Y021828D01*
D02*
G37*
G36*
X02765D02*
X026995D01*
X026693Y021703D01*
X026588Y02145D01*
X02765D01*
Y021828D01*
D02*
G37*
G36*
X028812Y02135D02*
X02775D01*
Y020972D01*
X028405D01*
X028707Y021097D01*
X028812Y02135D01*
D02*
G37*
G36*
X02765D02*
X026588D01*
X026693Y021097D01*
X026995Y020972D01*
X02765D01*
Y02135D01*
D02*
G37*
G36*
X050919Y022983D02*
X049981D01*
X049317Y022319D01*
Y021381D01*
X049981Y020717D01*
X050919D01*
X051583Y021381D01*
Y022319D01*
X050919Y022983D01*
D02*
G37*
G36*
X021419D02*
X020481D01*
X019817Y022319D01*
Y021381D01*
X020481Y020717D01*
X021419D01*
X022083Y021381D01*
Y022319D01*
X021419Y022983D01*
D02*
G37*
G36*
X048493Y020669D02*
X048387D01*
X048365Y020647D01*
X04608D01*
X046012Y020618D01*
X046012Y020618D01*
X045832Y020438D01*
X045803Y02037D01*
X045803Y02037D01*
Y019946D01*
X045535D01*
Y019747D01*
X04535D01*
X045282Y019718D01*
X045282Y019718D01*
X045195Y019631D01*
X045133Y019643D01*
X045095Y019662D01*
Y020054D01*
X04471D01*
Y019619D01*
Y019185D01*
X045053D01*
X045095Y019185D01*
X045153Y019109D01*
Y018782D01*
X045053Y018703D01*
X045045Y018705D01*
Y018705D01*
X044275D01*
Y017935D01*
X045045D01*
Y018449D01*
X045146D01*
X045146Y018449D01*
X045214Y018477D01*
X045318Y018582D01*
X045318Y018582D01*
X045347Y01865D01*
X045347Y01865D01*
Y01951D01*
X04539Y019553D01*
X045535D01*
Y019255D01*
X046265D01*
Y019946D01*
X045997D01*
Y02033D01*
X04612Y020453D01*
X048345D01*
X048387Y020411D01*
X048493D01*
X048569Y020487D01*
Y020593D01*
X048493Y020669D01*
D02*
G37*
G36*
X04461Y020054D02*
X044225D01*
Y019669D01*
X04461D01*
Y020054D01*
D02*
G37*
G36*
X047535Y020034D02*
X04715D01*
Y01965D01*
X047535D01*
Y020034D01*
D02*
G37*
G36*
X039785D02*
X0394D01*
Y01965D01*
X039785D01*
Y020034D01*
D02*
G37*
G36*
X04705D02*
X046665D01*
Y01965D01*
X04705D01*
Y020034D01*
D02*
G37*
G36*
X034634Y019885D02*
X03425D01*
Y0195D01*
X034634D01*
Y019885D01*
D02*
G37*
G36*
X036485D02*
X036101D01*
Y0195D01*
X036485D01*
Y019885D01*
D02*
G37*
G36*
X036001D02*
X035616D01*
Y0195D01*
X036001D01*
Y019885D01*
D02*
G37*
G36*
X03415D02*
X033765D01*
Y0195D01*
X03415D01*
Y019885D01*
D02*
G37*
G36*
X0416Y020497D02*
X0416Y020497D01*
X0392D01*
X039132Y020468D01*
X039132Y020468D01*
X038865Y020202D01*
X038865Y020202D01*
X038612Y019949D01*
X038587D01*
X038511Y019873D01*
Y019767D01*
X038543Y019735D01*
Y018411D01*
X038543Y018411D01*
X038572Y018342D01*
X038682Y018232D01*
X038682Y018232D01*
X03875Y018204D01*
X03875Y018204D01*
X038965D01*
Y017916D01*
X039735D01*
Y018685D01*
X038965D01*
Y018397D01*
X03879D01*
X038737Y018451D01*
Y019735D01*
X038769Y019767D01*
Y01981D01*
X038815Y019846D01*
X038915Y0198D01*
Y01965D01*
X0393D01*
Y020034D01*
X039112D01*
X039071Y020134D01*
X03924Y020303D01*
X04156D01*
X041793Y020071D01*
Y019966D01*
X041505D01*
Y019275D01*
X042235D01*
Y019966D01*
X041986D01*
Y020111D01*
X041958Y020179D01*
X041958Y020179D01*
X041668Y020468D01*
X0416Y020497D01*
D02*
G37*
G36*
X043585Y019984D02*
X042815D01*
Y019215D01*
X043585D01*
Y019984D01*
D02*
G37*
G36*
X041026D02*
X040257D01*
Y019215D01*
X041026D01*
Y019984D01*
D02*
G37*
G36*
X04461Y019569D02*
X044225D01*
Y019185D01*
X04461D01*
Y019569D01*
D02*
G37*
G36*
X047535Y01955D02*
X04715D01*
Y019165D01*
X047535D01*
Y01955D01*
D02*
G37*
G36*
X04705D02*
X046665D01*
Y019165D01*
X04705D01*
Y01955D01*
D02*
G37*
G36*
X039785D02*
X0394D01*
Y019165D01*
X039785D01*
Y01955D01*
D02*
G37*
G36*
X0393D02*
X038915D01*
Y019165D01*
X0393D01*
Y01955D01*
D02*
G37*
G36*
X031442Y019515D02*
X031037D01*
Y01913D01*
X031442D01*
Y019515D01*
D02*
G37*
G36*
X030937D02*
X030533D01*
Y01913D01*
X030937D01*
Y019515D01*
D02*
G37*
G36*
X036485Y0194D02*
X036101D01*
Y019015D01*
X036485D01*
Y0194D01*
D02*
G37*
G36*
X036001D02*
X035616D01*
Y019015D01*
X036001D01*
Y0194D01*
D02*
G37*
G36*
X034634D02*
X03425D01*
Y019015D01*
X034634D01*
Y0194D01*
D02*
G37*
G36*
X03415D02*
X033765D01*
Y019015D01*
X03415D01*
Y0194D01*
D02*
G37*
G36*
X031442Y01903D02*
X031037D01*
Y018645D01*
X031442D01*
Y01903D01*
D02*
G37*
G36*
X030937D02*
X030533D01*
Y018645D01*
X030937D01*
Y01903D01*
D02*
G37*
G36*
X037735Y019835D02*
X036965D01*
Y019065D01*
X037239D01*
Y018532D01*
X037218Y018511D01*
X03575D01*
X03575Y018511D01*
X035636Y018464D01*
X035636Y018464D01*
X035336Y018164D01*
X035289Y01805D01*
X035289Y01805D01*
Y01505D01*
X035289Y01505D01*
X035336Y014936D01*
X035786Y014486D01*
X035786Y014486D01*
X0359Y014439D01*
X0359Y014439D01*
X037145D01*
X037349Y014235D01*
X037651D01*
X037865Y014449D01*
Y014464D01*
X04027D01*
X040449Y014285D01*
X040751D01*
X040955Y014489D01*
X043495D01*
X043699Y014285D01*
X044001D01*
X044205Y014489D01*
X046645D01*
X046849Y014285D01*
X047151D01*
X047365Y014499D01*
Y014572D01*
X047535D01*
X047535Y014572D01*
X047648Y014619D01*
X047764Y014735D01*
X047764Y014735D01*
X047765Y014738D01*
X047814Y014786D01*
X047814Y014786D01*
X047861Y0149D01*
X047861Y0149D01*
Y0177D01*
X047861Y0177D01*
X047814Y017814D01*
X047814Y017814D01*
X047485Y018143D01*
Y018685D01*
X046715D01*
Y017916D01*
X047257D01*
X047539Y017634D01*
Y014967D01*
X047536Y014964D01*
X047535Y01496D01*
X047468Y014894D01*
X047273D01*
X047151Y015015D01*
X046849D01*
X046645Y014811D01*
X044205D01*
X044001Y015015D01*
X043699D01*
X043495Y014811D01*
X040955D01*
X040751Y015015D01*
X040449D01*
X040235Y014801D01*
Y014786D01*
X03783D01*
X037651Y014965D01*
X037349D01*
X037145Y014761D01*
X035967D01*
X035611Y015117D01*
Y017983D01*
X035817Y018189D01*
X037285D01*
X037285Y018189D01*
X037398Y018236D01*
X037514Y018352D01*
X037514Y018352D01*
X037561Y018465D01*
X037561Y018465D01*
Y019065D01*
X037735D01*
Y019835D01*
D02*
G37*
G36*
X041076Y018735D02*
X040692D01*
Y01835D01*
X041076D01*
Y018735D01*
D02*
G37*
G36*
X040592D02*
X040207D01*
Y01835D01*
X040592D01*
Y018735D01*
D02*
G37*
G36*
X043635D02*
X04325D01*
Y01835D01*
X043635D01*
Y018735D01*
D02*
G37*
G36*
X04315D02*
X042765D01*
Y01835D01*
X04315D01*
Y018735D01*
D02*
G37*
G36*
X043635Y01825D02*
X04325D01*
Y017866D01*
X043635D01*
Y01825D01*
D02*
G37*
G36*
X04315D02*
X042765D01*
Y017866D01*
X04315D01*
Y01825D01*
D02*
G37*
G36*
X041076Y01825D02*
X040692D01*
Y017866D01*
X041076D01*
Y01825D01*
D02*
G37*
G36*
X040592D02*
X040207D01*
Y017866D01*
X040592D01*
Y01825D01*
D02*
G37*
G36*
X031015Y018195D02*
X030285D01*
Y017505D01*
X031015D01*
Y018195D01*
D02*
G37*
G36*
X0272Y0178D02*
X02665D01*
Y01695D01*
X0272D01*
Y0178D01*
D02*
G37*
G36*
X02655D02*
X026D01*
Y01695D01*
X02655D01*
Y0178D01*
D02*
G37*
G36*
X031065Y017064D02*
X0307D01*
Y016719D01*
X031065D01*
Y017064D01*
D02*
G37*
G36*
X0306D02*
X030235D01*
Y016719D01*
X0306D01*
Y017064D01*
D02*
G37*
G36*
X029515Y017055D02*
X02915D01*
Y016709D01*
X029515D01*
Y017055D01*
D02*
G37*
G36*
X02905D02*
X028685D01*
Y016709D01*
X02905D01*
Y017055D01*
D02*
G37*
G36*
X034172Y017015D02*
X03405D01*
Y01665D01*
X034415D01*
Y016772D01*
X034172Y017015D01*
D02*
G37*
G36*
X03395D02*
X033828D01*
X033585Y016772D01*
Y01665D01*
X03395D01*
Y017015D01*
D02*
G37*
G36*
X031065Y016619D02*
X0307D01*
Y016274D01*
X031065D01*
Y016619D01*
D02*
G37*
G36*
X0306D02*
X030235D01*
Y016274D01*
X0306D01*
Y016619D01*
D02*
G37*
G36*
X029515Y016609D02*
X02915D01*
Y016264D01*
X029515D01*
Y016609D01*
D02*
G37*
G36*
X02905D02*
X028685D01*
Y016264D01*
X02905D01*
Y016609D01*
D02*
G37*
G36*
X034415Y01655D02*
X03405D01*
Y016185D01*
X034172D01*
X034415Y016428D01*
Y01655D01*
D02*
G37*
G36*
X03395D02*
X033585D01*
Y016428D01*
X033828Y016185D01*
X03395D01*
Y01655D01*
D02*
G37*
G36*
X0272Y01685D02*
X02665D01*
Y016D01*
X0272D01*
Y01685D01*
D02*
G37*
G36*
X02655D02*
X026D01*
Y016D01*
X02655D01*
Y01685D01*
D02*
G37*
G36*
X046265Y018765D02*
X045535D01*
Y018074D01*
X045793D01*
Y01625D01*
X04529Y015747D01*
X044215D01*
Y015801D01*
X044001Y016015D01*
X043699D01*
X043485Y015801D01*
Y015499D01*
X043699Y015285D01*
X044001D01*
X044215Y015499D01*
Y015553D01*
X04533D01*
X04533Y015553D01*
X045398Y015582D01*
X045958Y016142D01*
X045958Y016142D01*
X045987Y01621D01*
X045987Y01621D01*
Y018074D01*
X046265D01*
Y018765D01*
D02*
G37*
G36*
X0255Y016D02*
X02465D01*
Y01545D01*
X0255D01*
Y016D01*
D02*
G37*
G36*
X02455D02*
X0237D01*
Y01545D01*
X02455D01*
Y016D01*
D02*
G37*
G36*
X047151Y016015D02*
X046849D01*
X046635Y015801D01*
Y015499D01*
X046849Y015285D01*
X047151D01*
X047365Y015499D01*
Y015801D01*
X047151Y016015D01*
D02*
G37*
G36*
X042235Y018785D02*
X041505D01*
Y018094D01*
X041793D01*
Y017779D01*
X040532Y016518D01*
X040503Y01645D01*
X040503Y01645D01*
Y016015D01*
X040449D01*
X040235Y015801D01*
Y015499D01*
X040449Y015285D01*
X040751D01*
X040965Y015499D01*
Y015801D01*
X040751Y016015D01*
X040697D01*
Y01641D01*
X041958Y017671D01*
X041958Y017671D01*
X041986Y017739D01*
X041986Y017739D01*
Y018094D01*
X042235D01*
Y018785D01*
D02*
G37*
G36*
X034151Y015965D02*
X033849D01*
X033635Y015751D01*
Y015449D01*
X033849Y015235D01*
X034151D01*
X034365Y015449D01*
Y015751D01*
X034151Y015965D01*
D02*
G37*
G36*
X0255Y01535D02*
X02465D01*
Y0148D01*
X0255D01*
Y01535D01*
D02*
G37*
G36*
X02455D02*
X0237D01*
Y0148D01*
X02455D01*
Y01535D01*
D02*
G37*
G36*
X034151Y014965D02*
X033849D01*
X033635Y014751D01*
Y014449D01*
X033849Y014235D01*
X034151D01*
X034365Y014449D01*
Y014751D01*
X034151Y014965D01*
D02*
G37*
G36*
X02869Y014382D02*
X028532D01*
X028238Y014088D01*
Y01393D01*
X02869D01*
Y014382D01*
D02*
G37*
G36*
X047415Y014065D02*
X04705D01*
Y0137D01*
X047415D01*
Y014065D01*
D02*
G37*
G36*
X04695D02*
X046585D01*
Y0137D01*
X04695D01*
Y014065D01*
D02*
G37*
G36*
X044265D02*
X0439D01*
Y0137D01*
X044265D01*
Y014065D01*
D02*
G37*
G36*
X041015D02*
X04065D01*
Y0137D01*
X041015D01*
Y014065D01*
D02*
G37*
G36*
X0438D02*
X043435D01*
Y0137D01*
X0438D01*
Y014065D01*
D02*
G37*
G36*
X04055D02*
X040185D01*
Y0137D01*
X04055D01*
Y014065D01*
D02*
G37*
G36*
X037915Y014015D02*
X03755D01*
Y01365D01*
X037915D01*
Y014015D01*
D02*
G37*
G36*
X03745D02*
X037085D01*
Y01365D01*
X03745D01*
Y014015D01*
D02*
G37*
G36*
X028948Y014382D02*
X02879D01*
Y01388D01*
Y013378D01*
X028948D01*
X02921Y013641D01*
X029253Y013669D01*
X029332Y013649D01*
X029553Y013428D01*
X029927D01*
X030188Y01369D01*
X030288Y013685D01*
Y013428D01*
X031192D01*
Y014332D01*
X030288D01*
Y014075D01*
X030188Y01407D01*
X029927Y014332D01*
X029553D01*
X029332Y014111D01*
X029253Y014091D01*
X02921Y014119D01*
X028948Y014382D01*
D02*
G37*
G36*
X02869Y01383D02*
X028238D01*
Y013672D01*
X028532Y013378D01*
X02869D01*
Y01383D01*
D02*
G37*
G36*
X047415Y0136D02*
X04705D01*
Y013235D01*
X047415D01*
Y0136D01*
D02*
G37*
G36*
X04695D02*
X046585D01*
Y013235D01*
X04695D01*
Y0136D01*
D02*
G37*
G36*
X044265Y0136D02*
X0439D01*
Y013235D01*
X044265D01*
Y0136D01*
D02*
G37*
G36*
X0438D02*
X043435D01*
Y013235D01*
X0438D01*
Y0136D01*
D02*
G37*
G36*
X041015D02*
X04065D01*
Y013235D01*
X041015D01*
Y0136D01*
D02*
G37*
G36*
X04055D02*
X040185D01*
Y013235D01*
X04055D01*
Y0136D01*
D02*
G37*
G36*
X034365Y013965D02*
X033635D01*
Y013235D01*
X034365D01*
Y013965D01*
D02*
G37*
G36*
X037915Y01355D02*
X03755D01*
Y013185D01*
X037915D01*
Y01355D01*
D02*
G37*
G36*
X03745D02*
X037085D01*
Y013185D01*
X03745D01*
Y01355D01*
D02*
G37*
G36*
X020159Y015593D02*
X019591D01*
X019066Y015376D01*
X018665Y014974D01*
X018447Y014449D01*
Y013881D01*
X018665Y013356D01*
X019066Y012955D01*
X019591Y012737D01*
X020159D01*
X020684Y012955D01*
X021086Y013356D01*
X021303Y013881D01*
Y014449D01*
X021086Y014974D01*
X020684Y015376D01*
X020159Y015593D01*
D02*
G37*
%LPD*%
D12*
X04533Y01565D02*
X04589Y01621D01*
Y018659D01*
X04385Y01565D02*
X04533D01*
X041846Y019402D02*
Y01983D01*
X04187Y019621D02*
X041889Y01964D01*
Y020111D01*
X030552Y02085D02*
Y021128D01*
X029829Y02038D02*
X030082D01*
X029752Y020303D02*
X029829Y02038D01*
X030082D02*
X030552Y02085D01*
X029752Y0202D02*
Y020303D01*
X0305Y02118D02*
X030552Y021128D01*
X041889Y017739D02*
Y01842D01*
X037941Y030329D02*
Y030576D01*
Y030329D02*
X03972Y02855D01*
X040582D01*
X04757Y03596D02*
Y04038D01*
X043137Y031527D02*
X04757Y03596D01*
X043137Y029137D02*
Y031527D01*
X04655Y0414D02*
X04757Y04038D01*
X0232Y03585D02*
X02425Y0348D01*
X0317D01*
X038736Y027764D01*
X0392Y0204D02*
X0416D01*
X038933Y020133D02*
Y020133D01*
X03864Y01984D02*
X038933Y020133D01*
Y020133D02*
X0392Y0204D01*
X03864Y018411D02*
Y01984D01*
Y018411D02*
X03875Y0183D01*
X03818Y01573D02*
Y02042D01*
X0387Y02094D02*
X04662D01*
X03818Y02042D02*
X0387Y02094D01*
X03805Y0156D02*
X03818Y01573D01*
X0386Y02118D02*
X04649D01*
X03795Y016646D02*
Y02053D01*
X0386Y02118D01*
X04392Y028551D02*
X04395D01*
X04397Y028571D01*
Y03097D01*
X0445Y0315D01*
X0493D01*
X04392Y027567D02*
X043932Y027578D01*
X044978D02*
X04499Y02759D01*
X043932Y027578D02*
X044978D01*
X04143Y02455D02*
X0419D01*
X042152Y024802D01*
X03907Y02171D02*
Y02333D01*
X04059Y02485D01*
X03907Y02171D02*
X03923Y02155D01*
X03854Y02176D02*
Y02356D01*
X03966Y02468D01*
X03127Y02196D02*
Y02241D01*
X03126Y02056D02*
Y02195D01*
X03108Y02038D02*
X03126Y02056D01*
Y02195D02*
X03127Y02196D01*
X03887Y02507D02*
X040714D01*
X041149Y025505D01*
X042744Y039224D02*
X04322Y0397D01*
X042744Y029137D02*
Y039224D01*
X04322Y0397D02*
X045587D01*
X043275Y040475D02*
X0456D01*
X042547Y029137D02*
Y039747D01*
X043275Y040475D01*
X035597Y037017D02*
Y037157D01*
X036235Y037796D01*
X036334D01*
X0366Y038061D02*
Y038522D01*
X03533Y03675D02*
X035597Y037017D01*
X036334Y037796D02*
X0366Y038061D01*
X04498Y02968D02*
X045266D01*
X0448Y0295D02*
X04498Y02968D01*
X0448Y0288D02*
Y0295D01*
X0493Y0315D02*
X05019Y03061D01*
X04335Y03105D02*
X04433Y03203D01*
X04932D01*
X05051Y03084D01*
X03387Y02069D02*
X03569D01*
X03111Y02345D02*
X03387Y02069D01*
X03301Y03108D02*
X03432D01*
X03803Y02737D01*
X03199Y03108D02*
Y03148D01*
X03233Y03182D02*
X03417D01*
X03199Y03148D02*
X03233Y03182D01*
X03417D02*
X038423Y027567D01*
X04207Y02435D02*
X04235Y02463D01*
X04053Y02372D02*
X040545Y023735D01*
X037671Y02725D02*
X037748Y027173D01*
X04235Y02463D02*
Y0258D01*
X041366Y025196D02*
Y0258D01*
X04174Y03325D02*
X042153Y032837D01*
X04107Y02435D02*
X04207D01*
X041149Y025505D02*
Y02578D01*
X040545Y023735D02*
Y023825D01*
X037748Y027173D02*
X040583D01*
X03923Y02155D02*
X04255D01*
X04102Y02485D02*
X041366Y025196D01*
X041759Y029137D02*
Y032461D01*
X041953Y025797D02*
X041956Y0258D01*
X040545Y023825D02*
X04107Y02435D01*
X04059Y02485D02*
X04102D01*
X042152Y025798D02*
X042153Y0258D01*
X042152Y024802D02*
Y025798D01*
X03765Y02725D02*
X037671D01*
X041953Y025053D02*
Y025797D01*
X041563Y029137D02*
Y032237D01*
X04195Y02505D02*
X041953Y025053D01*
X041149Y02578D02*
X041169Y0258D01*
X040582Y02855D02*
X040583Y028551D01*
X04392Y028354D02*
X044354D01*
X045227Y028977D02*
Y029036D01*
X04392Y028157D02*
X043924Y028154D01*
X0384Y03255D02*
X04125D01*
X041563Y032237D01*
X0382Y0329D02*
X04132D01*
X041759Y032461D01*
X03957Y03325D02*
X04174D01*
X042153Y029137D02*
Y032837D01*
X044354Y028354D02*
X0448Y0288D01*
X044404Y028154D02*
X045227Y028977D01*
X043924Y028154D02*
X044404D01*
X045227Y029036D02*
X045242Y029051D01*
X04608Y02055D02*
X04843D01*
X04844Y02054D01*
X0459Y02037D02*
X04608Y02055D01*
X0459Y01965D02*
Y02037D01*
X0369Y0314D02*
X04085D01*
X031845Y036455D02*
X0369Y0314D01*
X031845Y036455D02*
Y036506D01*
X03155Y036801D02*
X031845Y036506D01*
X031255Y037096D02*
X031565Y036785D01*
X029766Y022496D02*
X0299Y02263D01*
X029595Y022496D02*
X029766D01*
X0299Y02263D02*
Y02329D01*
X030052Y023442D02*
X030542D01*
X0299Y02329D02*
X030052Y023442D01*
X03055Y02345D02*
X03111D01*
X03176Y02074D02*
Y02236D01*
X04662Y02094D02*
X05051Y02483D01*
Y03084D01*
X04649Y02118D02*
X05019Y02488D01*
Y03061D01*
X04535Y01965D02*
X045939D01*
X0459D02*
X045939D01*
X04155Y023781D02*
X041676Y023907D01*
X041937D01*
X042547Y024517D01*
Y0258D01*
X0293Y0222D02*
X029595Y022496D01*
X030542Y023442D02*
X03055Y02345D01*
X02938Y0211D02*
X029675D01*
X02914Y02086D02*
X02938Y0211D01*
X02914Y019353D02*
Y02086D01*
X029452Y018202D02*
Y01908D01*
X02914Y019353D02*
X029413Y01908D01*
X04335Y029153D02*
Y03105D01*
X042941Y029137D02*
Y032061D01*
X04692Y03604D02*
Y03858D01*
X042941Y032061D02*
X04692Y03604D01*
X0466Y0389D02*
X04692Y03858D01*
X0456Y0389D02*
X0466D01*
X045738Y0414D02*
X04655D01*
X04181Y0397D02*
X04235Y03916D01*
Y029137D02*
Y03916D01*
X03955Y0397D02*
X04181D01*
X0407Y03478D02*
Y0386D01*
X0404Y0389D02*
X0407Y0386D01*
X039537Y0389D02*
X0404D01*
X03533Y03416D02*
Y03675D01*
Y03416D02*
X03749Y032D01*
X03277Y03614D02*
Y03675D01*
X03698Y03192D02*
Y03193D01*
X03277Y03614D02*
X03698Y03193D01*
X0287Y03555D02*
X03231D01*
X03951Y02835D01*
X040579D01*
X02695Y0353D02*
X03214D01*
X039283Y028157D01*
X040583D01*
X0319Y0351D02*
X039039Y027961D01*
X024863Y0351D02*
X0319D01*
X039039Y027961D02*
X040583D01*
X038736Y027764D02*
X040583D01*
X038423Y027567D02*
X040583D01*
X0291Y01785D02*
X029129D01*
X029376Y018096D02*
Y018126D01*
X029452Y018202D01*
X029129Y01785D02*
X029376Y018096D01*
X02965Y01908D02*
X029885D01*
X029502Y019228D02*
X02965Y01908D01*
X030498Y02123D02*
Y02265D01*
X030488Y02252D02*
X03054Y022572D01*
X029675Y0211D02*
X029752Y021177D01*
Y02118D01*
X03525Y039722D02*
X035329Y039643D01*
X035479D02*
X0366Y038522D01*
X035329Y039643D02*
X035479D01*
X03404Y038081D02*
Y03861D01*
X0333Y03935D02*
Y039722D01*
Y03935D02*
X03404Y03861D01*
X03405Y02755D02*
Y028D01*
X0343Y02825D01*
X035559D02*
X03703Y02678D01*
X0343Y02825D02*
X035559D01*
X03803Y02737D02*
X040583D01*
X0416Y0204D02*
X041889Y020111D01*
X03875Y0183D02*
X03935D01*
X0375Y0166D02*
X037904D01*
X03795Y016646D01*
X0375Y0156D02*
X03805D01*
X04525Y01955D02*
X04535Y01965D01*
X04525Y01865D02*
Y01955D01*
X045146Y018546D02*
X04525Y01865D01*
X04455Y01825D02*
X044845Y018546D01*
X045146D01*
X0406Y01645D02*
X041889Y017739D01*
X0406Y01565D02*
Y01645D01*
X0244Y0261D02*
X0261D01*
X027481Y033381D02*
X027825Y033725D01*
X0287D01*
X02695Y0319D02*
X027481Y032431D01*
Y033381D01*
X03703Y02678D02*
X040583D01*
X043334Y029137D02*
X04335Y029153D01*
X031204Y037096D02*
X031255D01*
X0302Y038081D02*
X03022D01*
X031204Y037096D01*
X03402Y038081D02*
X03404D01*
X03277Y03675D02*
X033764Y037745D01*
Y037825D01*
X03402Y038081D01*
X02805Y0362D02*
X0287Y03555D01*
X02805Y0362D02*
Y0374D01*
X026433Y035817D02*
Y0374D01*
Y035817D02*
X02695Y0353D01*
X024817Y035146D02*
Y0374D01*
X0232Y03585D02*
Y0374D01*
X024783Y038853D02*
Y041109D01*
Y038853D02*
X024817Y03882D01*
X026367Y038887D02*
Y041109D01*
Y038887D02*
X026433Y03882D01*
X02795Y03892D02*
X02805Y03882D01*
X02795Y03892D02*
Y041109D01*
X0232Y03882D02*
Y041109D01*
X0302Y03925D02*
X030822Y039872D01*
X0313D01*
X0302Y038081D02*
Y03925D01*
X039537Y039687D02*
X03955Y0397D01*
X045587D02*
X0456Y039687D01*
Y041262D02*
X045738Y0414D01*
X048679Y028371D02*
X0488Y02825D01*
X0464Y028371D02*
X048679D01*
X0464Y02645D02*
X04765Y0252D01*
X04885Y02515D02*
X0489Y0251D01*
X04765Y025196D02*
Y0252D01*
X047696Y02515D02*
X04885D01*
X04765Y025196D02*
X047696Y02515D01*
X04392Y027173D02*
X045677D01*
X0464Y02645D01*
X04392Y02737D02*
X045399D01*
X0464Y028371D01*
X040579Y02835D02*
X040583Y028354D01*
D20*
X027924Y02145D02*
X027974Y0214D01*
X04392Y026386D02*
X044374D01*
X04458Y02618D01*
Y02567D02*
Y02618D01*
X043334Y025679D02*
Y0258D01*
X043343Y02567D02*
X04458D01*
X043334Y024616D02*
Y025679D01*
X043343Y02567D01*
X030145Y018795D02*
X030703D01*
X030987Y01908D01*
X02995Y0186D02*
X030145Y018795D01*
X041169Y029137D02*
Y029941D01*
X04111Y03D02*
X041169Y029941D01*
X039159Y03D02*
X04111D01*
X0374Y02595D02*
X03745Y026D01*
Y026524D01*
X046735Y029785D02*
Y030195D01*
X04702Y03048D01*
X044714Y027764D02*
X046735Y029785D01*
X04392Y027764D02*
X044714D01*
X04392Y027961D02*
X044561D01*
X04573Y02913D01*
X04787Y03048D02*
X0488Y02955D01*
X04702Y03048D02*
X04787D01*
X0488Y0295D02*
Y02955D01*
X04572Y03048D02*
X04573Y03047D01*
Y02913D02*
Y03047D01*
X04455Y03048D02*
X04572D01*
X041366Y026816D02*
Y029137D01*
X040583Y026583D02*
X041133D01*
X041366Y026816D01*
X039174Y025974D02*
X039586Y026386D01*
X040583D01*
X03745Y026524D02*
X037509Y026583D01*
X040583D01*
X038929Y025974D02*
X039174D01*
X04864Y02377D02*
X0497Y02483D01*
X0445Y02377D02*
X04864D01*
X0497Y02483D02*
Y0267D01*
X02998Y02164D02*
X030115Y021505D01*
X02917Y0214D02*
X02941Y02164D01*
X02998D01*
X030115Y021191D02*
X030126Y02118D01*
X030115Y021191D02*
Y021505D01*
X027974Y0214D02*
X02917D01*
X030567Y020069D02*
X032281D01*
X03285Y0195D02*
Y0195D01*
X032281Y020069D02*
X032615Y019735D01*
X032616D01*
X03285Y0195D01*
X03322Y02943D02*
X03326Y02939D01*
X0279Y0235D02*
X0293D01*
X0274Y02295D02*
Y023D01*
X0279Y0235D01*
X02995Y016659D02*
Y0186D01*
X0305Y020136D02*
Y0202D01*
Y020136D02*
X030567Y020069D01*
X039001Y030159D02*
X039159Y03D01*
X039001Y030159D02*
Y0307D01*
X04295Y02245D02*
X04355D01*
X04365Y02255D01*
X04115Y032D02*
X041366Y031784D01*
Y030184D02*
Y031784D01*
X04965Y02675D02*
X0497Y0267D01*
X041366Y029137D02*
Y030184D01*
X04085Y0307D02*
X041366Y030184D01*
X0403Y0307D02*
X04085D01*
X039576Y041302D02*
Y04205D01*
X039537Y041262D02*
X039576Y041302D01*
X04157Y022599D02*
X041815Y022845D01*
Y022864D02*
X042416Y023465D01*
X042665D01*
X041815Y022845D02*
Y022864D01*
X043334Y024616D02*
X04365Y0243D01*
X04295Y02445D02*
X043137Y024637D01*
Y0258D01*
X04365Y02255D02*
Y0243D01*
X04295Y02375D02*
Y02445D01*
D25*
X0471Y0196D02*
D03*
Y0183D02*
D03*
X04466Y019619D02*
D03*
Y01832D02*
D03*
X0287Y03015D02*
D03*
Y02885D02*
D03*
X03005Y0269D02*
D03*
Y0256D02*
D03*
X03935Y0183D02*
D03*
Y0196D02*
D03*
X040642D02*
D03*
Y0183D02*
D03*
X0432D02*
D03*
Y0196D02*
D03*
X03277Y03675D02*
D03*
Y03805D02*
D03*
X03155Y036801D02*
D03*
Y0381D02*
D03*
X04295Y02245D02*
D03*
Y02375D02*
D03*
X03533Y03805D02*
D03*
Y03675D02*
D03*
X03795Y041699D02*
D03*
Y0404D02*
D03*
X0379Y03865D02*
D03*
Y037351D02*
D03*
X0488Y02825D02*
D03*
Y02955D02*
D03*
X04883Y02642D02*
D03*
Y02512D02*
D03*
D26*
X0459Y019601D02*
D03*
Y018419D02*
D03*
X04187Y019621D02*
D03*
Y018439D02*
D03*
X0291Y017841D02*
D03*
X03065Y01785D02*
D03*
Y016669D02*
D03*
X0291Y016659D02*
D03*
X0232Y042291D02*
D03*
Y041109D02*
D03*
X03661Y036859D02*
D03*
Y038041D02*
D03*
X03404Y036899D02*
D03*
Y038081D02*
D03*
X02795Y041109D02*
D03*
Y042291D02*
D03*
X026367Y041109D02*
D03*
Y042291D02*
D03*
X024783Y041109D02*
D03*
Y042291D02*
D03*
X0302Y036899D02*
D03*
Y038081D02*
D03*
X04155Y022599D02*
D03*
Y023781D02*
D03*
D27*
X02365Y0214D02*
D03*
D28*
X0277D02*
D03*
D29*
X030126Y02118D02*
D03*
X029752Y0202D02*
D03*
X0305Y02118D02*
D03*
X029752D02*
D03*
X0305Y0202D02*
D03*
D30*
X030491Y02236D02*
D03*
X029309D02*
D03*
D31*
X04392Y026386D02*
D03*
Y026583D02*
D03*
Y02678D02*
D03*
Y026976D02*
D03*
Y027173D02*
D03*
Y02737D02*
D03*
Y027567D02*
D03*
Y027764D02*
D03*
Y027961D02*
D03*
Y028157D02*
D03*
Y028354D02*
D03*
Y028551D02*
D03*
X040583D02*
D03*
Y028354D02*
D03*
Y028157D02*
D03*
Y027961D02*
D03*
Y027764D02*
D03*
Y027567D02*
D03*
Y02737D02*
D03*
Y027173D02*
D03*
Y026976D02*
D03*
Y02678D02*
D03*
Y026583D02*
D03*
Y026386D02*
D03*
D32*
X043334Y029137D02*
D03*
X043137D02*
D03*
X042941D02*
D03*
X042744D02*
D03*
X042547D02*
D03*
X04235D02*
D03*
X042153D02*
D03*
X041956D02*
D03*
X041759D02*
D03*
X041563D02*
D03*
X041366D02*
D03*
X041169D02*
D03*
Y0258D02*
D03*
X041366D02*
D03*
X041563D02*
D03*
X041759D02*
D03*
X041956D02*
D03*
X042153D02*
D03*
X04235D02*
D03*
X042547D02*
D03*
X042744D02*
D03*
X042941D02*
D03*
X043137D02*
D03*
X043334D02*
D03*
D33*
X029413Y01908D02*
D03*
X030987D02*
D03*
D34*
X01885Y031D02*
D03*
D35*
X02105D02*
D03*
D36*
X03291Y02513D02*
D03*
X03421D02*
D03*
X02928Y02346D02*
D03*
X03058D02*
D03*
X03735Y01945D02*
D03*
X036051D02*
D03*
X0342D02*
D03*
X0329D02*
D03*
X03322Y02933D02*
D03*
X031921D02*
D03*
X0374Y02595D02*
D03*
X0387D02*
D03*
X04572Y03048D02*
D03*
X04702D02*
D03*
X039001Y0307D02*
D03*
X0403D02*
D03*
D37*
X02305Y0319D02*
D03*
X02695D02*
D03*
D38*
X0244Y025431D02*
D03*
Y0261D02*
D03*
Y026769D02*
D03*
Y027439D02*
D03*
Y028108D02*
D03*
D39*
X018878Y026769D02*
D03*
D40*
X020158D02*
D03*
D41*
X02785Y027542D02*
D03*
D42*
X028756Y025258D02*
D03*
X02785D02*
D03*
X026944D02*
D03*
D43*
X0287Y03215D02*
D03*
Y033725D02*
D03*
D44*
X024817Y0374D02*
D03*
Y03882D02*
D03*
X02805D02*
D03*
Y0374D02*
D03*
X026433Y03882D02*
D03*
Y0374D02*
D03*
X0232D02*
D03*
Y03882D02*
D03*
D45*
X03525Y042478D02*
D03*
Y039722D02*
D03*
X0333Y042478D02*
D03*
Y039722D02*
D03*
X0313Y042478D02*
D03*
Y039722D02*
D03*
D46*
X039576Y04205D02*
D03*
D47*
X039537Y041262D02*
D03*
Y040475D02*
D03*
Y039687D02*
D03*
Y0389D02*
D03*
Y038113D02*
D03*
Y037325D02*
D03*
Y036538D02*
D03*
X0456D02*
D03*
Y037325D02*
D03*
Y038113D02*
D03*
Y0389D02*
D03*
Y039687D02*
D03*
Y040475D02*
D03*
Y041262D02*
D03*
Y04205D02*
D03*
D84*
X0277Y02145D02*
X027924D01*
X03587Y02513D02*
X03669Y02595D01*
X0374D01*
X03595Y02275D02*
Y02513D01*
X03421D02*
X03595D01*
X0359Y0225D02*
Y02275D01*
X036051Y01945D02*
Y022649D01*
X03595Y02275D02*
X036051Y022649D01*
X0342Y01945D02*
X036051D01*
X03545Y01805D02*
X03575Y01835D01*
X03545Y01505D02*
X0359Y0146D01*
X03545Y01505D02*
Y01805D01*
X03575Y01835D02*
X037285D01*
X0359Y0146D02*
X0375D01*
X03294Y025226D02*
X033147Y025019D01*
Y024673D02*
X034867Y022953D01*
Y022833D02*
X03495Y02275D01*
X034867Y022833D02*
Y022953D01*
X033147Y024673D02*
Y025019D01*
X0349Y0225D02*
Y02275D01*
X031871Y02938D02*
X031928D01*
X03096Y02645D02*
X03399D01*
X034833Y027293D02*
Y027333D01*
X03399Y02645D02*
X034833Y027293D01*
X03005Y0256D02*
X030286Y025837D01*
X030347D02*
X03096Y02645D01*
X030286Y025837D02*
X030347D01*
X034833Y027333D02*
X03505Y02755D01*
X0295Y0242D02*
X03005Y02475D01*
Y0256D01*
X0282Y0242D02*
X0295D01*
X021339Y028108D02*
X02188D01*
Y028085D02*
X023196Y026769D01*
X02188Y028085D02*
Y028108D01*
X0287Y03015D02*
X0296D01*
X03005Y0297D01*
Y02745D02*
Y0297D01*
X0271Y03015D02*
X0287D01*
X02645Y0267D02*
Y0295D01*
X0271Y03015D01*
X040405Y018495D02*
X04065Y01825D01*
X029896Y042551D02*
X0313D01*
Y042478D02*
Y042551D01*
Y04205D02*
Y042478D01*
X02345Y02145D02*
Y025315D01*
X026944Y023406D02*
X0274Y02295D01*
X0275Y02285D01*
X02995Y016659D02*
X030641D01*
X0291D02*
X02995D01*
X020158Y03056D02*
X020597Y031D01*
X02105D01*
X01885D02*
Y03185D01*
X0191Y0321D01*
X02305Y0319D02*
X025485D01*
X02285Y0321D02*
X02305Y0319D01*
X0191Y0321D02*
X02285D01*
X020158Y026927D02*
Y03056D01*
X036609Y03695D02*
X037085D01*
X038025Y040475D02*
X039537D01*
X037085Y03695D02*
X0372Y037065D01*
Y03845D01*
X037315Y038565D01*
X037815D01*
X0379Y03865D01*
X03795Y0387D02*
Y0404D01*
X0379Y03865D02*
X03795Y0387D01*
Y0404D02*
X038025Y040475D01*
X03285Y0195D02*
X03285D01*
X0329Y01945D01*
X0287Y03015D02*
Y03215D01*
Y03015D02*
Y03015D01*
X029635Y042291D02*
X029896Y042551D01*
X033241D02*
X0333Y042492D01*
X031373Y042551D02*
X033241D01*
X0333Y042478D02*
Y042492D01*
X035228Y0425D02*
X03525Y042478D01*
X0343Y0425D02*
X035228D01*
X0333Y042478D02*
X033322Y0425D01*
X0343D01*
Y03955D02*
Y0425D01*
X03525Y042478D02*
X035272Y0425D01*
X03775D02*
X03795Y0423D01*
X035272Y0425D02*
X03775D01*
X03795Y041699D02*
Y0423D01*
X03005Y0269D02*
Y02745D01*
X03015Y02755D01*
X03205D01*
X037285Y01835D02*
X0374Y018465D01*
Y019434D01*
X040642Y0196D02*
X040642Y0196D01*
X04065D01*
X044213Y019313D02*
X044314D01*
X04455Y01955D01*
X0433Y0184D02*
X044213Y019313D01*
X034Y01925D02*
X0342Y01945D01*
X034Y0166D02*
Y01925D01*
X040405Y018495D02*
Y018544D01*
X03935Y0196D02*
X040405Y018544D01*
X047083Y014733D02*
X047535D01*
X0477Y0149D02*
Y0177D01*
X04765Y01485D02*
X0477Y0149D01*
X047535Y014733D02*
X04765Y014848D01*
Y01485D01*
X0471Y0183D02*
X0477Y0177D01*
X047Y01465D02*
X047083Y014733D01*
X0245Y027439D02*
X025468D01*
X0244D02*
X0245D01*
X03065Y016669D02*
X033931D01*
X034Y0166D01*
X030641Y016659D02*
X03065Y016669D01*
X02785Y02455D02*
Y025258D01*
Y02455D02*
X0282Y0242D01*
X0287Y02885D02*
X02915Y0284D01*
Y02625D02*
Y0284D01*
X028854Y025954D02*
X02915Y02625D01*
X028854Y025357D02*
Y025954D01*
X02645Y0267D02*
X026944Y026206D01*
X026381Y026769D02*
X02645Y0267D01*
X02188Y028108D02*
X0244D01*
X020158Y026927D02*
X021339Y028108D01*
X020158Y026769D02*
Y026927D01*
X025485Y0319D02*
X0256Y031785D01*
X025468Y027439D02*
X0256Y027571D01*
Y031785D01*
X023196Y026769D02*
X0244D01*
X026944Y025258D02*
Y026206D01*
X0244Y026769D02*
X026381D01*
X026944Y023406D02*
Y025258D01*
X0275Y02145D02*
Y02285D01*
X023565Y025431D02*
X0244D01*
X02345Y025315D02*
X023565Y025431D01*
X04385Y01465D02*
X047D01*
X0406D02*
X04385D01*
X040575Y014625D02*
X0406Y01465D01*
X0375Y0146D02*
X037525Y014625D01*
X040575D01*
X0285Y0166D02*
X029041D01*
X0282Y0169D02*
X0285Y0166D01*
X0266Y0169D02*
X0282D01*
X03167Y02958D02*
X031871Y02938D01*
X031921Y02933D01*
X04965Y02675D02*
Y0291D01*
Y02665D02*
Y02675D01*
X03272Y0381D02*
X03277Y03805D01*
X0324Y03842D02*
X03272Y0381D01*
X03155D02*
X03272D01*
X0313Y04205D02*
X0324Y04095D01*
Y03842D02*
Y04095D01*
X035094Y038286D02*
Y038756D01*
X0343Y03955D02*
X035094Y038756D01*
Y038286D02*
X03533Y03805D01*
X04885Y0295D02*
X049036Y029313D01*
X02795Y042291D02*
X029635D01*
X026367D02*
X02795D01*
X024783D02*
X026367D01*
X0232D02*
X024783D01*
X039576Y04205D02*
X0456D01*
X0383D02*
X039576D01*
X03795Y041699D02*
X0383Y04205D01*
X049035Y026535D02*
X049535D01*
X0489Y0264D02*
X049035Y026535D01*
X049535D02*
X04965Y02665D01*
X049437Y029313D02*
X04965Y0291D01*
X049036Y029313D02*
X049437D01*
D85*
X029041Y0166D02*
X0291Y016659D01*
X02874Y016299D02*
X029041Y0166D01*
X02874Y01388D02*
Y016299D01*
X02873Y013866D02*
X02874Y013876D01*
Y01388D01*
X026189Y0154D02*
X026494Y015705D01*
Y016794D02*
X0266Y0169D01*
X026494Y015705D02*
Y016794D01*
X0266Y0169D02*
Y0172D01*
X0271Y0177D01*
Y021302D02*
X027248Y02145D01*
X0275D01*
X0271Y0177D02*
Y021302D01*
X02345Y018468D02*
X023911Y018006D01*
X024494D02*
X0246Y0179D01*
X023911Y018006D02*
X024494D01*
X02345Y018468D02*
Y02145D01*
X0246Y0154D02*
X026189D01*
D86*
X01984Y04125D02*
D03*
X019875Y014165D02*
D03*
X054985Y027685D02*
D03*
D87*
X02093Y04131D02*
D03*
X020572Y042073D02*
D03*
X01978Y04236D02*
D03*
X019017Y042002D02*
D03*
X01873Y04121D02*
D03*
X019088Y040447D02*
D03*
X01988Y04016D02*
D03*
X020643Y040518D02*
D03*
X020733Y013438D02*
D03*
X01997Y01308D02*
D03*
X01915Y01334D02*
D03*
X01881Y01415D02*
D03*
X01908Y0149D02*
D03*
X019843Y015258D02*
D03*
X02075Y01486D02*
D03*
X021075Y014015D02*
D03*
X056085Y027735D02*
D03*
X055728Y028499D02*
D03*
X054935Y028785D02*
D03*
X054172Y028428D02*
D03*
X053885Y027635D02*
D03*
X054243Y026872D02*
D03*
X055035Y026585D02*
D03*
X055799Y026943D02*
D03*
D88*
X02874Y01388D02*
D03*
X02974D02*
D03*
D89*
X03074D02*
D03*
D90*
X05045Y02185D02*
D03*
Y03395D02*
D03*
X02095Y02185D02*
D03*
Y03395D02*
D03*
D91*
X03395Y02275D02*
D03*
X03495D02*
D03*
X03295D02*
D03*
X03301Y03108D02*
D03*
X034Y0166D02*
D03*
Y0146D02*
D03*
Y0156D02*
D03*
X03305Y02755D02*
D03*
X03405D02*
D03*
X03205D02*
D03*
X04385Y01565D02*
D03*
Y01465D02*
D03*
X0375Y0166D02*
D03*
Y0146D02*
D03*
Y0156D02*
D03*
X047Y01465D02*
D03*
Y01565D02*
D03*
X0406Y01465D02*
D03*
Y01565D02*
D03*
D92*
X03595Y02275D02*
D03*
X03201Y03108D02*
D03*
X03505Y02755D02*
D03*
D93*
X034Y0136D02*
D03*
X04385Y01365D02*
D03*
X0375Y0136D02*
D03*
X047Y01365D02*
D03*
X0406D02*
D03*
D94*
X0266Y0169D02*
D03*
D95*
X0246Y0154D02*
D03*
Y0179D02*
D03*
D96*
X0464Y028371D02*
D03*
Y02645D02*
D03*
D97*
X037941Y030576D02*
D03*
X03864Y01982D02*
D03*
X04499Y02759D02*
D03*
X04143Y02455D02*
D03*
X03854Y02176D02*
D03*
X03127Y02241D02*
D03*
X03108Y02038D02*
D03*
X03887Y02507D02*
D03*
X03569Y02069D02*
D03*
X04255Y02155D02*
D03*
X04053Y02372D02*
D03*
X03765Y02725D02*
D03*
X04195Y02505D02*
D03*
X0382Y0329D02*
D03*
X04075Y03D02*
D03*
X0384Y03255D02*
D03*
X03957Y03325D02*
D03*
X045266Y02968D02*
D03*
X045242Y029051D02*
D03*
X04844Y02054D02*
D03*
X03176Y02236D02*
D03*
Y02074D02*
D03*
X03966Y02468D02*
D03*
X0407Y03478D02*
D03*
X03749Y032D02*
D03*
X03698Y03192D02*
D03*
X0291Y01785D02*
D03*
X03065D02*
D03*
X0261Y0261D02*
D03*
X02675Y03195D02*
D03*
X04085Y0314D02*
D03*
D98*
X04458Y02567D02*
D03*
X0445Y02377D02*
D03*
X04455Y03048D02*
D03*
X03285Y0195D02*
D03*
X03935Y0196D02*
D03*
X0488Y0295D02*
D03*
X03322Y02943D02*
D03*
X0374Y019434D02*
D03*
X04325Y0196D02*
D03*
X04065D02*
D03*
X0471Y01955D02*
D03*
X0432Y01825D02*
D03*
X04065D02*
D03*
X0288Y02525D02*
D03*
X0245Y027439D02*
D03*
X0287Y03215D02*
D03*
X04115Y032D02*
D03*
X04295Y02375D02*
D03*
X0379Y03735D02*
D03*
X03533Y03805D02*
D03*
X0387Y02595D02*
D03*
X03895Y0307D02*
D03*
X03661Y0368D02*
D03*
X03405Y03685D02*
D03*
X0302D02*
D03*
X03155Y0381D02*
D03*
X04565Y03655D02*
D03*
X031921Y02933D02*
D03*
M02*
