G04*
G04 #@! TF.GenerationSoftware,Altium Limited,Altium Designer,21.3.2 (30)*
G04*
G04 Layer_Color=128*
%FSTAX24Y24*%
%MOIN*%
G70*
G04*
G04 #@! TF.SameCoordinates,09EB0EA2-9561-46F4-B1F3-F0EC52C3B4A3*
G04*
G04*
G04 #@! TF.FilePolarity,Positive*
G04*
G01*
G75*
%ADD99C,0.0020*%
D99*
X019053Y04125D02*
X020627D01*
X01984Y040463D02*
Y042037D01*
X020832Y04131D02*
X021028D01*
X02093Y041212D02*
Y041408D01*
X020474Y042073D02*
X020671D01*
X020572Y041975D02*
Y042172D01*
X019682Y04236D02*
X019878D01*
X01978Y042262D02*
Y042458D01*
X018918Y042002D02*
X019115D01*
X019017Y041904D02*
Y042101D01*
X018632Y04121D02*
X018828D01*
X01873Y041112D02*
Y041308D01*
X018989Y040447D02*
X019186D01*
X019088Y040348D02*
Y040545D01*
X019782Y04016D02*
X019978D01*
X01988Y040062D02*
Y040258D01*
X020545Y040518D02*
X020742D01*
X020643Y040419D02*
Y040616D01*
X020635Y013438D02*
X020832D01*
X020733Y013339D02*
Y013536D01*
X019872Y01308D02*
X020068D01*
X01997Y012982D02*
Y013178D01*
X019052Y01334D02*
X019248D01*
X01915Y013242D02*
Y013438D01*
X018712Y01415D02*
X018908D01*
X01881Y014052D02*
Y014248D01*
X018982Y0149D02*
X019178D01*
X01908Y014802D02*
Y014998D01*
X019745Y015258D02*
X019942D01*
X019843Y015159D02*
Y015356D01*
X020652Y01486D02*
X020848D01*
X02075Y014762D02*
Y014958D01*
X020977Y014015D02*
X021174D01*
X021075Y013917D02*
Y014114D01*
X019088Y014165D02*
X020663D01*
X019875Y013378D02*
Y014953D01*
X028472Y01388D02*
X029008D01*
X02874Y013612D02*
Y014148D01*
X029472Y01388D02*
X030008D01*
X02974Y013612D02*
Y014148D01*
X030472Y01388D02*
X031008D01*
X03074Y013612D02*
Y014148D01*
X049663Y02185D02*
X051237D01*
X05045Y021063D02*
Y022637D01*
X049663Y03395D02*
X051237D01*
X05045Y033163D02*
Y034737D01*
X020163Y02185D02*
X021737D01*
X02095Y021063D02*
Y022637D01*
X020163Y03395D02*
X021737D01*
X02095Y033163D02*
Y034737D01*
X054198Y027685D02*
X055773D01*
X054985Y026898D02*
Y028473D01*
X055987Y027735D02*
X056184D01*
X056085Y027637D02*
Y027834D01*
X055629Y028499D02*
X055826D01*
X055728Y0284D02*
Y028597D01*
X054837Y028785D02*
X055034D01*
X054935Y028687D02*
Y028884D01*
X054074Y028428D02*
X054271D01*
X054172Y028329D02*
Y028526D01*
X053787Y027635D02*
X053984D01*
X053885Y027537D02*
Y027734D01*
X054144Y026872D02*
X054341D01*
X054243Y026774D02*
Y026971D01*
X054937Y026585D02*
X055134D01*
X055035Y026487D02*
Y026684D01*
X0557Y026943D02*
X055897D01*
X055799Y026844D02*
Y027041D01*
X033793Y02275D02*
X034107D01*
X03395Y022593D02*
Y022907D01*
X035793Y02275D02*
X036107D01*
X03595Y022593D02*
Y022907D01*
X034793Y02275D02*
X035107D01*
X03495Y022593D02*
Y022907D01*
X032793Y02275D02*
X033107D01*
X03295Y022593D02*
Y022907D01*
X032853Y03108D02*
X033167D01*
X03301Y030923D02*
Y031237D01*
X031853Y03108D02*
X032167D01*
X03201Y030923D02*
Y031237D01*
X033843Y0166D02*
X034157D01*
X034Y016443D02*
Y016757D01*
X033843Y0146D02*
X034157D01*
X034Y014443D02*
Y014757D01*
X033843Y0136D02*
X034157D01*
X034Y013443D02*
Y013757D01*
X033843Y0156D02*
X034157D01*
X034Y015443D02*
Y015757D01*
X032893Y02755D02*
X033207D01*
X03305Y027393D02*
Y027707D01*
X034893Y02755D02*
X035207D01*
X03505Y027393D02*
Y027707D01*
X033893Y02755D02*
X034207D01*
X03405Y027393D02*
Y027707D01*
X031893Y02755D02*
X032207D01*
X03205Y027393D02*
Y027707D01*
X026305Y0169D02*
X026895D01*
X0266Y016605D02*
Y017195D01*
X024305Y0154D02*
X024895D01*
X0246Y015105D02*
Y015695D01*
X024305Y0179D02*
X024895D01*
X0246Y017605D02*
Y018195D01*
X043693Y01565D02*
X044007D01*
X04385Y015493D02*
Y015807D01*
X043693Y01365D02*
X044007D01*
X04385Y013493D02*
Y013807D01*
X043693Y01465D02*
X044007D01*
X04385Y014493D02*
Y014807D01*
X037343Y0166D02*
X037657D01*
X0375Y016443D02*
Y016757D01*
X037343Y0146D02*
X037657D01*
X0375Y014443D02*
Y014757D01*
X037343Y0136D02*
X037657D01*
X0375Y013443D02*
Y013757D01*
X037343Y0156D02*
X037657D01*
X0375Y015443D02*
Y015757D01*
X046266Y028371D02*
X046534D01*
X0464Y028237D02*
Y028505D01*
X046266Y02645D02*
X046534D01*
X0464Y026316D02*
Y026584D01*
X046843Y01465D02*
X047157D01*
X047Y014493D02*
Y014807D01*
X046843Y01365D02*
X047157D01*
X047Y013493D02*
Y013807D01*
X046843Y01565D02*
X047157D01*
X047Y015493D02*
Y015807D01*
X040443Y01465D02*
X040757D01*
X0406Y014493D02*
Y014807D01*
X040443Y01365D02*
X040757D01*
X0406Y013493D02*
Y013807D01*
X040443Y01565D02*
X040757D01*
X0406Y015493D02*
Y015807D01*
X037902Y030576D02*
X037981D01*
X037941Y030537D02*
Y030615D01*
X038601Y01982D02*
X038679D01*
X03864Y019781D02*
Y019859D01*
X044501Y02567D02*
X044659D01*
X04458Y025591D02*
Y025749D01*
X044951Y02759D02*
X045029D01*
X04499Y027551D02*
Y027629D01*
X044421Y02377D02*
X044579D01*
X0445Y023691D02*
Y023849D01*
X041391Y02455D02*
X041469D01*
X04143Y024511D02*
Y024589D01*
X038501Y02176D02*
X038579D01*
X03854Y021721D02*
Y021799D01*
X031231Y02241D02*
X031309D01*
X03127Y022371D02*
Y022449D01*
X031041Y02038D02*
X031119D01*
X03108Y020341D02*
Y020419D01*
X038831Y02507D02*
X038909D01*
X03887Y025031D02*
Y025109D01*
X044471Y03048D02*
X044629D01*
X04455Y030401D02*
Y030559D01*
X035651Y02069D02*
X035729D01*
X03569Y020651D02*
Y020729D01*
X042511Y02155D02*
X042589D01*
X04255Y021511D02*
Y021589D01*
X040491Y02372D02*
X040569D01*
X04053Y023681D02*
Y023759D01*
X037611Y02725D02*
X037689D01*
X03765Y027211D02*
Y027289D01*
X041911Y02505D02*
X041989D01*
X04195Y025011D02*
Y025089D01*
X038161Y0329D02*
X038239D01*
X0382Y032861D02*
Y032939D01*
X040711Y03D02*
X040789D01*
X04075Y029961D02*
Y030039D01*
X038361Y03255D02*
X038439D01*
X0384Y032511D02*
Y032589D01*
X039531Y03325D02*
X039609D01*
X03957Y033211D02*
Y033289D01*
X045226Y02968D02*
X045305D01*
X045266Y02964D02*
Y029719D01*
X045203Y029051D02*
X045282D01*
X045242Y029011D02*
Y02909D01*
X048401Y02054D02*
X048479D01*
X04844Y020501D02*
Y020579D01*
X031721Y02236D02*
X031799D01*
X03176Y022321D02*
Y022399D01*
X031721Y02074D02*
X031799D01*
X03176Y020701D02*
Y020779D01*
X039621Y02468D02*
X039699D01*
X03966Y024641D02*
Y024719D01*
X040661Y03478D02*
X040739D01*
X0407Y034741D02*
Y034819D01*
X037451Y032D02*
X037529D01*
X03749Y031961D02*
Y032039D01*
X036941Y03192D02*
X037019D01*
X03698Y031881D02*
Y031959D01*
X029061Y01785D02*
X029139D01*
X0291Y017811D02*
Y017889D01*
X030611Y01785D02*
X030689D01*
X03065Y017811D02*
Y017889D01*
X032771Y0195D02*
X032929D01*
X03285Y019421D02*
Y019579D01*
X039271Y0196D02*
X039429D01*
X03935Y019521D02*
Y019678D01*
X048721Y0295D02*
X048879D01*
X0488Y029421D02*
Y029579D01*
X033142Y02943D02*
X033299D01*
X03322Y029351D02*
Y029509D01*
X037321Y019434D02*
X037479D01*
X0374Y019355D02*
Y019513D01*
X043171Y0196D02*
X043329D01*
X04325Y019521D02*
Y019679D01*
X040571Y0196D02*
X040729D01*
X04065Y019521D02*
Y019679D01*
X047021Y01955D02*
X047179D01*
X0471Y019471D02*
Y019629D01*
X043121Y01825D02*
X043279D01*
X0432Y018171D02*
Y018329D01*
X040571Y01825D02*
X040729D01*
X04065Y018171D02*
Y018329D01*
X028721Y02525D02*
X028879D01*
X0288Y025171D02*
Y025329D01*
X024421Y027439D02*
X024579D01*
X0245Y02736D02*
Y027517D01*
X026061Y0261D02*
X026139D01*
X0261Y026061D02*
Y026139D01*
X028621Y03215D02*
X028779D01*
X0287Y032071D02*
Y032229D01*
X026711Y03195D02*
X026789D01*
X02675Y031911D02*
Y031989D01*
X041071Y032D02*
X041229D01*
X04115Y031921D02*
Y032079D01*
X040811Y0314D02*
X040889D01*
X04085Y031361D02*
Y031439D01*
X042871Y02375D02*
X043029D01*
X04295Y023671D02*
Y023828D01*
X037821Y03735D02*
X037979D01*
X0379Y037271D02*
Y037429D01*
X035251Y03805D02*
X035409D01*
X03533Y037971D02*
Y038128D01*
X038621Y02595D02*
X038778D01*
X0387Y025871D02*
Y026029D01*
X038871Y0307D02*
X039029D01*
X03895Y030621D02*
Y030779D01*
X036531Y0368D02*
X036689D01*
X03661Y036721D02*
Y036879D01*
X033971Y03685D02*
X034129D01*
X03405Y036771D02*
Y036929D01*
X030121Y03685D02*
X030279D01*
X0302Y036771D02*
Y036929D01*
X031471Y0381D02*
X031629D01*
X03155Y038021D02*
Y038179D01*
X045571Y03655D02*
X045729D01*
X04565Y036471D02*
Y036629D01*
X031842Y02933D02*
X032D01*
X031921Y029251D02*
Y029409D01*
M02*
