G04*
G04 #@! TF.GenerationSoftware,Altium Limited,Altium Designer,21.3.2 (30)*
G04*
G04 Layer_Color=16711935*
%FSTAX24Y24*%
%MOIN*%
G70*
G04*
G04 #@! TF.SameCoordinates,09EB0EA2-9561-46F4-B1F3-F0EC52C3B4A3*
G04*
G04*
G04 #@! TF.FilePolarity,Positive*
G04*
G01*
G75*
%ADD12C,0.0079*%
%ADD20C,0.0100*%
D12*
X018239Y012133D02*
G03*
X018345Y011996I000151J000007D01*
G01*
X048528Y011996D02*
G03*
X04864Y012135I-000001J000116D01*
G01*
X055086Y019171D02*
G03*
X0552Y019312I-000086J000187D01*
G01*
X0552Y036085D02*
G03*
X054994Y036192I-00017J-000074D01*
G01*
X048519Y042993D02*
G03*
X048315Y043101I-00017J-000074D01*
G01*
X0181Y0431D02*
G03*
X018067Y043067I00011J-00014D01*
G01*
X017673Y036706D02*
G03*
X018067Y037643I-000965J000958D01*
G01*
X017673Y036706D02*
G03*
X01758Y036548I000119J-000177D01*
G01*
X018239Y017891D02*
G03*
X017633Y01903I-00136J000007D01*
G01*
X048517Y0402D02*
G03*
X052739Y036201I004043J00004D01*
G01*
X05265Y019173D02*
G03*
X048651Y014951I00004J-004043D01*
G01*
X018345Y011996D02*
X048528Y011996D01*
X018239Y012133D02*
Y017891D01*
X04864Y012134D02*
X04864Y012134D01*
X048649Y012134D02*
Y015137D01*
X0526Y019171D02*
X055078D01*
X0552Y019312D02*
Y023428D01*
X055068Y036199D02*
X055077Y03619D01*
X05265Y036199D02*
X055068D01*
X0552Y031943D02*
Y036086D01*
X04245Y0431D02*
X048412D01*
X048519Y04024D02*
Y042993D01*
X0181Y0431D02*
X02195D01*
X018067Y037643D02*
Y043067D01*
X01752Y0238D02*
X01758Y036548D01*
X01752Y0238D02*
X017548Y01917D01*
X0552Y0259D02*
X0552Y023428D01*
X0552Y0295D02*
Y031943D01*
X03345Y0431D02*
X04245Y0431D01*
X02195D02*
X0334D01*
D20*
X017591Y019275D02*
G03*
X017642Y019044I000119J-000095D01*
G01*
X055211Y025895D02*
G03*
X055211Y029505I-000301J001805D01*
G01*
M02*
