G04*
G04 #@! TF.GenerationSoftware,Altium Limited,Altium Designer,21.3.2 (30)*
G04*
G04 Layer_Color=8388736*
%FSTAX24Y24*%
%MOIN*%
G70*
G04*
G04 #@! TF.SameCoordinates,09EB0EA2-9561-46F4-B1F3-F0EC52C3B4A3*
G04*
G04*
G04 #@! TF.FilePolarity,Negative*
G04*
G01*
G75*
%ADD48R,0.0749X0.0749*%
%ADD49R,0.0710X0.0671*%
%ADD50R,0.2080X0.0671*%
%ADD51O,0.2080X0.0671*%
G04:AMPARAMS|DCode=52|XSize=56mil|YSize=31.6mil|CornerRadius=9.9mil|HoleSize=0mil|Usage=FLASHONLY|Rotation=270.000|XOffset=0mil|YOffset=0mil|HoleType=Round|Shape=RoundedRectangle|*
%AMROUNDEDRECTD52*
21,1,0.0560,0.0118,0,0,270.0*
21,1,0.0362,0.0316,0,0,270.0*
1,1,0.0198,-0.0059,-0.0181*
1,1,0.0198,-0.0059,0.0181*
1,1,0.0198,0.0059,0.0181*
1,1,0.0198,0.0059,-0.0181*
%
%ADD52ROUNDEDRECTD52*%
%ADD53R,0.0671X0.0710*%
%ADD54R,0.0729X0.0178*%
%ADD55R,0.0178X0.0729*%
%ADD56R,0.0789X0.0749*%
%ADD57R,0.1261X0.0356*%
%ADD58O,0.1261X0.0356*%
%ADD59R,0.0749X0.0749*%
%ADD60R,0.1220X0.2210*%
%ADD61R,0.1458X0.0552*%
%ADD62R,0.1064X0.4214*%
%ADD63R,0.2639X0.3426*%
%ADD64R,0.1379X0.1025*%
%ADD65R,0.0474X0.1025*%
%ADD66R,0.0690X0.0966*%
%ADD67R,0.0730X0.0680*%
%ADD68R,0.0395X0.0552*%
%ADD69R,0.1182X0.0513*%
%ADD70R,0.1104X0.0513*%
%ADD71C,0.2835*%
%ADD72C,0.0276*%
%ADD73C,0.0883*%
%ADD74R,0.0883X0.0883*%
%ADD75C,0.2244*%
%ADD76C,0.0710*%
%ADD77R,0.0710X0.0710*%
%ADD78R,0.0710X0.0710*%
%ADD79R,0.1080X0.1680*%
%ADD80R,0.1680X0.1080*%
%ADD81C,0.0505*%
%ADD82C,0.0237*%
%ADD83C,0.0356*%
D48*
X0471Y0196D02*
D03*
Y0183D02*
D03*
X04466Y019619D02*
D03*
Y01832D02*
D03*
X0287Y03015D02*
D03*
Y02885D02*
D03*
X03005Y0269D02*
D03*
Y0256D02*
D03*
X03935Y0183D02*
D03*
Y0196D02*
D03*
X040642D02*
D03*
Y0183D02*
D03*
X0432D02*
D03*
Y0196D02*
D03*
X03277Y03675D02*
D03*
Y03805D02*
D03*
X03155Y036801D02*
D03*
Y0381D02*
D03*
X04295Y02245D02*
D03*
Y02375D02*
D03*
X03533Y03805D02*
D03*
Y03675D02*
D03*
X03795Y041699D02*
D03*
Y0404D02*
D03*
X0379Y03865D02*
D03*
Y037351D02*
D03*
X0488Y02825D02*
D03*
Y02955D02*
D03*
X04883Y02642D02*
D03*
Y02512D02*
D03*
D49*
X0459Y019601D02*
D03*
Y018419D02*
D03*
X04187Y019621D02*
D03*
Y018439D02*
D03*
X0291Y017841D02*
D03*
X03065Y01785D02*
D03*
Y016669D02*
D03*
X0291Y016659D02*
D03*
X0232Y042291D02*
D03*
Y041109D02*
D03*
X03661Y036859D02*
D03*
Y038041D02*
D03*
X03404Y036899D02*
D03*
Y038081D02*
D03*
X02795Y041109D02*
D03*
Y042291D02*
D03*
X026367Y041109D02*
D03*
Y042291D02*
D03*
X024783Y041109D02*
D03*
Y042291D02*
D03*
X0302Y036899D02*
D03*
Y038081D02*
D03*
X04155Y022599D02*
D03*
Y023781D02*
D03*
D50*
X02365Y0214D02*
D03*
D51*
X0277D02*
D03*
D52*
X030126Y02118D02*
D03*
X029752Y0202D02*
D03*
X0305Y02118D02*
D03*
X029752D02*
D03*
X0305Y0202D02*
D03*
D53*
X030491Y02236D02*
D03*
X029309D02*
D03*
D54*
X04392Y026386D02*
D03*
Y026583D02*
D03*
Y02678D02*
D03*
Y026976D02*
D03*
Y027173D02*
D03*
Y02737D02*
D03*
Y027567D02*
D03*
Y027764D02*
D03*
Y027961D02*
D03*
Y028157D02*
D03*
Y028354D02*
D03*
Y028551D02*
D03*
X040583D02*
D03*
Y028354D02*
D03*
Y028157D02*
D03*
Y027961D02*
D03*
Y027764D02*
D03*
Y027567D02*
D03*
Y02737D02*
D03*
Y027173D02*
D03*
Y026976D02*
D03*
Y02678D02*
D03*
Y026583D02*
D03*
Y026386D02*
D03*
D55*
X043334Y029137D02*
D03*
X043137D02*
D03*
X042941D02*
D03*
X042744D02*
D03*
X042547D02*
D03*
X04235D02*
D03*
X042153D02*
D03*
X041956D02*
D03*
X041759D02*
D03*
X041563D02*
D03*
X041366D02*
D03*
X041169D02*
D03*
Y0258D02*
D03*
X041366D02*
D03*
X041563D02*
D03*
X041759D02*
D03*
X041956D02*
D03*
X042153D02*
D03*
X04235D02*
D03*
X042547D02*
D03*
X042744D02*
D03*
X042941D02*
D03*
X043137D02*
D03*
X043334D02*
D03*
D56*
X029413Y01908D02*
D03*
X030987D02*
D03*
D57*
X01885Y031D02*
D03*
D58*
X02105D02*
D03*
D59*
X03291Y02513D02*
D03*
X03421D02*
D03*
X02928Y02346D02*
D03*
X03058D02*
D03*
X03735Y01945D02*
D03*
X036051D02*
D03*
X0342D02*
D03*
X0329D02*
D03*
X03322Y02933D02*
D03*
X031921D02*
D03*
X0374Y02595D02*
D03*
X0387D02*
D03*
X04572Y03048D02*
D03*
X04702D02*
D03*
X039001Y0307D02*
D03*
X0403D02*
D03*
D60*
X02305Y0319D02*
D03*
X02695D02*
D03*
D61*
X0244Y025431D02*
D03*
Y0261D02*
D03*
Y026769D02*
D03*
Y027439D02*
D03*
Y028108D02*
D03*
D62*
X018878Y026769D02*
D03*
D63*
X020158D02*
D03*
D64*
X02785Y027542D02*
D03*
D65*
X028756Y025258D02*
D03*
X02785D02*
D03*
X026944D02*
D03*
D66*
X0287Y03215D02*
D03*
Y033725D02*
D03*
D67*
X024817Y0374D02*
D03*
Y03882D02*
D03*
X02805D02*
D03*
Y0374D02*
D03*
X026433Y03882D02*
D03*
Y0374D02*
D03*
X0232D02*
D03*
Y03882D02*
D03*
D68*
X03525Y042478D02*
D03*
Y039722D02*
D03*
X0333Y042478D02*
D03*
Y039722D02*
D03*
X0313Y042478D02*
D03*
Y039722D02*
D03*
D69*
X039576Y04205D02*
D03*
D70*
X039537Y041262D02*
D03*
Y040475D02*
D03*
Y039687D02*
D03*
Y0389D02*
D03*
Y038113D02*
D03*
Y037325D02*
D03*
Y036538D02*
D03*
X0456D02*
D03*
Y037325D02*
D03*
Y038113D02*
D03*
Y0389D02*
D03*
Y039687D02*
D03*
Y040475D02*
D03*
Y041262D02*
D03*
Y04205D02*
D03*
D71*
X01984Y04125D02*
D03*
X019875Y014165D02*
D03*
X054985Y027685D02*
D03*
D72*
X02093Y04131D02*
D03*
X020572Y042073D02*
D03*
X01978Y04236D02*
D03*
X019017Y042002D02*
D03*
X01873Y04121D02*
D03*
X019088Y040447D02*
D03*
X01988Y04016D02*
D03*
X020643Y040518D02*
D03*
X020733Y013438D02*
D03*
X01997Y01308D02*
D03*
X01915Y01334D02*
D03*
X01881Y01415D02*
D03*
X01908Y0149D02*
D03*
X019843Y015258D02*
D03*
X02075Y01486D02*
D03*
X021075Y014015D02*
D03*
X056085Y027735D02*
D03*
X055728Y028499D02*
D03*
X054935Y028785D02*
D03*
X054172Y028428D02*
D03*
X053885Y027635D02*
D03*
X054243Y026872D02*
D03*
X055035Y026585D02*
D03*
X055799Y026943D02*
D03*
D73*
X02874Y01388D02*
D03*
X02974D02*
D03*
D74*
X03074D02*
D03*
D75*
X05045Y02185D02*
D03*
Y03395D02*
D03*
X02095Y02185D02*
D03*
Y03395D02*
D03*
D76*
X03395Y02275D02*
D03*
X03495D02*
D03*
X03295D02*
D03*
X03301Y03108D02*
D03*
X034Y0166D02*
D03*
Y0146D02*
D03*
Y0156D02*
D03*
X03305Y02755D02*
D03*
X03405D02*
D03*
X03205D02*
D03*
X04385Y01565D02*
D03*
Y01465D02*
D03*
X0375Y0166D02*
D03*
Y0146D02*
D03*
Y0156D02*
D03*
X047Y01465D02*
D03*
Y01565D02*
D03*
X0406Y01465D02*
D03*
Y01565D02*
D03*
D77*
X03595Y02275D02*
D03*
X03201Y03108D02*
D03*
X03505Y02755D02*
D03*
D78*
X034Y0136D02*
D03*
X04385Y01365D02*
D03*
X0375Y0136D02*
D03*
X047Y01365D02*
D03*
X0406D02*
D03*
D79*
X0266Y0169D02*
D03*
D80*
X0246Y0154D02*
D03*
Y0179D02*
D03*
D81*
X0464Y028371D02*
D03*
Y02645D02*
D03*
D82*
X037941Y030576D02*
D03*
X03864Y01982D02*
D03*
X04499Y02759D02*
D03*
X04143Y02455D02*
D03*
X03854Y02176D02*
D03*
X03127Y02241D02*
D03*
X03108Y02038D02*
D03*
X03887Y02507D02*
D03*
X03569Y02069D02*
D03*
X04255Y02155D02*
D03*
X04053Y02372D02*
D03*
X03765Y02725D02*
D03*
X04195Y02505D02*
D03*
X0382Y0329D02*
D03*
X04075Y03D02*
D03*
X0384Y03255D02*
D03*
X03957Y03325D02*
D03*
X045266Y02968D02*
D03*
X045242Y029051D02*
D03*
X04844Y02054D02*
D03*
X03176Y02236D02*
D03*
Y02074D02*
D03*
X03966Y02468D02*
D03*
X0407Y03478D02*
D03*
X03749Y032D02*
D03*
X03698Y03192D02*
D03*
X0291Y01785D02*
D03*
X03065D02*
D03*
X0261Y0261D02*
D03*
X02675Y03195D02*
D03*
X04085Y0314D02*
D03*
D83*
X04458Y02567D02*
D03*
X0445Y02377D02*
D03*
X04455Y03048D02*
D03*
X03285Y0195D02*
D03*
X03935Y0196D02*
D03*
X0488Y0295D02*
D03*
X03322Y02943D02*
D03*
X0374Y019434D02*
D03*
X04325Y0196D02*
D03*
X04065D02*
D03*
X0471Y01955D02*
D03*
X0432Y01825D02*
D03*
X04065D02*
D03*
X0288Y02525D02*
D03*
X0245Y027439D02*
D03*
X0287Y03215D02*
D03*
X04115Y032D02*
D03*
X04295Y02375D02*
D03*
X0379Y03735D02*
D03*
X03533Y03805D02*
D03*
X0387Y02595D02*
D03*
X03895Y0307D02*
D03*
X03661Y0368D02*
D03*
X03405Y03685D02*
D03*
X0302D02*
D03*
X03155Y0381D02*
D03*
X04565Y03655D02*
D03*
X031921Y02933D02*
D03*
M02*
