G04*
G04 #@! TF.GenerationSoftware,Altium Limited,Altium Designer,21.3.2 (30)*
G04*
G04 Layer_Color=255*
%FSTAX24Y24*%
%MOIN*%
G70*
G04*
G04 #@! TF.SameCoordinates,09EB0EA2-9561-46F4-B1F3-F0EC52C3B4A3*
G04*
G04*
G04 #@! TF.FilePolarity,Positive*
G04*
G01*
G75*
%ADD86C,0.2756*%
%ADD87C,0.0197*%
%ADD88C,0.0803*%
%ADD89R,0.0803X0.0803*%
%ADD90C,0.2165*%
%ADD91C,0.0630*%
%ADD92R,0.0630X0.0630*%
%ADD93R,0.0630X0.0630*%
%ADD94R,0.1000X0.1600*%
%ADD95R,0.1600X0.1000*%
%ADD96C,0.0425*%
D86*
X01984Y04125D02*
D03*
X019875Y014165D02*
D03*
X054985Y027685D02*
D03*
D87*
X02093Y04131D02*
D03*
X020572Y042073D02*
D03*
X01978Y04236D02*
D03*
X019017Y042002D02*
D03*
X01873Y04121D02*
D03*
X019088Y040447D02*
D03*
X01988Y04016D02*
D03*
X020643Y040518D02*
D03*
X020733Y013438D02*
D03*
X01997Y01308D02*
D03*
X01915Y01334D02*
D03*
X01881Y01415D02*
D03*
X01908Y0149D02*
D03*
X019843Y015258D02*
D03*
X02075Y01486D02*
D03*
X021075Y014015D02*
D03*
X056085Y027735D02*
D03*
X055728Y028499D02*
D03*
X054935Y028785D02*
D03*
X054172Y028428D02*
D03*
X053885Y027635D02*
D03*
X054243Y026872D02*
D03*
X055035Y026585D02*
D03*
X055799Y026943D02*
D03*
D88*
X02874Y01388D02*
D03*
X02974D02*
D03*
D89*
X03074D02*
D03*
D90*
X05045Y02185D02*
D03*
Y03395D02*
D03*
X02095Y02185D02*
D03*
Y03395D02*
D03*
D91*
X03395Y02275D02*
D03*
X03495D02*
D03*
X03295D02*
D03*
X03301Y03108D02*
D03*
X034Y0166D02*
D03*
Y0146D02*
D03*
Y0156D02*
D03*
X03305Y02755D02*
D03*
X03405D02*
D03*
X03205D02*
D03*
X04385Y01565D02*
D03*
Y01465D02*
D03*
X0375Y0166D02*
D03*
Y0146D02*
D03*
Y0156D02*
D03*
X047Y01465D02*
D03*
Y01565D02*
D03*
X0406Y01465D02*
D03*
Y01565D02*
D03*
D92*
X03595Y02275D02*
D03*
X03201Y03108D02*
D03*
X03505Y02755D02*
D03*
D93*
X034Y0136D02*
D03*
X04385Y01365D02*
D03*
X0375Y0136D02*
D03*
X047Y01365D02*
D03*
X0406D02*
D03*
D94*
X0266Y0169D02*
D03*
D95*
X0246Y0154D02*
D03*
Y0179D02*
D03*
D96*
X0464Y028371D02*
D03*
Y02645D02*
D03*
M02*
