G04*
G04 #@! TF.GenerationSoftware,Altium Limited,Altium Designer,21.3.2 (30)*
G04*
G04 Layer_Color=2752767*
%FSTAX24Y24*%
%MOIN*%
G70*
G04*
G04 #@! TF.SameCoordinates,09EB0EA2-9561-46F4-B1F3-F0EC52C3B4A3*
G04*
G04*
G04 #@! TF.FilePolarity,Positive*
G04*
G01*
G75*
%ADD99C,0.0020*%
%ADD100C,0.0027*%
D99*
X01976Y04117D02*
Y04133D01*
X01992D01*
Y04117D01*
X01976D01*
X019795Y014085D02*
Y014245D01*
X019955D01*
Y014085D01*
X019795D01*
X02874Y0138D02*
X02866Y01396D01*
X02882D01*
X02874Y0138D01*
X02974D02*
X02966Y01396D01*
X02982D01*
X02974Y0138D01*
X03074D02*
X03066Y01396D01*
X03082D01*
X03074Y0138D01*
X05037Y02177D02*
Y02193D01*
X05053D01*
Y02177D01*
X05037D01*
Y03387D02*
Y03403D01*
X05053D01*
Y03387D01*
X05037D01*
X02087Y02177D02*
Y02193D01*
X02103D01*
Y02177D01*
X02087D01*
Y03387D02*
Y03403D01*
X02103D01*
Y03387D01*
X02087D01*
X054905Y027605D02*
Y027765D01*
X055065D01*
Y027605D01*
X054905D01*
X03395Y02267D02*
X03399Y02271D01*
X03403D01*
X03399Y02275D01*
X03403Y02279D01*
X03399D01*
X03395Y02283D01*
X03391Y02279D01*
X03387D01*
X03391Y02275D01*
X03387Y02271D01*
X03391D01*
X03395Y02267D01*
X03595D02*
X03599Y02271D01*
X03603D01*
X03599Y02275D01*
X03603Y02279D01*
X03599D01*
X03595Y02283D01*
X03591Y02279D01*
X03587D01*
X03591Y02275D01*
X03587Y02271D01*
X03591D01*
X03595Y02267D01*
X03495D02*
X03499Y02271D01*
X03503D01*
X03499Y02275D01*
X03503Y02279D01*
X03499D01*
X03495Y02283D01*
X03491Y02279D01*
X03487D01*
X03491Y02275D01*
X03487Y02271D01*
X03491D01*
X03495Y02267D01*
X03295D02*
X03299Y02271D01*
X03303D01*
X03299Y02275D01*
X03303Y02279D01*
X03299D01*
X03295Y02283D01*
X03291Y02279D01*
X03287D01*
X03291Y02275D01*
X03287Y02271D01*
X03291D01*
X03295Y02267D01*
X03301Y031D02*
X03305Y03104D01*
X03309D01*
X03305Y03108D01*
X03309Y03112D01*
X03305D01*
X03301Y03116D01*
X03297Y03112D01*
X03293D01*
X03297Y03108D01*
X03293Y03104D01*
X03297D01*
X03301Y031D01*
X03201D02*
X03205Y03104D01*
X03209D01*
X03205Y03108D01*
X03209Y03112D01*
X03205D01*
X03201Y03116D01*
X03197Y03112D01*
X03193D01*
X03197Y03108D01*
X03193Y03104D01*
X03197D01*
X03201Y031D01*
X034Y01652D02*
X03404Y01656D01*
X03408D01*
X03404Y0166D01*
X03408Y01664D01*
X03404D01*
X034Y01668D01*
X03396Y01664D01*
X03392D01*
X03396Y0166D01*
X03392Y01656D01*
X03396D01*
X034Y01652D01*
Y01452D02*
X03404Y01456D01*
X03408D01*
X03404Y0146D01*
X03408Y01464D01*
X03404D01*
X034Y01468D01*
X03396Y01464D01*
X03392D01*
X03396Y0146D01*
X03392Y01456D01*
X03396D01*
X034Y01452D01*
Y01352D02*
X03404Y01356D01*
X03408D01*
X03404Y0136D01*
X03408Y01364D01*
X03404D01*
X034Y01368D01*
X03396Y01364D01*
X03392D01*
X03396Y0136D01*
X03392Y01356D01*
X03396D01*
X034Y01352D01*
Y01552D02*
X03404Y01556D01*
X03408D01*
X03404Y0156D01*
X03408Y01564D01*
X03404D01*
X034Y01568D01*
X03396Y01564D01*
X03392D01*
X03396Y0156D01*
X03392Y01556D01*
X03396D01*
X034Y01552D01*
X03305Y02747D02*
X03309Y02751D01*
X03313D01*
X03309Y02755D01*
X03313Y02759D01*
X03309D01*
X03305Y02763D01*
X03301Y02759D01*
X03297D01*
X03301Y02755D01*
X03297Y02751D01*
X03301D01*
X03305Y02747D01*
X03505D02*
X03509Y02751D01*
X03513D01*
X03509Y02755D01*
X03513Y02759D01*
X03509D01*
X03505Y02763D01*
X03501Y02759D01*
X03497D01*
X03501Y02755D01*
X03497Y02751D01*
X03501D01*
X03505Y02747D01*
X03405D02*
X03409Y02751D01*
X03413D01*
X03409Y02755D01*
X03413Y02759D01*
X03409D01*
X03405Y02763D01*
X03401Y02759D01*
X03397D01*
X03401Y02755D01*
X03397Y02751D01*
X03401D01*
X03405Y02747D01*
X03205D02*
X03209Y02751D01*
X03213D01*
X03209Y02755D01*
X03213Y02759D01*
X03209D01*
X03205Y02763D01*
X03201Y02759D01*
X03197D01*
X03201Y02755D01*
X03197Y02751D01*
X03201D01*
X03205Y02747D01*
X02652Y01682D02*
X02656Y0169D01*
X02652Y01698D01*
X0266Y01694D01*
X02668Y01698D01*
X02664Y0169D01*
X02668Y01682D01*
X0266Y01686D01*
X02652Y01682D01*
X02452Y01532D02*
X02456Y0154D01*
X02452Y01548D01*
X0246Y01544D01*
X02468Y01548D01*
X02464Y0154D01*
X02468Y01532D01*
X0246Y01536D01*
X02452Y01532D01*
Y01782D02*
X02456Y0179D01*
X02452Y01798D01*
X0246Y01794D01*
X02468Y01798D01*
X02464Y0179D01*
X02468Y01782D01*
X0246Y01786D01*
X02452Y01782D01*
X04385Y01557D02*
X04389Y01561D01*
X04393D01*
X04389Y01565D01*
X04393Y01569D01*
X04389D01*
X04385Y01573D01*
X04381Y01569D01*
X04377D01*
X04381Y01565D01*
X04377Y01561D01*
X04381D01*
X04385Y01557D01*
Y01357D02*
X04389Y01361D01*
X04393D01*
X04389Y01365D01*
X04393Y01369D01*
X04389D01*
X04385Y01373D01*
X04381Y01369D01*
X04377D01*
X04381Y01365D01*
X04377Y01361D01*
X04381D01*
X04385Y01357D01*
Y01457D02*
X04389Y01461D01*
X04393D01*
X04389Y01465D01*
X04393Y01469D01*
X04389D01*
X04385Y01473D01*
X04381Y01469D01*
X04377D01*
X04381Y01465D01*
X04377Y01461D01*
X04381D01*
X04385Y01457D01*
X0375Y01652D02*
X03754Y01656D01*
X03758D01*
X03754Y0166D01*
X03758Y01664D01*
X03754D01*
X0375Y01668D01*
X03746Y01664D01*
X03742D01*
X03746Y0166D01*
X03742Y01656D01*
X03746D01*
X0375Y01652D01*
Y01452D02*
X03754Y01456D01*
X03758D01*
X03754Y0146D01*
X03758Y01464D01*
X03754D01*
X0375Y01468D01*
X03746Y01464D01*
X03742D01*
X03746Y0146D01*
X03742Y01456D01*
X03746D01*
X0375Y01452D01*
Y01352D02*
X03754Y01356D01*
X03758D01*
X03754Y0136D01*
X03758Y01364D01*
X03754D01*
X0375Y01368D01*
X03746Y01364D01*
X03742D01*
X03746Y0136D01*
X03742Y01356D01*
X03746D01*
X0375Y01352D01*
Y01552D02*
X03754Y01556D01*
X03758D01*
X03754Y0156D01*
X03758Y01564D01*
X03754D01*
X0375Y01568D01*
X03746Y01564D01*
X03742D01*
X03746Y0156D01*
X03742Y01556D01*
X03746D01*
X0375Y01552D01*
X04636Y028331D02*
Y028291D01*
X04644D01*
Y028331D01*
X04648D01*
Y028411D01*
X04644D01*
Y028451D01*
X04636D01*
Y028411D01*
X04632D01*
Y028331D01*
X04636D01*
Y02641D02*
Y02637D01*
X04644D01*
Y02641D01*
X04648D01*
Y02649D01*
X04644D01*
Y02653D01*
X04636D01*
Y02649D01*
X04632D01*
Y02641D01*
X04636D01*
X047Y01457D02*
X04704Y01461D01*
X04708D01*
X04704Y01465D01*
X04708Y01469D01*
X04704D01*
X047Y01473D01*
X04696Y01469D01*
X04692D01*
X04696Y01465D01*
X04692Y01461D01*
X04696D01*
X047Y01457D01*
Y01357D02*
X04704Y01361D01*
X04708D01*
X04704Y01365D01*
X04708Y01369D01*
X04704D01*
X047Y01373D01*
X04696Y01369D01*
X04692D01*
X04696Y01365D01*
X04692Y01361D01*
X04696D01*
X047Y01357D01*
Y01557D02*
X04704Y01561D01*
X04708D01*
X04704Y01565D01*
X04708Y01569D01*
X04704D01*
X047Y01573D01*
X04696Y01569D01*
X04692D01*
X04696Y01565D01*
X04692Y01561D01*
X04696D01*
X047Y01557D01*
X0406Y01457D02*
X04064Y01461D01*
X04068D01*
X04064Y01465D01*
X04068Y01469D01*
X04064D01*
X0406Y01473D01*
X04056Y01469D01*
X04052D01*
X04056Y01465D01*
X04052Y01461D01*
X04056D01*
X0406Y01457D01*
Y01357D02*
X04064Y01361D01*
X04068D01*
X04064Y01365D01*
X04068Y01369D01*
X04064D01*
X0406Y01373D01*
X04056Y01369D01*
X04052D01*
X04056Y01365D01*
X04052Y01361D01*
X04056D01*
X0406Y01357D01*
Y01557D02*
X04064Y01561D01*
X04068D01*
X04064Y01565D01*
X04068Y01569D01*
X04064D01*
X0406Y01573D01*
X04056Y01569D01*
X04052D01*
X04056Y01565D01*
X04052Y01561D01*
X04056D01*
X0406Y01557D01*
X037861Y030496D02*
X037901D01*
X037941Y030536D01*
X037981Y030496D01*
X038021D01*
Y030536D01*
X037981Y030576D01*
X038021Y030616D01*
Y030656D01*
X037981D01*
X037941Y030616D01*
X037901Y030656D01*
X037861D01*
Y030616D01*
X037901Y030576D01*
X037861Y030536D01*
Y030496D01*
X03856Y01974D02*
X0386D01*
X03864Y01978D01*
X03868Y01974D01*
X03872D01*
Y01978D01*
X03868Y01982D01*
X03872Y01986D01*
Y0199D01*
X03868D01*
X03864Y01986D01*
X0386Y0199D01*
X03856D01*
Y01986D01*
X0386Y01982D01*
X03856Y01978D01*
Y01974D01*
X0445Y02567D02*
X04458Y02575D01*
X04466Y02567D01*
X04458Y02559D01*
X0445Y02567D01*
X04491Y02751D02*
X04495D01*
X04499Y02755D01*
X04503Y02751D01*
X04507D01*
Y02755D01*
X04503Y02759D01*
X04507Y02763D01*
Y02767D01*
X04503D01*
X04499Y02763D01*
X04495Y02767D01*
X04491D01*
Y02763D01*
X04495Y02759D01*
X04491Y02755D01*
Y02751D01*
X04442Y02377D02*
X0445Y02385D01*
X04458Y02377D01*
X0445Y02369D01*
X04442Y02377D01*
X04135Y02447D02*
X04139D01*
X04143Y02451D01*
X04147Y02447D01*
X04151D01*
Y02451D01*
X04147Y02455D01*
X04151Y02459D01*
Y02463D01*
X04147D01*
X04143Y02459D01*
X04139Y02463D01*
X04135D01*
Y02459D01*
X04139Y02455D01*
X04135Y02451D01*
Y02447D01*
X03846Y02168D02*
X0385D01*
X03854Y02172D01*
X03858Y02168D01*
X03862D01*
Y02172D01*
X03858Y02176D01*
X03862Y0218D01*
Y02184D01*
X03858D01*
X03854Y0218D01*
X0385Y02184D01*
X03846D01*
Y0218D01*
X0385Y02176D01*
X03846Y02172D01*
Y02168D01*
X03119Y02233D02*
X03123D01*
X03127Y02237D01*
X03131Y02233D01*
X03135D01*
Y02237D01*
X03131Y02241D01*
X03135Y02245D01*
Y02249D01*
X03131D01*
X03127Y02245D01*
X03123Y02249D01*
X03119D01*
Y02245D01*
X03123Y02241D01*
X03119Y02237D01*
Y02233D01*
X031Y0203D02*
X03104D01*
X03108Y02034D01*
X03112Y0203D01*
X03116D01*
Y02034D01*
X03112Y02038D01*
X03116Y02042D01*
Y02046D01*
X03112D01*
X03108Y02042D01*
X03104Y02046D01*
X031D01*
Y02042D01*
X03104Y02038D01*
X031Y02034D01*
Y0203D01*
X03879Y02499D02*
X03883D01*
X03887Y02503D01*
X03891Y02499D01*
X03895D01*
Y02503D01*
X03891Y02507D01*
X03895Y02511D01*
Y02515D01*
X03891D01*
X03887Y02511D01*
X03883Y02515D01*
X03879D01*
Y02511D01*
X03883Y02507D01*
X03879Y02503D01*
Y02499D01*
X04447Y03048D02*
X04455Y03056D01*
X04463Y03048D01*
X04455Y0304D01*
X04447Y03048D01*
X03561Y02061D02*
X03565D01*
X03569Y02065D01*
X03573Y02061D01*
X03577D01*
Y02065D01*
X03573Y02069D01*
X03577Y02073D01*
Y02077D01*
X03573D01*
X03569Y02073D01*
X03565Y02077D01*
X03561D01*
Y02073D01*
X03565Y02069D01*
X03561Y02065D01*
Y02061D01*
X04247Y02147D02*
X04251D01*
X04255Y02151D01*
X04259Y02147D01*
X04263D01*
Y02151D01*
X04259Y02155D01*
X04263Y02159D01*
Y02163D01*
X04259D01*
X04255Y02159D01*
X04251Y02163D01*
X04247D01*
Y02159D01*
X04251Y02155D01*
X04247Y02151D01*
Y02147D01*
X04045Y02364D02*
X04049D01*
X04053Y02368D01*
X04057Y02364D01*
X04061D01*
Y02368D01*
X04057Y02372D01*
X04061Y02376D01*
Y0238D01*
X04057D01*
X04053Y02376D01*
X04049Y0238D01*
X04045D01*
Y02376D01*
X04049Y02372D01*
X04045Y02368D01*
Y02364D01*
X03757Y02717D02*
X03761D01*
X03765Y02721D01*
X03769Y02717D01*
X03773D01*
Y02721D01*
X03769Y02725D01*
X03773Y02729D01*
Y02733D01*
X03769D01*
X03765Y02729D01*
X03761Y02733D01*
X03757D01*
Y02729D01*
X03761Y02725D01*
X03757Y02721D01*
Y02717D01*
X04187Y02497D02*
X04191D01*
X04195Y02501D01*
X04199Y02497D01*
X04203D01*
Y02501D01*
X04199Y02505D01*
X04203Y02509D01*
Y02513D01*
X04199D01*
X04195Y02509D01*
X04191Y02513D01*
X04187D01*
Y02509D01*
X04191Y02505D01*
X04187Y02501D01*
Y02497D01*
X03812Y03282D02*
X03816D01*
X0382Y03286D01*
X03824Y03282D01*
X03828D01*
Y03286D01*
X03824Y0329D01*
X03828Y03294D01*
Y03298D01*
X03824D01*
X0382Y03294D01*
X03816Y03298D01*
X03812D01*
Y03294D01*
X03816Y0329D01*
X03812Y03286D01*
Y03282D01*
X04067Y02992D02*
X04071D01*
X04075Y02996D01*
X04079Y02992D01*
X04083D01*
Y02996D01*
X04079Y03D01*
X04083Y03004D01*
Y03008D01*
X04079D01*
X04075Y03004D01*
X04071Y03008D01*
X04067D01*
Y03004D01*
X04071Y03D01*
X04067Y02996D01*
Y02992D01*
X03832Y03247D02*
X03836D01*
X0384Y03251D01*
X03844Y03247D01*
X03848D01*
Y03251D01*
X03844Y03255D01*
X03848Y03259D01*
Y03263D01*
X03844D01*
X0384Y03259D01*
X03836Y03263D01*
X03832D01*
Y03259D01*
X03836Y03255D01*
X03832Y03251D01*
Y03247D01*
X03949Y03317D02*
X03953D01*
X03957Y03321D01*
X03961Y03317D01*
X03965D01*
Y03321D01*
X03961Y03325D01*
X03965Y03329D01*
Y03333D01*
X03961D01*
X03957Y03329D01*
X03953Y03333D01*
X03949D01*
Y03329D01*
X03953Y03325D01*
X03949Y03321D01*
Y03317D01*
X045186Y0296D02*
X045226D01*
X045266Y02964D01*
X045306Y0296D01*
X045346D01*
Y02964D01*
X045306Y02968D01*
X045346Y02972D01*
Y02976D01*
X045306D01*
X045266Y02972D01*
X045226Y02976D01*
X045186D01*
Y02972D01*
X045226Y02968D01*
X045186Y02964D01*
Y0296D01*
X045162Y028971D02*
X045202D01*
X045242Y029011D01*
X045282Y028971D01*
X045322D01*
Y029011D01*
X045282Y029051D01*
X045322Y029091D01*
Y029131D01*
X045282D01*
X045242Y029091D01*
X045202Y029131D01*
X045162D01*
Y029091D01*
X045202Y029051D01*
X045162Y029011D01*
Y028971D01*
X04836Y02046D02*
X0484D01*
X04844Y0205D01*
X04848Y02046D01*
X04852D01*
Y0205D01*
X04848Y02054D01*
X04852Y02058D01*
Y02062D01*
X04848D01*
X04844Y02058D01*
X0484Y02062D01*
X04836D01*
Y02058D01*
X0484Y02054D01*
X04836Y0205D01*
Y02046D01*
X03168Y02228D02*
X03172D01*
X03176Y02232D01*
X0318Y02228D01*
X03184D01*
Y02232D01*
X0318Y02236D01*
X03184Y0224D01*
Y02244D01*
X0318D01*
X03176Y0224D01*
X03172Y02244D01*
X03168D01*
Y0224D01*
X03172Y02236D01*
X03168Y02232D01*
Y02228D01*
Y02066D02*
X03172D01*
X03176Y0207D01*
X0318Y02066D01*
X03184D01*
Y0207D01*
X0318Y02074D01*
X03184Y02078D01*
Y02082D01*
X0318D01*
X03176Y02078D01*
X03172Y02082D01*
X03168D01*
Y02078D01*
X03172Y02074D01*
X03168Y0207D01*
Y02066D01*
X03958Y0246D02*
X03962D01*
X03966Y02464D01*
X0397Y0246D01*
X03974D01*
Y02464D01*
X0397Y02468D01*
X03974Y02472D01*
Y02476D01*
X0397D01*
X03966Y02472D01*
X03962Y02476D01*
X03958D01*
Y02472D01*
X03962Y02468D01*
X03958Y02464D01*
Y0246D01*
X04062Y0347D02*
X04066D01*
X0407Y03474D01*
X04074Y0347D01*
X04078D01*
Y03474D01*
X04074Y03478D01*
X04078Y03482D01*
Y03486D01*
X04074D01*
X0407Y03482D01*
X04066Y03486D01*
X04062D01*
Y03482D01*
X04066Y03478D01*
X04062Y03474D01*
Y0347D01*
X03741Y03192D02*
X03745D01*
X03749Y03196D01*
X03753Y03192D01*
X03757D01*
Y03196D01*
X03753Y032D01*
X03757Y03204D01*
Y03208D01*
X03753D01*
X03749Y03204D01*
X03745Y03208D01*
X03741D01*
Y03204D01*
X03745Y032D01*
X03741Y03196D01*
Y03192D01*
X0369Y03184D02*
X03694D01*
X03698Y03188D01*
X03702Y03184D01*
X03706D01*
Y03188D01*
X03702Y03192D01*
X03706Y03196D01*
Y032D01*
X03702D01*
X03698Y03196D01*
X03694Y032D01*
X0369D01*
Y03196D01*
X03694Y03192D01*
X0369Y03188D01*
Y03184D01*
X02902Y01777D02*
X02906D01*
X0291Y01781D01*
X02914Y01777D01*
X02918D01*
Y01781D01*
X02914Y01785D01*
X02918Y01789D01*
Y01793D01*
X02914D01*
X0291Y01789D01*
X02906Y01793D01*
X02902D01*
Y01789D01*
X02906Y01785D01*
X02902Y01781D01*
Y01777D01*
X03057D02*
X03061D01*
X03065Y01781D01*
X03069Y01777D01*
X03073D01*
Y01781D01*
X03069Y01785D01*
X03073Y01789D01*
Y01793D01*
X03069D01*
X03065Y01789D01*
X03061Y01793D01*
X03057D01*
Y01789D01*
X03061Y01785D01*
X03057Y01781D01*
Y01777D01*
X03277Y0195D02*
X03285Y01958D01*
X03293Y0195D01*
X03285Y01942D01*
X03277Y0195D01*
X03927Y0196D02*
X03935Y01968D01*
X03943Y0196D01*
X03935Y01952D01*
X03927Y0196D01*
X04872Y0295D02*
X0488Y02958D01*
X04888Y0295D01*
X0488Y02942D01*
X04872Y0295D01*
X03314Y02943D02*
X03322Y02951D01*
X0333Y02943D01*
X03322Y02935D01*
X03314Y02943D01*
X03732Y019434D02*
X0374Y019514D01*
X03748Y019434D01*
X0374Y019354D01*
X03732Y019434D01*
X04317Y0196D02*
X04325Y01968D01*
X04333Y0196D01*
X04325Y01952D01*
X04317Y0196D01*
X04057D02*
X04065Y01968D01*
X04073Y0196D01*
X04065Y01952D01*
X04057Y0196D01*
X04702Y01955D02*
X0471Y01963D01*
X04718Y01955D01*
X0471Y01947D01*
X04702Y01955D01*
X04312Y01825D02*
X0432Y01833D01*
X04328Y01825D01*
X0432Y01817D01*
X04312Y01825D01*
X04057D02*
X04065Y01833D01*
X04073Y01825D01*
X04065Y01817D01*
X04057Y01825D01*
X02872Y02525D02*
X0288Y02533D01*
X02888Y02525D01*
X0288Y02517D01*
X02872Y02525D01*
X02442Y027439D02*
X0245Y027519D01*
X02458Y027439D01*
X0245Y027359D01*
X02442Y027439D01*
X02602Y02602D02*
X02606D01*
X0261Y02606D01*
X02614Y02602D01*
X02618D01*
Y02606D01*
X02614Y0261D01*
X02618Y02614D01*
Y02618D01*
X02614D01*
X0261Y02614D01*
X02606Y02618D01*
X02602D01*
Y02614D01*
X02606Y0261D01*
X02602Y02606D01*
Y02602D01*
X02862Y03215D02*
X0287Y03223D01*
X02878Y03215D01*
X0287Y03207D01*
X02862Y03215D01*
X02667Y03187D02*
X02671D01*
X02675Y03191D01*
X02679Y03187D01*
X02683D01*
Y03191D01*
X02679Y03195D01*
X02683Y03199D01*
Y03203D01*
X02679D01*
X02675Y03199D01*
X02671Y03203D01*
X02667D01*
Y03199D01*
X02671Y03195D01*
X02667Y03191D01*
Y03187D01*
X04107Y032D02*
X04115Y03208D01*
X04123Y032D01*
X04115Y03192D01*
X04107Y032D01*
X04077Y03132D02*
X04081D01*
X04085Y03136D01*
X04089Y03132D01*
X04093D01*
Y03136D01*
X04089Y0314D01*
X04093Y03144D01*
Y03148D01*
X04089D01*
X04085Y03144D01*
X04081Y03148D01*
X04077D01*
Y03144D01*
X04081Y0314D01*
X04077Y03136D01*
Y03132D01*
X04287Y02375D02*
X04295Y02383D01*
X04303Y02375D01*
X04295Y02367D01*
X04287Y02375D01*
X03782Y03735D02*
X0379Y03743D01*
X03798Y03735D01*
X0379Y03727D01*
X03782Y03735D01*
X03525Y03805D02*
X03533Y03813D01*
X03541Y03805D01*
X03533Y03797D01*
X03525Y03805D01*
X03862Y02595D02*
X0387Y02603D01*
X03878Y02595D01*
X0387Y02587D01*
X03862Y02595D01*
X03887Y0307D02*
X03895Y03078D01*
X03903Y0307D01*
X03895Y03062D01*
X03887Y0307D01*
X03653Y0368D02*
X03661Y03688D01*
X03669Y0368D01*
X03661Y03672D01*
X03653Y0368D01*
X03397Y03685D02*
X03405Y03693D01*
X03413Y03685D01*
X03405Y03677D01*
X03397Y03685D01*
X03012D02*
X0302Y03693D01*
X03028Y03685D01*
X0302Y03677D01*
X03012Y03685D01*
X03147Y0381D02*
X03155Y03818D01*
X03163Y0381D01*
X03155Y03802D01*
X03147Y0381D01*
X04557Y03655D02*
X04565Y03663D01*
X04573Y03655D01*
X04565Y03647D01*
X04557Y03655D01*
X031841Y02933D02*
X031921Y02941D01*
X032001Y02933D01*
X031921Y02925D01*
X031841Y02933D01*
D100*
X02101Y04131D02*
G03*
X02101Y04131I-00008J0D01*
G01*
X020652Y042073D02*
G03*
X020652Y042073I-00008J0D01*
G01*
X01986Y04236D02*
G03*
X01986Y04236I-00008J0D01*
G01*
X019097Y042002D02*
G03*
X019097Y042002I-00008J0D01*
G01*
X01881Y04121D02*
G03*
X01881Y04121I-00008J0D01*
G01*
X019168Y040447D02*
G03*
X019168Y040447I-00008J0D01*
G01*
X01996Y04016D02*
G03*
X01996Y04016I-00008J0D01*
G01*
X020723Y040518D02*
G03*
X020723Y040518I-00008J0D01*
G01*
X020813Y013438D02*
G03*
X020813Y013438I-00008J0D01*
G01*
X02005Y01308D02*
G03*
X02005Y01308I-00008J0D01*
G01*
X01923Y01334D02*
G03*
X01923Y01334I-00008J0D01*
G01*
X01889Y01415D02*
G03*
X01889Y01415I-00008J0D01*
G01*
X01916Y0149D02*
G03*
X01916Y0149I-00008J0D01*
G01*
X019923Y015258D02*
G03*
X019923Y015258I-00008J0D01*
G01*
X02083Y01486D02*
G03*
X02083Y01486I-00008J0D01*
G01*
X021155Y014015D02*
G03*
X021155Y014015I-00008J0D01*
G01*
X056165Y027735D02*
G03*
X056165Y027735I-00008J0D01*
G01*
X055808Y028499D02*
G03*
X055808Y028499I-00008J0D01*
G01*
X055015Y028785D02*
G03*
X055015Y028785I-00008J0D01*
G01*
X054252Y028428D02*
G03*
X054252Y028428I-00008J0D01*
G01*
X053965Y027635D02*
G03*
X053965Y027635I-00008J0D01*
G01*
X054323Y026872D02*
G03*
X054323Y026872I-00008J0D01*
G01*
X055115Y026585D02*
G03*
X055115Y026585I-00008J0D01*
G01*
X055879Y026943D02*
G03*
X055879Y026943I-00008J0D01*
G01*
M02*
