G04*
G04 #@! TF.GenerationSoftware,Altium Limited,Altium Designer,21.3.2 (30)*
G04*
G04 Layer_Color=16711935*
%FSTAX24Y24*%
%MOIN*%
G70*
G04*
G04 #@! TF.SameCoordinates,09EB0EA2-9561-46F4-B1F3-F0EC52C3B4A3*
G04*
G04*
G04 #@! TF.FilePolarity,Negative*
G04*
G01*
G75*
%ADD71C,0.2835*%
%ADD72C,0.0276*%
%ADD73C,0.0883*%
%ADD74R,0.0883X0.0883*%
%ADD75C,0.2244*%
%ADD76C,0.0710*%
%ADD77R,0.0710X0.0710*%
%ADD78R,0.0710X0.0710*%
%ADD79R,0.1080X0.1680*%
%ADD80R,0.1680X0.1080*%
%ADD81C,0.0505*%
%ADD82C,0.0237*%
%ADD83C,0.0356*%
D71*
X01984Y04125D02*
D03*
X019875Y014165D02*
D03*
X054985Y027685D02*
D03*
D72*
X02093Y04131D02*
D03*
X020572Y042073D02*
D03*
X01978Y04236D02*
D03*
X019017Y042002D02*
D03*
X01873Y04121D02*
D03*
X019088Y040447D02*
D03*
X01988Y04016D02*
D03*
X020643Y040518D02*
D03*
X020733Y013438D02*
D03*
X01997Y01308D02*
D03*
X01915Y01334D02*
D03*
X01881Y01415D02*
D03*
X01908Y0149D02*
D03*
X019843Y015258D02*
D03*
X02075Y01486D02*
D03*
X021075Y014015D02*
D03*
X056085Y027735D02*
D03*
X055728Y028499D02*
D03*
X054935Y028785D02*
D03*
X054172Y028428D02*
D03*
X053885Y027635D02*
D03*
X054243Y026872D02*
D03*
X055035Y026585D02*
D03*
X055799Y026943D02*
D03*
D73*
X02874Y01388D02*
D03*
X02974D02*
D03*
D74*
X03074D02*
D03*
D75*
X05045Y02185D02*
D03*
Y03395D02*
D03*
X02095Y02185D02*
D03*
Y03395D02*
D03*
D76*
X03395Y02275D02*
D03*
X03495D02*
D03*
X03295D02*
D03*
X03301Y03108D02*
D03*
X034Y0166D02*
D03*
Y0146D02*
D03*
Y0156D02*
D03*
X03305Y02755D02*
D03*
X03405D02*
D03*
X03205D02*
D03*
X04385Y01565D02*
D03*
Y01465D02*
D03*
X0375Y0166D02*
D03*
Y0146D02*
D03*
Y0156D02*
D03*
X047Y01465D02*
D03*
Y01565D02*
D03*
X0406Y01465D02*
D03*
Y01565D02*
D03*
D77*
X03595Y02275D02*
D03*
X03201Y03108D02*
D03*
X03505Y02755D02*
D03*
D78*
X034Y0136D02*
D03*
X04385Y01365D02*
D03*
X0375Y0136D02*
D03*
X047Y01365D02*
D03*
X0406D02*
D03*
D79*
X0266Y0169D02*
D03*
D80*
X0246Y0154D02*
D03*
Y0179D02*
D03*
D81*
X0464Y028371D02*
D03*
Y02645D02*
D03*
D82*
X037941Y030576D02*
D03*
X03864Y01982D02*
D03*
X04499Y02759D02*
D03*
X04143Y02455D02*
D03*
X03854Y02176D02*
D03*
X03127Y02241D02*
D03*
X03108Y02038D02*
D03*
X03887Y02507D02*
D03*
X03569Y02069D02*
D03*
X04255Y02155D02*
D03*
X04053Y02372D02*
D03*
X03765Y02725D02*
D03*
X04195Y02505D02*
D03*
X0382Y0329D02*
D03*
X04075Y03D02*
D03*
X0384Y03255D02*
D03*
X03957Y03325D02*
D03*
X045266Y02968D02*
D03*
X045242Y029051D02*
D03*
X04844Y02054D02*
D03*
X03176Y02236D02*
D03*
Y02074D02*
D03*
X03966Y02468D02*
D03*
X0407Y03478D02*
D03*
X03749Y032D02*
D03*
X03698Y03192D02*
D03*
X0291Y01785D02*
D03*
X03065D02*
D03*
X0261Y0261D02*
D03*
X02675Y03195D02*
D03*
X04085Y0314D02*
D03*
D83*
X04458Y02567D02*
D03*
X0445Y02377D02*
D03*
X04455Y03048D02*
D03*
X03285Y0195D02*
D03*
X03935Y0196D02*
D03*
X0488Y0295D02*
D03*
X03322Y02943D02*
D03*
X0374Y019434D02*
D03*
X04325Y0196D02*
D03*
X04065D02*
D03*
X0471Y01955D02*
D03*
X0432Y01825D02*
D03*
X04065D02*
D03*
X0288Y02525D02*
D03*
X0245Y027439D02*
D03*
X0287Y03215D02*
D03*
X04115Y032D02*
D03*
X04295Y02375D02*
D03*
X0379Y03735D02*
D03*
X03533Y03805D02*
D03*
X0387Y02595D02*
D03*
X03895Y0307D02*
D03*
X03661Y0368D02*
D03*
X03405Y03685D02*
D03*
X0302D02*
D03*
X03155Y0381D02*
D03*
X04565Y03655D02*
D03*
X031921Y02933D02*
D03*
M02*
