G04*
G04 #@! TF.GenerationSoftware,Altium Limited,Altium Designer,21.3.2 (30)*
G04*
G04 Layer_Physical_Order=2*
G04 Layer_Color=16711680*
%FSTAX24Y24*%
%MOIN*%
G70*
G04*
G04 #@! TF.SameCoordinates,09EB0EA2-9561-46F4-B1F3-F0EC52C3B4A3*
G04*
G04*
G04 #@! TF.FilePolarity,Positive*
G04*
G01*
G75*
%ADD12C,0.0079*%
%ADD20C,0.0100*%
%ADD84C,0.0197*%
%ADD85C,0.0787*%
%ADD86C,0.2756*%
%ADD87C,0.0197*%
%ADD88C,0.0803*%
%ADD89R,0.0803X0.0803*%
%ADD90C,0.2165*%
%ADD91C,0.0630*%
%ADD92R,0.0630X0.0630*%
%ADD93R,0.0630X0.0630*%
%ADD94R,0.1000X0.1600*%
%ADD95R,0.1600X0.1000*%
%ADD96C,0.0425*%
%ADD97C,0.0157*%
%ADD98C,0.0276*%
G36*
X03345Y043003D02*
X04245Y043003D01*
X0483D01*
X048344Y04292D01*
X048346Y042916D01*
X048359Y042906D01*
X048422Y042852D01*
Y040271D01*
X048355Y040199D01*
X048355Y040199D01*
X048355Y040199D01*
X048667Y038628D01*
X049581Y037261D01*
X050948Y036347D01*
X05256Y036026D01*
X052745Y036063D01*
X052745Y036063D01*
Y036063D01*
X052783Y036102D01*
X054978D01*
X054986Y036099D01*
X055026Y03601D01*
X055027Y036007D01*
X055042Y035997D01*
X055103Y035944D01*
Y031943D01*
Y029507D01*
X055103Y029505D01*
X055103Y029504D01*
Y0295D01*
X055132Y029432D01*
X055132Y029432D01*
X055133Y029431D01*
X055134Y029429D01*
X05515Y029422D01*
X055194Y029404D01*
X055178Y029309D01*
X055546Y029236D01*
X056085Y028875D01*
X056446Y028336D01*
X056572Y0277D01*
X056513Y027405D01*
X056413Y027415D01*
X056413Y027482D01*
Y027969D01*
X056196Y028494D01*
X055794Y028896D01*
X055269Y029113D01*
X054701D01*
X054176Y028896D01*
X053775Y028494D01*
X053557Y027969D01*
Y027401D01*
X053775Y026876D01*
X054176Y026475D01*
X054701Y026257D01*
X055269D01*
X055794Y026475D01*
X056196Y026876D01*
X056382Y027326D01*
X056408Y027389D01*
X056504Y02736D01*
X056446Y027064D01*
X056085Y026525D01*
X055546Y026164D01*
X055178Y026091D01*
X055194Y025996D01*
X055134Y025971D01*
X055133Y025969D01*
X055132Y025968D01*
X055132Y025968D01*
X055103Y0259D01*
Y025896D01*
X055103Y025895D01*
X055103Y025893D01*
X055103Y023428D01*
Y019414D01*
X055025Y019352D01*
X055016Y019354D01*
X055006Y019343D01*
X054958Y019268D01*
X052655D01*
X05265Y01927D01*
X052649Y01927D01*
X052649Y019335D01*
X051078Y019023D01*
X049711Y018109D01*
X048797Y016742D01*
X048476Y01513D01*
X048513Y014945D01*
X048513Y014945D01*
X048513D01*
X048552Y014907D01*
Y01228D01*
X048525Y012191D01*
X04847Y012168D01*
X048447Y012112D01*
X048355Y012093D01*
X018512Y012093D01*
X018431Y012142D01*
X01842Y01217D01*
X018402Y012177D01*
X018336Y012243D01*
Y017799D01*
X018356Y01789D01*
X018357Y017898D01*
X01834Y017984D01*
X018245Y018463D01*
X017924Y018943D01*
X017762Y019051D01*
X01775Y01914D01*
X017751Y019146D01*
X017761Y01918D01*
X017746Y019216D01*
X017699Y019282D01*
X017686Y019308D01*
X017667Y019352D01*
X017643Y019362D01*
X017617Y0238D01*
X017676Y036466D01*
X01775Y036533D01*
X017767Y036532D01*
X017779Y03655D01*
X017779Y03655D01*
X017756Y036624D01*
X018073Y037099D01*
X018181Y037641D01*
X018165Y037641D01*
X018164Y037643D01*
Y042875D01*
X018217Y042951D01*
X018218Y042952D01*
X018219Y042953D01*
X018297Y043003D01*
X0334D01*
X033425Y043014D01*
X03345Y043003D01*
D02*
G37*
%LPC*%
G36*
X020124Y042678D02*
X019556D01*
X019031Y042461D01*
X018629Y042059D01*
X018412Y041534D01*
Y040966D01*
X018629Y040441D01*
X019031Y040039D01*
X019556Y039822D01*
X019908D01*
X019929Y039802D01*
X020051D01*
X020072Y039822D01*
X020124D01*
X020649Y040039D01*
X020769Y040159D01*
X020815D01*
X020902Y040246D01*
Y040292D01*
X021051Y040441D01*
X021268Y040966D01*
Y041534D01*
X021051Y042059D01*
X020649Y042461D01*
X020124Y042678D01*
D02*
G37*
G36*
X031648Y038338D02*
X0316D01*
Y03815D01*
X031788D01*
Y038198D01*
X031648Y038338D01*
D02*
G37*
G36*
X0315D02*
X031451D01*
X031312Y038198D01*
Y03815D01*
X0315D01*
Y038338D01*
D02*
G37*
G36*
X035428Y038287D02*
X03538D01*
Y0381D01*
X035568D01*
Y038148D01*
X035428Y038287D01*
D02*
G37*
G36*
X03528D02*
X035231D01*
X035092Y038148D01*
Y0381D01*
X03528D01*
Y038287D01*
D02*
G37*
G36*
X031788Y03805D02*
X0316D01*
Y037862D01*
X031648D01*
X031788Y038001D01*
Y03805D01*
D02*
G37*
G36*
X0315D02*
X031312D01*
Y038001D01*
X031451Y037862D01*
X0315D01*
Y03805D01*
D02*
G37*
G36*
X035568Y038D02*
X03538D01*
Y037812D01*
X035428D01*
X035568Y037951D01*
Y038D01*
D02*
G37*
G36*
X03528D02*
X035092D01*
Y037951D01*
X035231Y037812D01*
X03528D01*
Y038D01*
D02*
G37*
G36*
X037998Y037588D02*
X03795D01*
Y0374D01*
X038138D01*
Y037448D01*
X037998Y037588D01*
D02*
G37*
G36*
X03785D02*
X037801D01*
X037662Y037448D01*
Y0374D01*
X03785D01*
Y037588D01*
D02*
G37*
G36*
X038138Y0373D02*
X03795D01*
Y037112D01*
X037998D01*
X038138Y037252D01*
Y0373D01*
D02*
G37*
G36*
X03785D02*
X037662D01*
Y037252D01*
X037801Y037112D01*
X03785D01*
Y0373D01*
D02*
G37*
G36*
X0366Y037061D02*
X036486Y037014D01*
X036486Y037014D01*
X036483Y037011D01*
X034155D01*
X034128Y037038D01*
X033972D01*
X033945Y037011D01*
X030305D01*
X030278Y037038D01*
X030122D01*
X030012Y036928D01*
Y036772D01*
X030122Y036662D01*
X030278D01*
X030305Y036689D01*
X033945D01*
X033972Y036662D01*
X034128D01*
X034155Y036689D01*
X036455D01*
X036532Y036612D01*
X036661D01*
X038789Y034483D01*
Y030805D01*
X038762Y030778D01*
Y030622D01*
X038789Y030595D01*
Y026226D01*
X038701Y026138D01*
X038622D01*
X038595Y026111D01*
X035517D01*
X035211Y026417D01*
Y027185D01*
X035415D01*
Y027915D01*
X035291D01*
Y02868D01*
X035291Y02868D01*
X035244Y028794D01*
X035244Y028794D01*
X034494Y029544D01*
X03438Y029591D01*
X03438Y029591D01*
X033325D01*
X033298Y029618D01*
X033143D01*
X033033Y029508D01*
Y029352D01*
X033143Y029242D01*
X033298D01*
X033325Y029269D01*
X034313D01*
X034969Y028613D01*
Y027915D01*
X034685D01*
Y027185D01*
X034889D01*
Y02635D01*
X034889Y02635D01*
X034936Y026236D01*
X035336Y025836D01*
X035336Y025836D01*
X03545Y025789D01*
X038595D01*
X038622Y025762D01*
X038777D01*
X038848Y025832D01*
X038851Y025834D01*
X039064Y026046D01*
X039111Y02616D01*
X039111Y02616D01*
Y030595D01*
X039138Y030622D01*
Y030778D01*
X039111Y030805D01*
Y03455D01*
X039111Y03455D01*
X039064Y034664D01*
X039064Y034664D01*
X036714Y037014D01*
X0366Y037061D01*
D02*
G37*
G36*
X045749Y036788D02*
X0457D01*
Y0366D01*
X045888D01*
Y036648D01*
X045749Y036788D01*
D02*
G37*
G36*
X0456D02*
X045552D01*
X045412Y036648D01*
Y0366D01*
X0456D01*
Y036788D01*
D02*
G37*
G36*
X045888Y0365D02*
X0457D01*
Y036312D01*
X045749D01*
X045888Y036451D01*
Y0365D01*
D02*
G37*
G36*
X0456D02*
X045412D01*
Y036451D01*
X045552Y036312D01*
X0456D01*
Y0365D01*
D02*
G37*
G36*
X038253Y033029D02*
X038147D01*
X038115Y032997D01*
X03095D01*
X03095Y032997D01*
X030882Y032968D01*
X030582Y032668D01*
X030553Y0326D01*
X030553Y0326D01*
Y02485D01*
X030553Y02485D01*
X030582Y024782D01*
X031173Y02419D01*
Y022495D01*
X031141Y022463D01*
Y022357D01*
X031217Y022281D01*
X031323D01*
X031399Y022357D01*
Y022463D01*
X031367Y022495D01*
Y02423D01*
X031338Y024298D01*
X031338Y024298D01*
X030747Y02489D01*
Y03256D01*
X03099Y032803D01*
X038115D01*
X038147Y032771D01*
X038253D01*
X038329Y032847D01*
Y032953D01*
X038253Y033029D01*
D02*
G37*
G36*
X050919Y035083D02*
X049981D01*
X049317Y034419D01*
Y033481D01*
X049981Y032817D01*
X050919D01*
X051583Y033481D01*
Y034419D01*
X050919Y035083D01*
D02*
G37*
G36*
X021419D02*
X020481D01*
X019817Y034419D01*
Y033481D01*
X020481Y032817D01*
X021419D01*
X022083Y033481D01*
Y034419D01*
X021419Y035083D01*
D02*
G37*
G36*
X038453Y032679D02*
X038347D01*
X038315Y032647D01*
X0318D01*
X031732Y032618D01*
X031732Y032618D01*
X031182Y032068D01*
X031153Y032D01*
X031153Y032D01*
Y0248D01*
X031153Y0248D01*
X031182Y024732D01*
X031603Y02431D01*
Y022441D01*
X031603Y022441D01*
X031631Y022374D01*
Y022307D01*
X031707Y022231D01*
X031813D01*
X031889Y022307D01*
Y022413D01*
X031813Y022489D01*
X031797D01*
Y02435D01*
X031797Y02435D01*
X031768Y024418D01*
X031768Y024418D01*
X031347Y02484D01*
Y03196D01*
X03184Y032453D01*
X038315D01*
X038347Y032421D01*
X038453D01*
X038529Y032497D01*
Y032603D01*
X038453Y032679D01*
D02*
G37*
G36*
X028798Y032388D02*
X02875D01*
Y0322D01*
X028938D01*
Y032248D01*
X028798Y032388D01*
D02*
G37*
G36*
X02865D02*
X028602D01*
X028462Y032248D01*
Y0322D01*
X02865D01*
Y032388D01*
D02*
G37*
G36*
X041248Y032238D02*
X0412D01*
Y03205D01*
X041388D01*
Y032099D01*
X041248Y032238D01*
D02*
G37*
G36*
X0411D02*
X041052D01*
X040912Y032099D01*
Y03205D01*
X0411D01*
Y032238D01*
D02*
G37*
G36*
X028938Y0321D02*
X02875D01*
Y031912D01*
X028798D01*
X028938Y032051D01*
Y0321D01*
D02*
G37*
G36*
X02865D02*
X028462D01*
Y032051D01*
X028602Y031912D01*
X02865D01*
Y0321D01*
D02*
G37*
G36*
X041388Y03195D02*
X0412D01*
Y031762D01*
X041248D01*
X041388Y031902D01*
Y03195D01*
D02*
G37*
G36*
X0411D02*
X040912D01*
Y031902D01*
X041052Y031762D01*
X0411D01*
Y03195D01*
D02*
G37*
G36*
X037543Y032129D02*
X037437D01*
X037361Y032053D01*
Y031947D01*
X037437Y031871D01*
X037482D01*
X037845Y031509D01*
Y031255D01*
X037747Y03125D01*
X037718Y031318D01*
X037718Y031318D01*
X037109Y031928D01*
Y031973D01*
X037033Y032049D01*
X036927D01*
X036851Y031973D01*
Y031867D01*
X036927Y031791D01*
X036972D01*
X037553Y03121D01*
Y027335D01*
X037521Y027303D01*
Y027197D01*
X037597Y027121D01*
X037703D01*
X037779Y027197D01*
Y027303D01*
X037747Y027335D01*
Y030447D01*
X037847Y030488D01*
X037888Y030447D01*
X037995D01*
X03807Y030523D01*
Y030629D01*
X038038Y030661D01*
Y031549D01*
X038038Y031549D01*
X03801Y031617D01*
X037619Y032008D01*
Y032053D01*
X037543Y032129D01*
D02*
G37*
G36*
X033161Y031445D02*
X032859D01*
X032645Y031231D01*
Y030929D01*
X032859Y030715D01*
X033161D01*
X033375Y030929D01*
Y031231D01*
X033161Y031445D01*
D02*
G37*
G36*
X032375D02*
X031645D01*
Y030715D01*
X032375D01*
Y031445D01*
D02*
G37*
G36*
X044628Y030668D02*
X044472D01*
X044393Y030588D01*
X04123D01*
X04123Y030588D01*
X041153Y030557D01*
X041153Y030557D01*
X040726Y030129D01*
X040697D01*
X040621Y030053D01*
Y029947D01*
X040697Y029871D01*
X040803D01*
X040879Y029947D01*
Y029976D01*
X041275Y030372D01*
X044393D01*
X044472Y030292D01*
X044538D01*
X044542Y030289D01*
Y025858D01*
X044502D01*
X044392Y025748D01*
Y025592D01*
X044502Y025482D01*
X044658D01*
X044768Y025592D01*
Y025748D01*
X044749Y025766D01*
X044758Y025788D01*
X044758Y025788D01*
Y030334D01*
X044732Y030397D01*
X044738Y030402D01*
Y030558D01*
X044628Y030668D01*
D02*
G37*
G36*
X048899Y029738D02*
X04885D01*
Y02955D01*
X049038D01*
Y029599D01*
X048899Y029738D01*
D02*
G37*
G36*
X04875D02*
X048702D01*
X048562Y029599D01*
Y02955D01*
X04875D01*
Y029738D01*
D02*
G37*
G36*
X032019Y029568D02*
X031971D01*
Y02938D01*
X032159D01*
Y029429D01*
X032019Y029568D01*
D02*
G37*
G36*
X031871D02*
X031822D01*
X031683Y029429D01*
Y02938D01*
X031871D01*
Y029568D01*
D02*
G37*
G36*
X049038Y02945D02*
X04885D01*
Y029262D01*
X048899D01*
X049038Y029402D01*
Y02945D01*
D02*
G37*
G36*
X04875D02*
X048562D01*
Y029402D01*
X048702Y029262D01*
X04875D01*
Y02945D01*
D02*
G37*
G36*
X032159Y02928D02*
X031971D01*
Y029092D01*
X032019D01*
X032159Y029232D01*
Y02928D01*
D02*
G37*
G36*
X031871D02*
X031683D01*
Y029232D01*
X031822Y029092D01*
X031871D01*
Y02928D01*
D02*
G37*
G36*
X046509Y028634D02*
X046291D01*
X046137Y02848D01*
Y028262D01*
X046291Y028109D01*
X046509D01*
X046663Y028262D01*
Y02848D01*
X046509Y028634D01*
D02*
G37*
G36*
X032222Y027965D02*
X0321D01*
Y0276D01*
X032465D01*
Y027722D01*
X032222Y027965D01*
D02*
G37*
G36*
X032D02*
X031878D01*
X031635Y027722D01*
Y0276D01*
X032D01*
Y027965D01*
D02*
G37*
G36*
X034201Y027915D02*
X033899D01*
X033685Y027701D01*
Y027399D01*
X033899Y027185D01*
X034201D01*
X034415Y027399D01*
Y027701D01*
X034201Y027915D01*
D02*
G37*
G36*
X032465Y0275D02*
X0321D01*
Y027135D01*
X032222D01*
X032465Y027378D01*
Y0275D01*
D02*
G37*
G36*
X032D02*
X031635D01*
Y027378D01*
X031878Y027135D01*
X032D01*
Y0275D01*
D02*
G37*
G36*
X046509Y026713D02*
X046291D01*
X046137Y026559D01*
Y026341D01*
X046291Y026187D01*
X046509D01*
X046663Y026341D01*
Y026559D01*
X046509Y026713D01*
D02*
G37*
G36*
X026803Y032079D02*
X026697D01*
X026621Y032003D01*
Y031958D01*
X026032Y031368D01*
X026003Y0313D01*
X026003Y0313D01*
Y026185D01*
X025971Y026153D01*
Y026047D01*
X026047Y025971D01*
X026153D01*
X026229Y026047D01*
Y026153D01*
X026197Y026185D01*
Y03126D01*
X026758Y031821D01*
X026803D01*
X026879Y031897D01*
Y032003D01*
X026803Y032079D01*
D02*
G37*
G36*
X033201Y027915D02*
X032899D01*
X032685Y027701D01*
Y027399D01*
X032899Y027185D01*
X032953D01*
Y0263D01*
X032953Y0263D01*
X032982Y026232D01*
X034212Y025002D01*
X034212Y025002D01*
X03428Y024973D01*
X03428Y024973D01*
X038785D01*
X038817Y024941D01*
X038923D01*
X038999Y025017D01*
Y025123D01*
X038923Y025199D01*
X038817D01*
X038785Y025167D01*
X03432D01*
X033147Y02634D01*
Y027185D01*
X033201D01*
X033415Y027399D01*
Y027701D01*
X033201Y027915D01*
D02*
G37*
G36*
X040753Y034909D02*
X040647D01*
X040571Y034833D01*
Y034788D01*
X040042Y034258D01*
X040013Y03419D01*
X040013Y03419D01*
Y02538D01*
X040013Y02538D01*
X040042Y025312D01*
X040372Y024982D01*
X040372Y024982D01*
X04044Y024953D01*
X041865D01*
X041897Y024921D01*
X042003D01*
X042079Y024997D01*
Y025103D01*
X042003Y025179D01*
X041897D01*
X041865Y025147D01*
X04048D01*
X040207Y02542D01*
Y03415D01*
X040708Y034651D01*
X040753D01*
X040829Y034727D01*
Y034833D01*
X040753Y034909D01*
D02*
G37*
G36*
X039623Y033379D02*
X039517D01*
X039441Y033303D01*
Y033197D01*
X039473Y033165D01*
Y02477D01*
X039473Y02477D01*
X039502Y024702D01*
X039531Y024672D01*
Y024627D01*
X039561Y024597D01*
X03952Y024497D01*
X03333D01*
X03333Y024497D01*
X033262Y024468D01*
X033262Y024468D01*
X032832Y024038D01*
X032803Y02397D01*
X032803Y02397D01*
Y023115D01*
X032799D01*
X032585Y022901D01*
Y022599D01*
X032799Y022385D01*
X033101D01*
X033315Y022599D01*
Y022901D01*
X033101Y023115D01*
X032997D01*
Y02393D01*
X03337Y024303D01*
X04128D01*
X04128Y024303D01*
X041348Y024332D01*
X041438Y024421D01*
X041483D01*
X041559Y024497D01*
Y024603D01*
X041483Y024679D01*
X041377D01*
X041301Y024603D01*
Y024558D01*
X04124Y024497D01*
X0398D01*
X039759Y024597D01*
X039789Y024627D01*
Y024733D01*
X039713Y024809D01*
X039668D01*
X039667Y02481D01*
Y033165D01*
X039699Y033197D01*
Y033303D01*
X039623Y033379D01*
D02*
G37*
G36*
X040583Y023849D02*
X040477D01*
X040462Y023834D01*
X040454Y023837D01*
X040454Y023837D01*
X03424D01*
X03424Y023837D01*
X034172Y023808D01*
X034172Y023808D01*
X033832Y023468D01*
X033803Y0234D01*
X033803Y0234D01*
Y023115D01*
X033799D01*
X033585Y022901D01*
Y022599D01*
X033799Y022385D01*
X034101D01*
X034315Y022599D01*
Y022901D01*
X034101Y023115D01*
X033997D01*
Y02336D01*
X03428Y023643D01*
X040425D01*
X040477Y023591D01*
X040583D01*
X040659Y023667D01*
Y023773D01*
X040583Y023849D01*
D02*
G37*
G36*
X044598Y024008D02*
X04455D01*
Y02382D01*
X044738D01*
Y023869D01*
X044598Y024008D01*
D02*
G37*
G36*
X04445D02*
X044401D01*
X044262Y023869D01*
Y02382D01*
X04445D01*
Y024008D01*
D02*
G37*
G36*
X043049Y023987D02*
X043D01*
Y0238D01*
X043188D01*
Y023848D01*
X043049Y023987D01*
D02*
G37*
G36*
X0429D02*
X042852D01*
X042712Y023848D01*
Y0238D01*
X0429D01*
Y023987D01*
D02*
G37*
G36*
X044738Y02372D02*
X04455D01*
Y023532D01*
X044598D01*
X044738Y023672D01*
Y02372D01*
D02*
G37*
G36*
X04445D02*
X044262D01*
Y023672D01*
X044401Y023532D01*
X04445D01*
Y02372D01*
D02*
G37*
G36*
X043188Y0237D02*
X043D01*
Y023512D01*
X043049D01*
X043188Y023651D01*
Y0237D01*
D02*
G37*
G36*
X0429D02*
X042712D01*
Y023651D01*
X042852Y023512D01*
X0429D01*
Y0237D01*
D02*
G37*
G36*
X036365Y023165D02*
X036D01*
Y0228D01*
X036365D01*
Y023165D01*
D02*
G37*
G36*
X0359D02*
X035535D01*
Y0228D01*
X0359D01*
Y023165D01*
D02*
G37*
G36*
X036365Y0227D02*
X036D01*
Y022335D01*
X036365D01*
Y0227D01*
D02*
G37*
G36*
X0359D02*
X035535D01*
Y022335D01*
X0359D01*
Y0227D01*
D02*
G37*
G36*
X050919Y022983D02*
X049981D01*
X049317Y022319D01*
Y021381D01*
X049981Y020717D01*
X050919D01*
X051583Y021381D01*
Y022319D01*
X050919Y022983D01*
D02*
G37*
G36*
X021419D02*
X020481D01*
X019817Y022319D01*
Y021381D01*
X020481Y020717D01*
X021419D01*
X022083Y021381D01*
Y022319D01*
X021419Y022983D01*
D02*
G37*
G36*
X040903Y031529D02*
X040797D01*
X040721Y031453D01*
Y031347D01*
X040797Y031271D01*
X040903D01*
X040935Y031303D01*
X04441D01*
X044893Y03082D01*
Y027675D01*
X044861Y027643D01*
Y027537D01*
X044937Y027461D01*
X045043D01*
X045046Y027463D01*
X045146Y027422D01*
Y022232D01*
X04486Y021947D01*
X0405D01*
X0405Y021947D01*
X040432Y021918D01*
X040432Y021918D01*
X039982Y021468D01*
X039953Y0214D01*
X039953Y0214D01*
Y01954D01*
X03961Y019197D01*
X03869D01*
X037118Y020768D01*
X03705Y020797D01*
X03705Y020797D01*
X035765D01*
X035743Y020819D01*
X035637D01*
X035561Y020743D01*
Y020637D01*
X035637Y020561D01*
X035743D01*
X035785Y020603D01*
X03701D01*
X038582Y019032D01*
X038582Y019032D01*
X03865Y019003D01*
X038619Y018911D01*
X03815D01*
X037588Y019473D01*
Y019512D01*
X037478Y019622D01*
X037322D01*
X037295Y019595D01*
X035411D01*
Y02105D01*
X035411Y02105D01*
X035364Y021164D01*
X035364Y021164D01*
X035111Y021417D01*
Y022395D01*
X035315Y022599D01*
Y022901D01*
X035101Y023115D01*
X034799D01*
X034585Y022901D01*
Y022599D01*
X034789Y022395D01*
Y02135D01*
X034789Y02135D01*
X034836Y021236D01*
X035089Y020983D01*
Y019661D01*
X033011D01*
Y02025D01*
X033011Y02025D01*
X032964Y020364D01*
X032964Y020364D01*
X028932Y024395D01*
X028961Y024465D01*
X028961Y024465D01*
Y025145D01*
X028988Y025172D01*
Y025328D01*
X028878Y025438D01*
X028722D01*
X028612Y025328D01*
Y025172D01*
X028639Y025145D01*
Y024532D01*
X028618Y024511D01*
X026497D01*
X025761Y025247D01*
Y027323D01*
X025761Y027323D01*
X025714Y027437D01*
X025714Y027437D01*
X025598Y027552D01*
X025485Y027599D01*
X025485Y027599D01*
X024605D01*
X024578Y027626D01*
X024422D01*
X024312Y027516D01*
Y027361D01*
X024422Y027251D01*
X024578D01*
X024605Y027278D01*
X025418D01*
X025439Y027257D01*
Y02518D01*
X025439Y02518D01*
X025486Y025066D01*
X026316Y024236D01*
X026316Y024236D01*
X02643Y024189D01*
X028683D01*
X032689Y020183D01*
Y019605D01*
X032662Y019578D01*
Y019422D01*
X032772Y019312D01*
X032928D01*
X032955Y019339D01*
X035089D01*
Y014467D01*
X034465Y013842D01*
X034365Y013884D01*
Y013965D01*
X033635D01*
Y013235D01*
X034365D01*
Y013489D01*
X0345D01*
X0345Y013489D01*
X034614Y013536D01*
X035364Y014286D01*
X035364Y014286D01*
X035411Y0144D01*
X035411Y0144D01*
Y019273D01*
X037295D01*
X037322Y019246D01*
X037361D01*
X03797Y018636D01*
X03797Y018636D01*
X038084Y018589D01*
X038084Y018589D01*
X039779D01*
X039779Y018589D01*
X039892Y018636D01*
X040668Y019412D01*
X040728D01*
X040755Y019439D01*
X043145D01*
X043172Y019412D01*
X043328D01*
X043438Y019522D01*
Y019678D01*
X043328Y019788D01*
X043172D01*
X043145Y019761D01*
X040755D01*
X040728Y019788D01*
X040572D01*
X040462Y019678D01*
Y019661D01*
X040222Y019421D01*
X040137Y019477D01*
X040147Y0195D01*
Y02136D01*
X04054Y021753D01*
X042435D01*
X042471Y021653D01*
X042421Y021603D01*
Y021497D01*
X042497Y021421D01*
X042603D01*
X042635Y021453D01*
X04674D01*
X048103Y02009D01*
Y01689D01*
X04719Y015976D01*
X047151Y016015D01*
X046849D01*
X046635Y015801D01*
Y015499D01*
X046849Y015285D01*
X047151D01*
X047365Y015499D01*
Y015801D01*
X047326Y01584D01*
X048268Y016782D01*
X048268Y016782D01*
X048297Y01685D01*
X048297Y01685D01*
Y02013D01*
X048268Y020198D01*
X048268Y020198D01*
X046848Y021618D01*
X04678Y021647D01*
X04678Y021647D01*
X042733D01*
X042728Y021653D01*
X04278Y021753D01*
X0449D01*
X0449Y021753D01*
X044968Y021782D01*
X045311Y022124D01*
X045311Y022124D01*
X045339Y022192D01*
X045339Y022192D01*
Y028965D01*
X045371Y028997D01*
Y029104D01*
X045296Y029179D01*
X045189D01*
X045187Y029177D01*
X045087Y029219D01*
Y029535D01*
X045187Y029576D01*
X045212Y029551D01*
X045319D01*
X045351Y029583D01*
X04785D01*
X048353Y02908D01*
Y020635D01*
X048311Y020593D01*
Y020487D01*
X048387Y020411D01*
X048493D01*
X048569Y020487D01*
Y020593D01*
X048547Y020615D01*
Y02912D01*
X048518Y029188D01*
X048518Y029188D01*
X047959Y029748D01*
X04789Y029776D01*
X04789Y029776D01*
X045351D01*
X045319Y029808D01*
X045212D01*
X045187Y029783D01*
X045087Y029824D01*
Y03086D01*
X045058Y030928D01*
X045058Y030928D01*
X044518Y031468D01*
X04445Y031497D01*
X04445Y031497D01*
X040935D01*
X040903Y031529D01*
D02*
G37*
G36*
X038593Y021889D02*
X038487D01*
X038411Y021813D01*
Y021707D01*
X038487Y021631D01*
X038532D01*
X038543Y02162D01*
Y019905D01*
X038511Y019873D01*
Y019767D01*
X038587Y019691D01*
X038693D01*
X038769Y019767D01*
Y019873D01*
X038737Y019905D01*
Y02166D01*
X038708Y021728D01*
X038708Y021728D01*
X038669Y021768D01*
Y021813D01*
X038593Y021889D01*
D02*
G37*
G36*
X039448Y019837D02*
X0394D01*
Y01965D01*
X039588D01*
Y019698D01*
X039448Y019837D01*
D02*
G37*
G36*
X0393D02*
X039251D01*
X039112Y019698D01*
Y01965D01*
X0393D01*
Y019837D01*
D02*
G37*
G36*
X047199Y019788D02*
X04715D01*
Y0196D01*
X047338D01*
Y019648D01*
X047199Y019788D01*
D02*
G37*
G36*
X04705D02*
X047002D01*
X046862Y019648D01*
Y0196D01*
X04705D01*
Y019788D01*
D02*
G37*
G36*
X039588Y01955D02*
X0394D01*
Y019362D01*
X039448D01*
X039588Y019501D01*
Y01955D01*
D02*
G37*
G36*
X0393D02*
X039112D01*
Y019501D01*
X039251Y019362D01*
X0393D01*
Y01955D01*
D02*
G37*
G36*
X047338Y0195D02*
X04715D01*
Y019312D01*
X047199D01*
X047338Y019452D01*
Y0195D01*
D02*
G37*
G36*
X04705D02*
X046862D01*
Y019452D01*
X047002Y019312D01*
X04705D01*
Y0195D01*
D02*
G37*
G36*
X043299Y018488D02*
X04325D01*
Y0183D01*
X043438D01*
Y018348D01*
X043299Y018488D01*
D02*
G37*
G36*
X04315D02*
X043102D01*
X042962Y018348D01*
Y0183D01*
X04315D01*
Y018488D01*
D02*
G37*
G36*
X040749D02*
X0407D01*
Y0183D01*
X040888D01*
Y018348D01*
X040749Y018488D01*
D02*
G37*
G36*
X0406D02*
X040552D01*
X040412Y018348D01*
Y0183D01*
X0406D01*
Y018488D01*
D02*
G37*
G36*
X043438Y0182D02*
X04325D01*
Y018012D01*
X043299D01*
X043438Y018152D01*
Y0182D01*
D02*
G37*
G36*
X04315D02*
X042962D01*
Y018152D01*
X043102Y018012D01*
X04315D01*
Y0182D01*
D02*
G37*
G36*
X040888D02*
X0407D01*
Y018012D01*
X040749D01*
X040888Y018152D01*
Y0182D01*
D02*
G37*
G36*
X0406D02*
X040412D01*
Y018152D01*
X040552Y018012D01*
X0406D01*
Y0182D01*
D02*
G37*
G36*
X02545Y01845D02*
X02375D01*
Y018274D01*
X023311D01*
X022972Y018133D01*
X02251Y017672D01*
X02237Y017332D01*
Y01405D01*
X02251Y01371D01*
X02386Y01236D01*
X0242Y01222D01*
X030189D01*
X030528Y01236D01*
X031072Y012904D01*
X031212Y013243D01*
Y013861D01*
X03122Y01388D01*
X031192Y013949D01*
Y014332D01*
X030809D01*
X03074Y01436D01*
X030671Y014332D01*
X030288D01*
Y014075D01*
X030188Y01407D01*
X029947Y014312D01*
Y01756D01*
X03014Y017753D01*
X030565D01*
X030597Y017721D01*
X030703D01*
X030779Y017797D01*
Y017903D01*
X030703Y017979D01*
X030597D01*
X030565Y017947D01*
X0301D01*
X030032Y017918D01*
X030032Y017918D01*
X02985Y017737D01*
X029668Y017918D01*
X0296Y017947D01*
X0296Y017947D01*
X029185D01*
X029153Y017979D01*
X029047D01*
X028971Y017903D01*
Y017797D01*
X029047Y017721D01*
X029153D01*
X029185Y017753D01*
X02956D01*
X029753Y01756D01*
Y014332D01*
X029553D01*
X029332Y014111D01*
X029253Y014091D01*
X02921Y014119D01*
X028948Y014382D01*
X02879D01*
Y01388D01*
Y013378D01*
X028948D01*
X02921Y013641D01*
X029253Y013669D01*
X029332Y013649D01*
X029553Y013428D01*
X029927D01*
X030152Y013653D01*
X030252Y013612D01*
Y013442D01*
X02999Y01318D01*
X024399D01*
X02333Y014249D01*
Y017134D01*
X02351Y017313D01*
X024494D01*
X024582Y01735D01*
X02545D01*
Y01845D01*
D02*
G37*
G36*
X0272Y0178D02*
X02665D01*
Y01695D01*
X0272D01*
Y0178D01*
D02*
G37*
G36*
X02655D02*
X026D01*
Y01695D01*
X02655D01*
Y0178D01*
D02*
G37*
G36*
X034172Y017015D02*
X03405D01*
Y01665D01*
X034415D01*
Y016772D01*
X034172Y017015D01*
D02*
G37*
G36*
X03395D02*
X033828D01*
X033585Y016772D01*
Y01665D01*
X03395D01*
Y017015D01*
D02*
G37*
G36*
X037651Y016965D02*
X037349D01*
X037135Y016751D01*
Y016449D01*
X037349Y016235D01*
X037651D01*
X037865Y016449D01*
Y016751D01*
X037651Y016965D01*
D02*
G37*
G36*
X034415Y01655D02*
X03405D01*
Y016185D01*
X034172D01*
X034415Y016428D01*
Y01655D01*
D02*
G37*
G36*
X03395D02*
X033585D01*
Y016428D01*
X033828Y016185D01*
X03395D01*
Y01655D01*
D02*
G37*
G36*
X0272Y01685D02*
X02665D01*
Y016D01*
X0272D01*
Y01685D01*
D02*
G37*
G36*
X02655D02*
X026D01*
Y016D01*
X02655D01*
Y01685D01*
D02*
G37*
G36*
X0255Y016D02*
X02465D01*
Y01545D01*
X0255D01*
Y016D01*
D02*
G37*
G36*
X02455D02*
X0237D01*
Y01545D01*
X02455D01*
Y016D01*
D02*
G37*
G36*
X044001Y016015D02*
X043699D01*
X043485Y015801D01*
Y015499D01*
X043699Y015285D01*
X044001D01*
X044215Y015499D01*
Y015801D01*
X044001Y016015D01*
D02*
G37*
G36*
X040751D02*
X040449D01*
X040235Y015801D01*
Y015499D01*
X040449Y015285D01*
X040751D01*
X040965Y015499D01*
Y015801D01*
X040751Y016015D01*
D02*
G37*
G36*
X037651Y015965D02*
X037349D01*
X037135Y015751D01*
Y015449D01*
X037349Y015235D01*
X037651D01*
X037865Y015449D01*
Y015751D01*
X037651Y015965D01*
D02*
G37*
G36*
X031133Y020509D02*
X031027D01*
X030951Y020433D01*
Y020327D01*
X030983Y020295D01*
Y01634D01*
X030983Y01634D01*
X031012Y016272D01*
X031752Y015532D01*
X031752Y015532D01*
X03182Y015503D01*
X033635D01*
Y015449D01*
X033849Y015235D01*
X034151D01*
X034365Y015449D01*
Y015751D01*
X034151Y015965D01*
X033849D01*
X033635Y015751D01*
Y015697D01*
X03186D01*
X031177Y01638D01*
Y020295D01*
X031209Y020327D01*
Y020433D01*
X031133Y020509D01*
D02*
G37*
G36*
X0255Y01535D02*
X02465D01*
Y0148D01*
X0255D01*
Y01535D01*
D02*
G37*
G36*
X02455D02*
X0237D01*
Y0148D01*
X02455D01*
Y01535D01*
D02*
G37*
G36*
X031813Y020869D02*
X031707D01*
X031631Y020793D01*
Y020687D01*
X031663Y020655D01*
Y0187D01*
X031663Y0187D01*
X031692Y018632D01*
X032092Y018232D01*
X032092Y018232D01*
X03216Y018203D01*
X03436D01*
X034603Y01796D01*
Y01484D01*
X034465Y014702D01*
X034365Y014709D01*
Y014751D01*
X034151Y014965D01*
X033849D01*
X033635Y014751D01*
Y014449D01*
X033849Y014235D01*
X034151D01*
X034365Y014449D01*
Y014503D01*
X0345D01*
X0345Y014503D01*
X034568Y014532D01*
X034768Y014732D01*
X034768Y014732D01*
X034797Y0148D01*
X034797Y0148D01*
Y018D01*
X034797Y018D01*
X034768Y018068D01*
X034468Y018368D01*
X0344Y018397D01*
X0344Y018397D01*
X0322D01*
X031857Y01874D01*
Y020655D01*
X031889Y020687D01*
Y020793D01*
X031813Y020869D01*
D02*
G37*
G36*
X047151Y015015D02*
X046849D01*
X046635Y014801D01*
Y014499D01*
X046849Y014285D01*
X047151D01*
X047365Y014499D01*
Y014801D01*
X047151Y015015D01*
D02*
G37*
G36*
X044001D02*
X043699D01*
X043485Y014801D01*
Y014499D01*
X043699Y014285D01*
X044001D01*
X044215Y014499D01*
Y014801D01*
X044001Y015015D01*
D02*
G37*
G36*
X040751D02*
X040449D01*
X040235Y014801D01*
Y014499D01*
X040449Y014285D01*
X040751D01*
X040965Y014499D01*
Y014801D01*
X040751Y015015D01*
D02*
G37*
G36*
X037651Y014965D02*
X037349D01*
X037135Y014751D01*
Y014449D01*
X037349Y014235D01*
X037651D01*
X037865Y014449D01*
Y014751D01*
X037651Y014965D01*
D02*
G37*
G36*
X02869Y014382D02*
X028532D01*
X028238Y014088D01*
Y01393D01*
X02869D01*
Y014382D01*
D02*
G37*
G36*
X047415Y014065D02*
X04705D01*
Y0137D01*
X047415D01*
Y014065D01*
D02*
G37*
G36*
X04695D02*
X046585D01*
Y0137D01*
X04695D01*
Y014065D01*
D02*
G37*
G36*
X044265D02*
X0439D01*
Y0137D01*
X044265D01*
Y014065D01*
D02*
G37*
G36*
X041015D02*
X04065D01*
Y0137D01*
X041015D01*
Y014065D01*
D02*
G37*
G36*
X0438D02*
X043435D01*
Y0137D01*
X0438D01*
Y014065D01*
D02*
G37*
G36*
X04055D02*
X040185D01*
Y0137D01*
X04055D01*
Y014065D01*
D02*
G37*
G36*
X037915Y014015D02*
X03755D01*
Y01365D01*
X037915D01*
Y014015D01*
D02*
G37*
G36*
X03745D02*
X037085D01*
Y01365D01*
X03745D01*
Y014015D01*
D02*
G37*
G36*
X02869Y01383D02*
X028238D01*
Y013672D01*
X028532Y013378D01*
X02869D01*
Y01383D01*
D02*
G37*
G36*
X047415Y0136D02*
X04705D01*
Y013235D01*
X047415D01*
Y0136D01*
D02*
G37*
G36*
X04695D02*
X046585D01*
Y013235D01*
X04695D01*
Y0136D01*
D02*
G37*
G36*
X044265Y0136D02*
X0439D01*
Y013235D01*
X044265D01*
Y0136D01*
D02*
G37*
G36*
X0438D02*
X043435D01*
Y013235D01*
X0438D01*
Y0136D01*
D02*
G37*
G36*
X041015D02*
X04065D01*
Y013235D01*
X041015D01*
Y0136D01*
D02*
G37*
G36*
X04055D02*
X040185D01*
Y013235D01*
X04055D01*
Y0136D01*
D02*
G37*
G36*
X037915Y01355D02*
X03755D01*
Y013185D01*
X037915D01*
Y01355D01*
D02*
G37*
G36*
X03745D02*
X037085D01*
Y013185D01*
X03745D01*
Y01355D01*
D02*
G37*
G36*
X020159Y015593D02*
X019591D01*
X019066Y015376D01*
X018665Y014974D01*
X018447Y014449D01*
Y013881D01*
X018665Y013356D01*
X019066Y012955D01*
X019591Y012737D01*
X019943D01*
X019964Y012717D01*
X020087D01*
X020107Y012737D01*
X020159D01*
X020684Y012955D01*
X020804Y013074D01*
X02085D01*
X020937Y013161D01*
Y013208D01*
X021086Y013356D01*
X021303Y013881D01*
Y014449D01*
X021086Y014974D01*
X020684Y015376D01*
X020159Y015593D01*
D02*
G37*
%LPD*%
D12*
X0317Y022441D02*
X03176Y022381D01*
X03125Y0248D02*
X0317Y02435D01*
Y022441D02*
Y02435D01*
X03176Y02236D02*
Y022381D01*
X037941Y030576D02*
Y031549D01*
X03749Y032D02*
X037941Y031549D01*
X03854Y02176D02*
X03864Y02166D01*
Y01982D02*
Y02166D01*
X04499Y02759D02*
Y03086D01*
X04445Y0314D02*
X04499Y03086D01*
X0329Y02397D02*
X03333Y0244D01*
X04128D02*
X04143Y02455D01*
X03333Y0244D02*
X04128D01*
X03065Y02485D02*
X03127Y02423D01*
Y02241D02*
Y02423D01*
X03108Y01634D02*
X03182Y0156D01*
X03108Y01634D02*
Y02038D01*
X02974Y01388D02*
X02985Y01399D01*
Y0176D01*
X04255Y02155D02*
X04678D01*
X0482Y01685D02*
Y02013D01*
X04678Y02155D02*
X0482Y02013D01*
X03428Y02507D02*
X03887D01*
X03305Y0263D02*
X03428Y02507D01*
X03957Y02477D02*
X03966Y02468D01*
X03957Y02477D02*
Y03325D01*
X03569Y02069D02*
X0357Y0207D01*
X03705D01*
X04844Y02054D02*
X04845Y02055D01*
Y02912D01*
X04789Y02968D02*
X04845Y02912D01*
X045266Y02968D02*
X04789D01*
X040515Y023735D02*
X04053Y02372D01*
X040454Y02374D02*
X040459Y023735D01*
X040515D01*
X03424Y02374D02*
X040454D01*
X0329Y0225D02*
Y02397D01*
X03182Y0156D02*
X034D01*
X03176Y0187D02*
Y02074D01*
X03216Y0183D02*
X0344D01*
X03176Y0187D02*
X03216Y0183D01*
X0344D02*
X0347Y018D01*
Y0148D02*
Y018D01*
X0345Y0146D02*
X0347Y0148D01*
X0405Y02185D02*
X0449D01*
X045242Y022192D02*
Y029051D01*
X0449Y02185D02*
X045242Y022192D01*
X0339Y0225D02*
Y0234D01*
X04011Y02538D02*
Y03419D01*
X04044Y02505D02*
X04195D01*
X04011Y02538D02*
X04044Y02505D01*
X0339Y0234D02*
X03424Y02374D01*
X04085Y0314D02*
X04445D01*
X04011Y03419D02*
X0407Y03478D01*
X03698Y03192D02*
X03765Y03125D01*
Y02725D02*
Y03125D01*
X03125Y0248D02*
Y032D01*
X03065Y02485D02*
Y0326D01*
X0296Y01785D02*
X02985Y0176D01*
X0291Y01785D02*
X0296D01*
X02985Y0176D02*
X0301Y01785D01*
X03065D01*
X03125Y032D02*
X0318Y03255D01*
X034Y0146D02*
X0345D01*
X03065Y0326D02*
X03095Y0329D01*
X0318Y03255D02*
X0384D01*
X03095Y0329D02*
X0382D01*
X03305Y0263D02*
Y02755D01*
X03965Y0191D02*
X04005Y0195D01*
X03865Y0191D02*
X03965D01*
X04005Y0195D02*
Y0214D01*
X0405Y02185D01*
X03705Y0207D02*
X03865Y0191D01*
X047Y01565D02*
X0482Y01685D01*
X0261Y0313D02*
X02675Y03195D01*
X0261Y0261D02*
Y0313D01*
D20*
X04455Y030434D02*
Y03048D01*
X04458Y025718D02*
X04465Y025788D01*
X04458Y02567D02*
Y025718D01*
X04465Y025788D02*
Y030334D01*
X04455Y030434D02*
X04465Y030334D01*
X04075Y03D02*
X04123Y03048D01*
X04455D01*
X04296Y02376D02*
X04449D01*
X04295Y02375D02*
X04296Y02376D01*
X04449D02*
X0445Y02377D01*
X04125Y02375D02*
X04295D01*
X03935Y02185D02*
X04125Y02375D01*
X03935Y0196D02*
Y02185D01*
D84*
X04065Y01825D02*
X0473D01*
X04065Y0176D02*
Y01825D01*
X0488Y0295D02*
Y03015D01*
X04695Y032D02*
X0488Y03015D01*
X04695Y032D02*
Y03605D01*
X04115Y032D02*
X04695D01*
X0373Y01355D02*
X03945D01*
X03505Y02755D02*
X03513Y02763D01*
Y02868D01*
X03438Y02943D02*
X03513Y02868D01*
X03322Y02943D02*
X03438D01*
X031921Y029309D02*
X03205Y029179D01*
Y02755D02*
Y029179D01*
X031921Y029309D02*
Y02933D01*
X040629Y0196D02*
X04325D01*
X02643Y02435D02*
X028685D01*
X0256Y02518D02*
X02643Y02435D01*
X0256Y02518D02*
Y027323D01*
X0288Y024465D02*
Y02525D01*
X03285Y0195D02*
Y02025D01*
X028717Y024383D02*
X03285Y02025D01*
X0366Y0369D02*
X03895Y03455D01*
Y0307D02*
Y03455D01*
X03285Y0195D02*
X03525D01*
Y02105D01*
Y0144D02*
Y0195D01*
X035316Y019434D01*
X0374D01*
X03495Y02135D02*
Y02275D01*
Y02135D02*
X03525Y02105D01*
X0345Y01365D02*
X03525Y0144D01*
X03505Y02635D02*
Y02755D01*
X03895Y02616D02*
Y0307D01*
X039779Y01875D02*
X040629Y0196D01*
X038084Y01875D02*
X039779D01*
X0374Y019434D02*
X038084Y01875D01*
X03545Y02595D02*
X0387D01*
X03505Y02635D02*
X03545Y02595D01*
X0471Y01955D02*
X047585D01*
X0477Y019435D01*
Y01865D02*
Y019435D01*
X0473Y01825D02*
X0477Y01865D01*
X034Y0136D02*
X03405Y01365D01*
X0345D01*
X03945Y01355D02*
X0405D01*
X0394Y0136D02*
X03945Y01355D01*
X0394Y0136D02*
Y01635D01*
X04065Y0176D01*
X025485Y027439D02*
X0256Y027323D01*
X0245Y027439D02*
X025485D01*
X028685Y02435D02*
X0288Y024465D01*
X0287Y03215D02*
X0293D01*
X02955Y0324D01*
X038737Y025947D02*
X03895Y02616D01*
X037745Y0375D02*
X037895Y03735D01*
X03533Y03805D02*
X03588Y0375D01*
X037895Y03735D02*
X0379D01*
X03588Y0375D02*
X037745D01*
X03405Y03685D02*
X03655D01*
X0366Y0369D01*
X0302Y03685D02*
X03405D01*
X03155Y0381D02*
Y0386D01*
X0313Y03885D02*
X03155Y0386D01*
X02975Y03885D02*
X0313D01*
X0293Y0384D02*
X02975Y03885D01*
X0293Y03615D02*
Y0384D01*
Y03615D02*
X02955Y0359D01*
Y0324D02*
Y0359D01*
X04565Y03655D02*
X04645D01*
X04695Y03605D01*
X04385Y01365D02*
X047D01*
X0406D02*
X04385D01*
X0405Y01355D02*
X0406Y01365D01*
D85*
X030732Y013872D02*
X03074Y01388D01*
X030732Y013243D02*
Y013872D01*
X030189Y0127D02*
X030732Y013243D01*
X0242Y0127D02*
X030189D01*
X02285Y01405D02*
X0242Y0127D01*
X023311Y017794D02*
X024494D01*
X02285Y017332D02*
X023311Y017794D01*
X02285Y01405D02*
Y017332D01*
X024494Y017794D02*
X0246Y0179D01*
D86*
X01984Y04125D02*
D03*
X019875Y014165D02*
D03*
X054985Y027685D02*
D03*
D87*
X02093Y04131D02*
D03*
X020572Y042073D02*
D03*
X01978Y04236D02*
D03*
X019017Y042002D02*
D03*
X01873Y04121D02*
D03*
X019088Y040447D02*
D03*
X01988Y04016D02*
D03*
X020643Y040518D02*
D03*
X020733Y013438D02*
D03*
X01997Y01308D02*
D03*
X01915Y01334D02*
D03*
X01881Y01415D02*
D03*
X01908Y0149D02*
D03*
X019843Y015258D02*
D03*
X02075Y01486D02*
D03*
X021075Y014015D02*
D03*
X056085Y027735D02*
D03*
X055728Y028499D02*
D03*
X054935Y028785D02*
D03*
X054172Y028428D02*
D03*
X053885Y027635D02*
D03*
X054243Y026872D02*
D03*
X055035Y026585D02*
D03*
X055799Y026943D02*
D03*
D88*
X02874Y01388D02*
D03*
X02974D02*
D03*
D89*
X03074D02*
D03*
D90*
X05045Y02185D02*
D03*
Y03395D02*
D03*
X02095Y02185D02*
D03*
Y03395D02*
D03*
D91*
X03395Y02275D02*
D03*
X03495D02*
D03*
X03295D02*
D03*
X03301Y03108D02*
D03*
X034Y0166D02*
D03*
Y0146D02*
D03*
Y0156D02*
D03*
X03305Y02755D02*
D03*
X03405D02*
D03*
X03205D02*
D03*
X04385Y01565D02*
D03*
Y01465D02*
D03*
X0375Y0166D02*
D03*
Y0146D02*
D03*
Y0156D02*
D03*
X047Y01465D02*
D03*
Y01565D02*
D03*
X0406Y01465D02*
D03*
Y01565D02*
D03*
D92*
X03595Y02275D02*
D03*
X03201Y03108D02*
D03*
X03505Y02755D02*
D03*
D93*
X034Y0136D02*
D03*
X04385Y01365D02*
D03*
X0375Y0136D02*
D03*
X047Y01365D02*
D03*
X0406D02*
D03*
D94*
X0266Y0169D02*
D03*
D95*
X0246Y0154D02*
D03*
Y0179D02*
D03*
D96*
X0464Y028371D02*
D03*
Y02645D02*
D03*
D97*
X037941Y030576D02*
D03*
X03864Y01982D02*
D03*
X04499Y02759D02*
D03*
X04143Y02455D02*
D03*
X03854Y02176D02*
D03*
X03127Y02241D02*
D03*
X03108Y02038D02*
D03*
X03887Y02507D02*
D03*
X03569Y02069D02*
D03*
X04255Y02155D02*
D03*
X04053Y02372D02*
D03*
X03765Y02725D02*
D03*
X04195Y02505D02*
D03*
X0382Y0329D02*
D03*
X04075Y03D02*
D03*
X0384Y03255D02*
D03*
X03957Y03325D02*
D03*
X045266Y02968D02*
D03*
X045242Y029051D02*
D03*
X04844Y02054D02*
D03*
X03176Y02236D02*
D03*
Y02074D02*
D03*
X03966Y02468D02*
D03*
X0407Y03478D02*
D03*
X03749Y032D02*
D03*
X03698Y03192D02*
D03*
X0291Y01785D02*
D03*
X03065D02*
D03*
X0261Y0261D02*
D03*
X02675Y03195D02*
D03*
X04085Y0314D02*
D03*
D98*
X04458Y02567D02*
D03*
X0445Y02377D02*
D03*
X04455Y03048D02*
D03*
X03285Y0195D02*
D03*
X03935Y0196D02*
D03*
X0488Y0295D02*
D03*
X03322Y02943D02*
D03*
X0374Y019434D02*
D03*
X04325Y0196D02*
D03*
X04065D02*
D03*
X0471Y01955D02*
D03*
X0432Y01825D02*
D03*
X04065D02*
D03*
X0288Y02525D02*
D03*
X0245Y027439D02*
D03*
X0287Y03215D02*
D03*
X04115Y032D02*
D03*
X04295Y02375D02*
D03*
X0379Y03735D02*
D03*
X03533Y03805D02*
D03*
X0387Y02595D02*
D03*
X03895Y0307D02*
D03*
X03661Y0368D02*
D03*
X03405Y03685D02*
D03*
X0302D02*
D03*
X03155Y0381D02*
D03*
X04565Y03655D02*
D03*
X031921Y02933D02*
D03*
M02*
