G04*
G04 #@! TF.GenerationSoftware,Altium Limited,Altium Designer,21.3.2 (30)*
G04*
G04 Layer_Color=255*
%FSTAX24Y24*%
%MOIN*%
G70*
G04*
G04 #@! TF.SameCoordinates,09EB0EA2-9561-46F4-B1F3-F0EC52C3B4A3*
G04*
G04*
G04 #@! TF.FilePolarity,Positive*
G04*
G01*
G75*
%ADD25R,0.0669X0.0669*%
%ADD26R,0.0630X0.0591*%
%ADD27R,0.2000X0.0591*%
%ADD28O,0.2000X0.0591*%
G04:AMPARAMS|DCode=29|XSize=48mil|YSize=23.6mil|CornerRadius=5.9mil|HoleSize=0mil|Usage=FLASHONLY|Rotation=270.000|XOffset=0mil|YOffset=0mil|HoleType=Round|Shape=RoundedRectangle|*
%AMROUNDEDRECTD29*
21,1,0.0480,0.0118,0,0,270.0*
21,1,0.0362,0.0236,0,0,270.0*
1,1,0.0118,-0.0059,-0.0181*
1,1,0.0118,-0.0059,0.0181*
1,1,0.0118,0.0059,0.0181*
1,1,0.0118,0.0059,-0.0181*
%
%ADD29ROUNDEDRECTD29*%
%ADD30R,0.0591X0.0630*%
%ADD31R,0.0669X0.0118*%
%ADD32R,0.0118X0.0669*%
%ADD33R,0.0709X0.0669*%
%ADD34R,0.1181X0.0276*%
%ADD35O,0.1181X0.0276*%
%ADD36R,0.0669X0.0669*%
%ADD37R,0.1140X0.2130*%
%ADD38R,0.1378X0.0472*%
%ADD39R,0.0984X0.4134*%
%ADD40R,0.2559X0.3346*%
%ADD41R,0.1299X0.0945*%
%ADD42R,0.0394X0.0945*%
%ADD43R,0.0610X0.0886*%
%ADD44R,0.0650X0.0600*%
%ADD45R,0.0315X0.0472*%
%ADD46R,0.1102X0.0433*%
%ADD47R,0.1024X0.0433*%
%ADD86C,0.2756*%
%ADD87C,0.0197*%
%ADD88C,0.0803*%
%ADD89R,0.0803X0.0803*%
%ADD90C,0.2165*%
%ADD91C,0.0630*%
%ADD92R,0.0630X0.0630*%
%ADD93R,0.0630X0.0630*%
%ADD94R,0.1000X0.1600*%
%ADD95R,0.1600X0.1000*%
%ADD96C,0.0425*%
D25*
X0471Y0196D02*
D03*
Y0183D02*
D03*
X04466Y019619D02*
D03*
Y01832D02*
D03*
X0287Y03015D02*
D03*
Y02885D02*
D03*
X03005Y0269D02*
D03*
Y0256D02*
D03*
X03935Y0183D02*
D03*
Y0196D02*
D03*
X040642D02*
D03*
Y0183D02*
D03*
X0432D02*
D03*
Y0196D02*
D03*
X03277Y03675D02*
D03*
Y03805D02*
D03*
X03155Y036801D02*
D03*
Y0381D02*
D03*
X04295Y02245D02*
D03*
Y02375D02*
D03*
X03533Y03805D02*
D03*
Y03675D02*
D03*
X03795Y041699D02*
D03*
Y0404D02*
D03*
X0379Y03865D02*
D03*
Y037351D02*
D03*
X0488Y02825D02*
D03*
Y02955D02*
D03*
X04883Y02642D02*
D03*
Y02512D02*
D03*
D26*
X0459Y019601D02*
D03*
Y018419D02*
D03*
X04187Y019621D02*
D03*
Y018439D02*
D03*
X0291Y017841D02*
D03*
X03065Y01785D02*
D03*
Y016669D02*
D03*
X0291Y016659D02*
D03*
X0232Y042291D02*
D03*
Y041109D02*
D03*
X03661Y036859D02*
D03*
Y038041D02*
D03*
X03404Y036899D02*
D03*
Y038081D02*
D03*
X02795Y041109D02*
D03*
Y042291D02*
D03*
X026367Y041109D02*
D03*
Y042291D02*
D03*
X024783Y041109D02*
D03*
Y042291D02*
D03*
X0302Y036899D02*
D03*
Y038081D02*
D03*
X04155Y022599D02*
D03*
Y023781D02*
D03*
D27*
X02365Y0214D02*
D03*
D28*
X0277D02*
D03*
D29*
X030126Y02118D02*
D03*
X029752Y0202D02*
D03*
X0305Y02118D02*
D03*
X029752D02*
D03*
X0305Y0202D02*
D03*
D30*
X030491Y02236D02*
D03*
X029309D02*
D03*
D31*
X04392Y026386D02*
D03*
Y026583D02*
D03*
Y02678D02*
D03*
Y026976D02*
D03*
Y027173D02*
D03*
Y02737D02*
D03*
Y027567D02*
D03*
Y027764D02*
D03*
Y027961D02*
D03*
Y028157D02*
D03*
Y028354D02*
D03*
Y028551D02*
D03*
X040583D02*
D03*
Y028354D02*
D03*
Y028157D02*
D03*
Y027961D02*
D03*
Y027764D02*
D03*
Y027567D02*
D03*
Y02737D02*
D03*
Y027173D02*
D03*
Y026976D02*
D03*
Y02678D02*
D03*
Y026583D02*
D03*
Y026386D02*
D03*
D32*
X043334Y029137D02*
D03*
X043137D02*
D03*
X042941D02*
D03*
X042744D02*
D03*
X042547D02*
D03*
X04235D02*
D03*
X042153D02*
D03*
X041956D02*
D03*
X041759D02*
D03*
X041563D02*
D03*
X041366D02*
D03*
X041169D02*
D03*
Y0258D02*
D03*
X041366D02*
D03*
X041563D02*
D03*
X041759D02*
D03*
X041956D02*
D03*
X042153D02*
D03*
X04235D02*
D03*
X042547D02*
D03*
X042744D02*
D03*
X042941D02*
D03*
X043137D02*
D03*
X043334D02*
D03*
D33*
X029413Y01908D02*
D03*
X030987D02*
D03*
D34*
X01885Y031D02*
D03*
D35*
X02105D02*
D03*
D36*
X03291Y02513D02*
D03*
X03421D02*
D03*
X02928Y02346D02*
D03*
X03058D02*
D03*
X03735Y01945D02*
D03*
X036051D02*
D03*
X0342D02*
D03*
X0329D02*
D03*
X03322Y02933D02*
D03*
X031921D02*
D03*
X0374Y02595D02*
D03*
X0387D02*
D03*
X04572Y03048D02*
D03*
X04702D02*
D03*
X039001Y0307D02*
D03*
X0403D02*
D03*
D37*
X02305Y0319D02*
D03*
X02695D02*
D03*
D38*
X0244Y025431D02*
D03*
Y0261D02*
D03*
Y026769D02*
D03*
Y027439D02*
D03*
Y028108D02*
D03*
D39*
X018878Y026769D02*
D03*
D40*
X020158D02*
D03*
D41*
X02785Y027542D02*
D03*
D42*
X028756Y025258D02*
D03*
X02785D02*
D03*
X026944D02*
D03*
D43*
X0287Y03215D02*
D03*
Y033725D02*
D03*
D44*
X024817Y0374D02*
D03*
Y03882D02*
D03*
X02805D02*
D03*
Y0374D02*
D03*
X026433Y03882D02*
D03*
Y0374D02*
D03*
X0232D02*
D03*
Y03882D02*
D03*
D45*
X03525Y042478D02*
D03*
Y039722D02*
D03*
X0333Y042478D02*
D03*
Y039722D02*
D03*
X0313Y042478D02*
D03*
Y039722D02*
D03*
D46*
X039576Y04205D02*
D03*
D47*
X039537Y041262D02*
D03*
Y040475D02*
D03*
Y039687D02*
D03*
Y0389D02*
D03*
Y038113D02*
D03*
Y037325D02*
D03*
Y036538D02*
D03*
X0456D02*
D03*
Y037325D02*
D03*
Y038113D02*
D03*
Y0389D02*
D03*
Y039687D02*
D03*
Y040475D02*
D03*
Y041262D02*
D03*
Y04205D02*
D03*
D86*
X01984Y04125D02*
D03*
X019875Y014165D02*
D03*
X054985Y027685D02*
D03*
D87*
X02093Y04131D02*
D03*
X020572Y042073D02*
D03*
X01978Y04236D02*
D03*
X019017Y042002D02*
D03*
X01873Y04121D02*
D03*
X019088Y040447D02*
D03*
X01988Y04016D02*
D03*
X020643Y040518D02*
D03*
X020733Y013438D02*
D03*
X01997Y01308D02*
D03*
X01915Y01334D02*
D03*
X01881Y01415D02*
D03*
X01908Y0149D02*
D03*
X019843Y015258D02*
D03*
X02075Y01486D02*
D03*
X021075Y014015D02*
D03*
X056085Y027735D02*
D03*
X055728Y028499D02*
D03*
X054935Y028785D02*
D03*
X054172Y028428D02*
D03*
X053885Y027635D02*
D03*
X054243Y026872D02*
D03*
X055035Y026585D02*
D03*
X055799Y026943D02*
D03*
D88*
X02874Y01388D02*
D03*
X02974D02*
D03*
D89*
X03074D02*
D03*
D90*
X05045Y02185D02*
D03*
Y03395D02*
D03*
X02095Y02185D02*
D03*
Y03395D02*
D03*
D91*
X03395Y02275D02*
D03*
X03495D02*
D03*
X03295D02*
D03*
X03301Y03108D02*
D03*
X034Y0166D02*
D03*
Y0146D02*
D03*
Y0156D02*
D03*
X03305Y02755D02*
D03*
X03405D02*
D03*
X03205D02*
D03*
X04385Y01565D02*
D03*
Y01465D02*
D03*
X0375Y0166D02*
D03*
Y0146D02*
D03*
Y0156D02*
D03*
X047Y01465D02*
D03*
Y01565D02*
D03*
X0406Y01465D02*
D03*
Y01565D02*
D03*
D92*
X03595Y02275D02*
D03*
X03201Y03108D02*
D03*
X03505Y02755D02*
D03*
D93*
X034Y0136D02*
D03*
X04385Y01365D02*
D03*
X0375Y0136D02*
D03*
X047Y01365D02*
D03*
X0406D02*
D03*
D94*
X0266Y0169D02*
D03*
D95*
X0246Y0154D02*
D03*
Y0179D02*
D03*
D96*
X0464Y028371D02*
D03*
Y02645D02*
D03*
M02*
