M48
;Layer_Color=9474304
;FILE_FORMAT=2:4
INCH,LZ
;TYPE=PLATED
T1F00S00C0.0079
T2F00S00C0.0157
T3F00S00C0.0197
T4F00S00C0.0268
T5F00S00C0.0315
T6F00S00C0.0535
T8F00S00C0.1575
%
T01
X04844Y02054
X04255Y02155
X04195Y02505
X04143Y02455
X04053Y02372
X03966Y02468
X03887Y02507
X03765Y02725
X037941Y030576
X04075Y03
X045266Y02968
X045242Y029051
X04499Y02759
X03854Y02176
X03864Y01982
X03569Y02069
X03176Y02074
Y02236
X03127Y02241
X03108Y02038
X03065Y01785
X0291
X0261Y0261
X02675Y03195
X03698Y03192
X03749Y032
X0384Y03255
X0382Y0329
X03957Y03325
X0407Y03478
X04085Y0314
T02
X0471Y01955
X0488Y0295
X04455Y03048
X04458Y02567
X0445Y02377
X04295Y02375
X04325Y0196
X0432Y01825
X04065
Y0196
X03935Y0196
X0374Y019434
X03285Y0195
X03322Y02943
X031921Y02933
X03895Y0307
X0387Y02595
X0288Y02525
X0245Y027439
X0287Y03215
X0302Y03685
X03155Y0381
X03405Y03685
X03533Y03805
X03661Y0368
X0379Y03735
X04565Y03655
X04115Y032
T03
X01915Y01334
X01997Y01308
X020733Y013438
X021075Y014015
X02075Y01486
X019843Y015258
X01908Y0149
X01881Y01415
X054243Y026872
X055035Y026585
X055799Y026943
X056085Y027735
X055728Y028499
X054935Y028785
X054172Y028428
X053885Y027635
X020643Y040518
X02093Y04131
X020572Y042073
X01978Y04236
X019017Y042002
X01873Y04121
X019088Y040447
X01988Y04016
T04
X0464Y02645
Y028371
T05
X034Y0136
Y0146
Y0156
X0375
Y0146
Y0136
X0406Y01365
Y01465
X04385
Y01365
X047
Y01465
Y01565
X04385
X0406
X0375Y0166
X034
X03395Y02275
X03495
X03595
X03295
X03305Y02755
X03405
X03505
X03205
X03201Y03108
X03301
T06
X02874Y01388
X02974
X03074
T08
X019875Y014165
X05045Y02185
X054985Y027685
X02095Y02185
Y03395
X01984Y04125
X05045Y03395
M30
