G04*
G04 #@! TF.GenerationSoftware,Altium Limited,Altium Designer,21.3.2 (30)*
G04*
G04 Layer_Color=8388736*
%FSTAX24Y24*%
%MOIN*%
G70*
G04*
G04 #@! TF.SameCoordinates,F68421FC-E499-4976-B511-058DC5D6CA2F*
G04*
G04*
G04 #@! TF.FilePolarity,Negative*
G04*
G01*
G75*
%ADD43R,0.0604X0.0604*%
%ADD44R,0.0867X0.0434*%
%ADD45R,0.0434X0.0867*%
%ADD46R,0.0749X0.0749*%
%ADD47R,0.1220X0.2210*%
%ADD48R,0.1261X0.0356*%
%ADD49O,0.1261X0.0356*%
%ADD50R,0.1025X0.0474*%
%ADD51R,0.1025X0.1379*%
%ADD52R,0.2080X0.0671*%
%ADD53O,0.2080X0.0671*%
%ADD54R,0.0710X0.0671*%
%ADD55R,0.0730X0.0680*%
%ADD56R,0.0395X0.0552*%
%ADD57R,0.1104X0.0513*%
%ADD58R,0.1182X0.0513*%
%ADD59R,0.0966X0.0690*%
%ADD60R,0.1458X0.0552*%
%ADD61R,0.1064X0.4214*%
%ADD62R,0.2639X0.3426*%
%ADD63C,0.0276*%
%ADD64C,0.2835*%
%ADD65C,0.0198*%
%ADD66C,0.0709*%
%ADD67R,0.1080X0.1680*%
%ADD68R,0.1680X0.1080*%
%ADD69R,0.0671X0.0671*%
%ADD70C,0.0671*%
%ADD71C,0.0237*%
%ADD72C,0.0356*%
D43*
X048172Y034155D02*
D03*
X04745D02*
D03*
X048895Y034878D02*
D03*
X048172D02*
D03*
X04745D02*
D03*
X048895Y0356D02*
D03*
X048172D02*
D03*
X04745D02*
D03*
X048895Y034155D02*
D03*
D44*
X051913Y03783D02*
D03*
Y03733D02*
D03*
Y03683D02*
D03*
Y03633D02*
D03*
Y03583D02*
D03*
Y03533D02*
D03*
Y03483D02*
D03*
Y03433D02*
D03*
Y03383D02*
D03*
Y03333D02*
D03*
Y03283D02*
D03*
Y03233D02*
D03*
Y03183D02*
D03*
Y03133D02*
D03*
X04522D02*
D03*
Y03183D02*
D03*
Y03233D02*
D03*
Y03283D02*
D03*
Y03333D02*
D03*
Y03383D02*
D03*
Y03433D02*
D03*
Y03483D02*
D03*
Y03533D02*
D03*
Y03583D02*
D03*
Y03633D02*
D03*
Y03683D02*
D03*
Y03733D02*
D03*
Y03783D02*
D03*
D45*
X050816Y030937D02*
D03*
X050316D02*
D03*
X049816D02*
D03*
X049316D02*
D03*
X048816D02*
D03*
X048316D02*
D03*
X047816D02*
D03*
X047316D02*
D03*
X046816D02*
D03*
X046316D02*
D03*
D46*
X04305Y03845D02*
D03*
Y03975D02*
D03*
X03635Y02305D02*
D03*
Y02175D02*
D03*
X03575Y017801D02*
D03*
Y0191D02*
D03*
X05415Y0194D02*
D03*
Y0207D02*
D03*
X0522Y0194D02*
D03*
Y0207D02*
D03*
X05025Y0194D02*
D03*
Y0207D02*
D03*
X0483Y0194D02*
D03*
Y0207D02*
D03*
X0497Y0279D02*
D03*
Y029199D02*
D03*
Y02655D02*
D03*
Y02525D02*
D03*
X043Y0359D02*
D03*
Y0372D02*
D03*
D47*
X04023Y027424D02*
D03*
X03633D02*
D03*
D48*
X0337Y0286D02*
D03*
D49*
X0315D02*
D03*
D50*
X039842Y018494D02*
D03*
Y0194D02*
D03*
Y020306D02*
D03*
D51*
X037558Y0194D02*
D03*
D52*
X0297D02*
D03*
D53*
X03375D02*
D03*
D54*
X0517Y016891D02*
D03*
Y015709D02*
D03*
X0399Y013959D02*
D03*
Y015141D02*
D03*
X042167D02*
D03*
Y013959D02*
D03*
X0467Y015141D02*
D03*
Y013959D02*
D03*
X044433Y015141D02*
D03*
Y013959D02*
D03*
X04935Y015709D02*
D03*
Y016891D02*
D03*
X0541Y015759D02*
D03*
Y016941D02*
D03*
X04175Y022941D02*
D03*
Y021759D02*
D03*
D55*
X0399Y01257D02*
D03*
Y01115D02*
D03*
X044433D02*
D03*
Y01257D02*
D03*
X042167D02*
D03*
Y01115D02*
D03*
X0467D02*
D03*
Y01257D02*
D03*
X0417Y01848D02*
D03*
Y0199D02*
D03*
D56*
X04965Y011122D02*
D03*
Y013878D02*
D03*
X0518Y011122D02*
D03*
Y013878D02*
D03*
X0541Y011122D02*
D03*
Y013878D02*
D03*
D57*
X058113Y028874D02*
D03*
Y028087D02*
D03*
Y0273D02*
D03*
Y026512D02*
D03*
Y025725D02*
D03*
Y024937D02*
D03*
Y02415D02*
D03*
Y023363D02*
D03*
X05205D02*
D03*
Y02415D02*
D03*
Y024937D02*
D03*
Y025725D02*
D03*
Y026512D02*
D03*
Y0273D02*
D03*
Y028087D02*
D03*
D58*
X052089Y028874D02*
D03*
D59*
X039625Y02265D02*
D03*
X03805D02*
D03*
D60*
X03375Y023542D02*
D03*
Y024211D02*
D03*
Y024881D02*
D03*
Y02555D02*
D03*
Y026219D02*
D03*
D61*
X028228Y024881D02*
D03*
D62*
X029508D02*
D03*
D63*
X029485Y011835D02*
D03*
X029128Y012599D02*
D03*
X028335Y012885D02*
D03*
X027572Y012528D02*
D03*
X027285Y011735D02*
D03*
X027643Y010972D02*
D03*
X028435Y010685D02*
D03*
X029199Y011043D02*
D03*
X028999Y038293D02*
D03*
X028235Y037935D02*
D03*
X027443Y038222D02*
D03*
X027085Y038985D02*
D03*
X027372Y039778D02*
D03*
X028135Y040135D02*
D03*
X028928Y039849D02*
D03*
X029285Y039085D02*
D03*
X064063Y024758D02*
D03*
X0633Y0244D02*
D03*
X062508Y024687D02*
D03*
X06215Y02545D02*
D03*
X062437Y026242D02*
D03*
X0632Y0266D02*
D03*
X063992Y026313D02*
D03*
X06435Y02555D02*
D03*
D64*
X02835Y01175D02*
D03*
X02815Y039D02*
D03*
X06325Y0255D02*
D03*
D65*
X048534Y034155D02*
D03*
X047811D02*
D03*
X048895Y034516D02*
D03*
X048172D02*
D03*
X04745D02*
D03*
X048534Y034878D02*
D03*
X047811D02*
D03*
X048895Y035239D02*
D03*
X048172D02*
D03*
X04745D02*
D03*
X048534Y0356D02*
D03*
X047811D02*
D03*
D66*
X0395Y03095D02*
D03*
X0385D02*
D03*
X0375D02*
D03*
X0365D02*
D03*
X0355D02*
D03*
X0345D02*
D03*
X0335D02*
D03*
D67*
X03485Y0147D02*
D03*
D68*
X03285Y0132D02*
D03*
Y0157D02*
D03*
D69*
X0548Y03945D02*
D03*
D70*
Y03845D02*
D03*
Y03745D02*
D03*
Y03645D02*
D03*
Y03545D02*
D03*
Y03445D02*
D03*
D71*
X0529Y0323D02*
D03*
X04405Y0368D02*
D03*
X0439Y03135D02*
D03*
X0557Y0305D02*
D03*
X0527Y0313D02*
D03*
X0529Y0328D02*
D03*
X0532Y0368D02*
D03*
X05325Y0346D02*
D03*
X0483Y0194D02*
D03*
X039628Y022613D02*
D03*
X05405Y0313D02*
D03*
X0513Y0207D02*
D03*
X0517Y015709D02*
D03*
X0581Y0281D02*
D03*
D72*
X0445Y0302D02*
D03*
X04195Y0334D02*
D03*
X04335Y03475D02*
D03*
X03633Y027424D02*
D03*
X0434Y02655D02*
D03*
X04155Y02845D02*
D03*
X0399Y02105D02*
D03*
X038Y02265D02*
D03*
X0507Y028D02*
D03*
X0498Y0253D02*
D03*
X04755Y01705D02*
D03*
X04455Y0292D02*
D03*
X05415Y0194D02*
D03*
X0522Y0194D02*
D03*
X04175Y022941D02*
D03*
X03665Y02495D02*
D03*
X03875Y017801D02*
D03*
X0497Y02655D02*
D03*
X04935Y016891D02*
D03*
M02*
