G04*
G04 #@! TF.GenerationSoftware,Altium Limited,Altium Designer,21.3.2 (30)*
G04*
G04 Layer_Color=2752767*
%FSTAX24Y24*%
%MOIN*%
G70*
G04*
G04 #@! TF.SameCoordinates,F68421FC-E499-4976-B511-058DC5D6CA2F*
G04*
G04*
G04 #@! TF.FilePolarity,Positive*
G04*
G01*
G75*
%ADD85C,0.0020*%
%ADD86C,0.0027*%
D85*
X029405Y011755D02*
Y011915D01*
X029565D01*
Y011755D01*
X029405D01*
X029048Y012519D02*
Y012679D01*
X029208D01*
Y012519D01*
X029048D01*
X028255Y012805D02*
Y012965D01*
X028415D01*
Y012805D01*
X028255D01*
X027492Y012448D02*
Y012608D01*
X027652D01*
Y012448D01*
X027492D01*
X027205Y011655D02*
Y011815D01*
X027365D01*
Y011655D01*
X027205D01*
X027563Y010892D02*
Y011052D01*
X027723D01*
Y010892D01*
X027563D01*
X028355Y010605D02*
Y010765D01*
X028515D01*
Y010605D01*
X028355D01*
X029119Y010963D02*
Y011123D01*
X029279D01*
Y010963D01*
X029119D01*
X028919Y038213D02*
Y038373D01*
X029079D01*
Y038213D01*
X028919D01*
X028155Y037855D02*
Y038015D01*
X028315D01*
Y037855D01*
X028155D01*
X027363Y038142D02*
Y038302D01*
X027523D01*
Y038142D01*
X027363D01*
X027005Y038905D02*
Y039065D01*
X027165D01*
Y038905D01*
X027005D01*
X027292Y039698D02*
Y039858D01*
X027452D01*
Y039698D01*
X027292D01*
X028055Y040055D02*
Y040215D01*
X028215D01*
Y040055D01*
X028055D01*
X028848Y039769D02*
Y039929D01*
X029008D01*
Y039769D01*
X028848D01*
X029205Y039005D02*
Y039165D01*
X029365D01*
Y039005D01*
X029205D01*
X048534Y034075D02*
X048454Y034235D01*
X048614D01*
X048534Y034075D01*
X047811D02*
X047731Y034235D01*
X047891D01*
X047811Y034075D01*
X048895Y034436D02*
X048815Y034596D01*
X048975D01*
X048895Y034436D01*
X048172D02*
X048092Y034596D01*
X048252D01*
X048172Y034436D01*
X04745D02*
X04737Y034596D01*
X04753D01*
X04745Y034436D01*
X048534Y034798D02*
X048454Y034958D01*
X048614D01*
X048534Y034798D01*
X047811D02*
X047731Y034958D01*
X047891D01*
X047811Y034798D01*
X048895Y035159D02*
X048815Y035319D01*
X048975D01*
X048895Y035159D01*
X048172D02*
X048092Y035319D01*
X048252D01*
X048172Y035159D01*
X04745D02*
X04737Y035319D01*
X04753D01*
X04745Y035159D01*
X048534Y03552D02*
X048454Y03568D01*
X048614D01*
X048534Y03552D01*
X047811D02*
X047731Y03568D01*
X047891D01*
X047811Y03552D01*
X0395Y03087D02*
X03954Y03091D01*
X03958D01*
X03954Y03095D01*
X03958Y03099D01*
X03954D01*
X0395Y03103D01*
X03946Y03099D01*
X03942D01*
X03946Y03095D01*
X03942Y03091D01*
X03946D01*
X0395Y03087D01*
X0385D02*
X03854Y03091D01*
X03858D01*
X03854Y03095D01*
X03858Y03099D01*
X03854D01*
X0385Y03103D01*
X03846Y03099D01*
X03842D01*
X03846Y03095D01*
X03842Y03091D01*
X03846D01*
X0385Y03087D01*
X0375D02*
X03754Y03091D01*
X03758D01*
X03754Y03095D01*
X03758Y03099D01*
X03754D01*
X0375Y03103D01*
X03746Y03099D01*
X03742D01*
X03746Y03095D01*
X03742Y03091D01*
X03746D01*
X0375Y03087D01*
X0365D02*
X03654Y03091D01*
X03658D01*
X03654Y03095D01*
X03658Y03099D01*
X03654D01*
X0365Y03103D01*
X03646Y03099D01*
X03642D01*
X03646Y03095D01*
X03642Y03091D01*
X03646D01*
X0365Y03087D01*
X0355D02*
X03554Y03091D01*
X03558D01*
X03554Y03095D01*
X03558Y03099D01*
X03554D01*
X0355Y03103D01*
X03546Y03099D01*
X03542D01*
X03546Y03095D01*
X03542Y03091D01*
X03546D01*
X0355Y03087D01*
X0345D02*
X03454Y03091D01*
X03458D01*
X03454Y03095D01*
X03458Y03099D01*
X03454D01*
X0345Y03103D01*
X03446Y03099D01*
X03442D01*
X03446Y03095D01*
X03442Y03091D01*
X03446D01*
X0345Y03087D01*
X0335D02*
X03354Y03091D01*
X03358D01*
X03354Y03095D01*
X03358Y03099D01*
X03354D01*
X0335Y03103D01*
X03346Y03099D01*
X03342D01*
X03346Y03095D01*
X03342Y03091D01*
X03346D01*
X0335Y03087D01*
X063983Y024678D02*
Y024838D01*
X064143D01*
Y024678D01*
X063983D01*
X06322Y02432D02*
Y02448D01*
X06338D01*
Y02432D01*
X06322D01*
X062428Y024607D02*
Y024767D01*
X062588D01*
Y024607D01*
X062428D01*
X06207Y02537D02*
Y02553D01*
X06223D01*
Y02537D01*
X06207D01*
X062357Y026162D02*
Y026322D01*
X062517D01*
Y026162D01*
X062357D01*
X06312Y02652D02*
Y02668D01*
X06328D01*
Y02652D01*
X06312D01*
X063912Y026233D02*
Y026393D01*
X064072D01*
Y026233D01*
X063912D01*
X06427Y02547D02*
Y02563D01*
X06443D01*
Y02547D01*
X06427D01*
X03477Y01462D02*
X03481Y0147D01*
X03477Y01478D01*
X03485Y01474D01*
X03493Y01478D01*
X03489Y0147D01*
X03493Y01462D01*
X03485Y01466D01*
X03477Y01462D01*
X03277Y01312D02*
X03281Y0132D01*
X03277Y01328D01*
X03285Y01324D01*
X03293Y01328D01*
X03289Y0132D01*
X03293Y01312D01*
X03285Y01316D01*
X03277Y01312D01*
Y01562D02*
X03281Y0157D01*
X03277Y01578D01*
X03285Y01574D01*
X03293Y01578D01*
X03289Y0157D01*
X03293Y01562D01*
X03285Y01566D01*
X03277Y01562D01*
X05476Y03941D02*
Y03937D01*
X05484D01*
Y03941D01*
X05488D01*
Y03949D01*
X05484D01*
Y03953D01*
X05476D01*
Y03949D01*
X05472D01*
Y03941D01*
X05476D01*
Y03841D02*
Y03837D01*
X05484D01*
Y03841D01*
X05488D01*
Y03849D01*
X05484D01*
Y03853D01*
X05476D01*
Y03849D01*
X05472D01*
Y03841D01*
X05476D01*
Y03741D02*
Y03737D01*
X05484D01*
Y03741D01*
X05488D01*
Y03749D01*
X05484D01*
Y03753D01*
X05476D01*
Y03749D01*
X05472D01*
Y03741D01*
X05476D01*
Y03641D02*
Y03637D01*
X05484D01*
Y03641D01*
X05488D01*
Y03649D01*
X05484D01*
Y03653D01*
X05476D01*
Y03649D01*
X05472D01*
Y03641D01*
X05476D01*
Y03541D02*
Y03537D01*
X05484D01*
Y03541D01*
X05488D01*
Y03549D01*
X05484D01*
Y03553D01*
X05476D01*
Y03549D01*
X05472D01*
Y03541D01*
X05476D01*
Y03441D02*
Y03437D01*
X05484D01*
Y03441D01*
X05488D01*
Y03449D01*
X05484D01*
Y03453D01*
X05476D01*
Y03449D01*
X05472D01*
Y03441D01*
X05476D01*
X0529Y03222D02*
X05282Y03238D01*
X05298D01*
X0529Y03222D01*
X04405Y03672D02*
X04397Y03688D01*
X04413D01*
X04405Y03672D01*
X0439Y03127D02*
X04382Y03143D01*
X04398D01*
X0439Y03127D01*
X0557Y03042D02*
X05562Y03058D01*
X05578D01*
X0557Y03042D01*
X04442Y03012D02*
X04446D01*
X0445Y03016D01*
X04454Y03012D01*
X04458D01*
Y03016D01*
X04454Y0302D01*
X04458Y03024D01*
Y03028D01*
X04454D01*
X0445Y03024D01*
X04446Y03028D01*
X04442D01*
Y03024D01*
X04446Y0302D01*
X04442Y03016D01*
Y03012D01*
X0527Y03122D02*
X05262Y03138D01*
X05278D01*
X0527Y03122D01*
X0529Y03272D02*
X05282Y03288D01*
X05298D01*
X0529Y03272D01*
X0532Y03672D02*
X05312Y03688D01*
X05328D01*
X0532Y03672D01*
X04187Y03332D02*
X04191D01*
X04195Y03336D01*
X04199Y03332D01*
X04203D01*
Y03336D01*
X04199Y0334D01*
X04203Y03344D01*
Y03348D01*
X04199D01*
X04195Y03344D01*
X04191Y03348D01*
X04187D01*
Y03344D01*
X04191Y0334D01*
X04187Y03336D01*
Y03332D01*
X04327Y03467D02*
X04331D01*
X04335Y03471D01*
X04339Y03467D01*
X04343D01*
Y03471D01*
X04339Y03475D01*
X04343Y03479D01*
Y03483D01*
X04339D01*
X04335Y03479D01*
X04331Y03483D01*
X04327D01*
Y03479D01*
X04331Y03475D01*
X04327Y03471D01*
Y03467D01*
X03625Y027344D02*
X03629D01*
X03633Y027384D01*
X03637Y027344D01*
X03641D01*
Y027384D01*
X03637Y027424D01*
X03641Y027464D01*
Y027504D01*
X03637D01*
X03633Y027464D01*
X03629Y027504D01*
X03625D01*
Y027464D01*
X03629Y027424D01*
X03625Y027384D01*
Y027344D01*
X04332Y02647D02*
X04336D01*
X0434Y02651D01*
X04344Y02647D01*
X04348D01*
Y02651D01*
X04344Y02655D01*
X04348Y02659D01*
Y02663D01*
X04344D01*
X0434Y02659D01*
X04336Y02663D01*
X04332D01*
Y02659D01*
X04336Y02655D01*
X04332Y02651D01*
Y02647D01*
X04147Y02837D02*
X04151D01*
X04155Y02841D01*
X04159Y02837D01*
X04163D01*
Y02841D01*
X04159Y02845D01*
X04163Y02849D01*
Y02853D01*
X04159D01*
X04155Y02849D01*
X04151Y02853D01*
X04147D01*
Y02849D01*
X04151Y02845D01*
X04147Y02841D01*
Y02837D01*
X03982Y02097D02*
X03986D01*
X0399Y02101D01*
X03994Y02097D01*
X03998D01*
Y02101D01*
X03994Y02105D01*
X03998Y02109D01*
Y02113D01*
X03994D01*
X0399Y02109D01*
X03986Y02113D01*
X03982D01*
Y02109D01*
X03986Y02105D01*
X03982Y02101D01*
Y02097D01*
X05325Y03452D02*
X05317Y03468D01*
X05333D01*
X05325Y03452D01*
X03792Y02257D02*
X03796D01*
X038Y02261D01*
X03804Y02257D01*
X03808D01*
Y02261D01*
X03804Y02265D01*
X03808Y02269D01*
Y02273D01*
X03804D01*
X038Y02269D01*
X03796Y02273D01*
X03792D01*
Y02269D01*
X03796Y02265D01*
X03792Y02261D01*
Y02257D01*
X05062Y02792D02*
X05066D01*
X0507Y02796D01*
X05074Y02792D01*
X05078D01*
Y02796D01*
X05074Y028D01*
X05078Y02804D01*
Y02808D01*
X05074D01*
X0507Y02804D01*
X05066Y02808D01*
X05062D01*
Y02804D01*
X05066Y028D01*
X05062Y02796D01*
Y02792D01*
X04972Y02522D02*
X04976D01*
X0498Y02526D01*
X04984Y02522D01*
X04988D01*
Y02526D01*
X04984Y0253D01*
X04988Y02534D01*
Y02538D01*
X04984D01*
X0498Y02534D01*
X04976Y02538D01*
X04972D01*
Y02534D01*
X04976Y0253D01*
X04972Y02526D01*
Y02522D01*
X04747Y01697D02*
X04751D01*
X04755Y01701D01*
X04759Y01697D01*
X04763D01*
Y01701D01*
X04759Y01705D01*
X04763Y01709D01*
Y01713D01*
X04759D01*
X04755Y01709D01*
X04751Y01713D01*
X04747D01*
Y01709D01*
X04751Y01705D01*
X04747Y01701D01*
Y01697D01*
X04447Y02912D02*
X04451D01*
X04455Y02916D01*
X04459Y02912D01*
X04463D01*
Y02916D01*
X04459Y0292D01*
X04463Y02924D01*
Y02928D01*
X04459D01*
X04455Y02924D01*
X04451Y02928D01*
X04447D01*
Y02924D01*
X04451Y0292D01*
X04447Y02916D01*
Y02912D01*
X05407Y01932D02*
X05411D01*
X05415Y01936D01*
X05419Y01932D01*
X05423D01*
Y01936D01*
X05419Y0194D01*
X05423Y01944D01*
Y01948D01*
X05419D01*
X05415Y01944D01*
X05411Y01948D01*
X05407D01*
Y01944D01*
X05411Y0194D01*
X05407Y01936D01*
Y01932D01*
X05212Y01932D02*
X05216D01*
X0522Y01936D01*
X05224Y01932D01*
X05228D01*
Y01936D01*
X05224Y0194D01*
X05228Y01944D01*
Y01948D01*
X05224D01*
X0522Y01944D01*
X05216Y01948D01*
X05212D01*
Y01944D01*
X05216Y0194D01*
X05212Y01936D01*
Y01932D01*
X0483Y01932D02*
X04822Y01948D01*
X04838D01*
X0483Y01932D01*
X04167Y022861D02*
X04171D01*
X04175Y022901D01*
X04179Y022861D01*
X04183D01*
Y022901D01*
X04179Y022941D01*
X04183Y022981D01*
Y023021D01*
X04179D01*
X04175Y022981D01*
X04171Y023021D01*
X04167D01*
Y022981D01*
X04171Y022941D01*
X04167Y022901D01*
Y022861D01*
X03657Y02487D02*
X03661D01*
X03665Y02491D01*
X03669Y02487D01*
X03673D01*
Y02491D01*
X03669Y02495D01*
X03673Y02499D01*
Y02503D01*
X03669D01*
X03665Y02499D01*
X03661Y02503D01*
X03657D01*
Y02499D01*
X03661Y02495D01*
X03657Y02491D01*
Y02487D01*
X03867Y017721D02*
X03871D01*
X03875Y017761D01*
X03879Y017721D01*
X03883D01*
Y017761D01*
X03879Y017801D01*
X03883Y017841D01*
Y017881D01*
X03879D01*
X03875Y017841D01*
X03871Y017881D01*
X03867D01*
Y017841D01*
X03871Y017801D01*
X03867Y017761D01*
Y017721D01*
X039628Y022533D02*
X039548Y022693D01*
X039708D01*
X039628Y022533D01*
X04962Y02647D02*
X04966D01*
X0497Y02651D01*
X04974Y02647D01*
X04978D01*
Y02651D01*
X04974Y02655D01*
X04978Y02659D01*
Y02663D01*
X04974D01*
X0497Y02659D01*
X04966Y02663D01*
X04962D01*
Y02659D01*
X04966Y02655D01*
X04962Y02651D01*
Y02647D01*
X04927Y016811D02*
X04931D01*
X04935Y016851D01*
X04939Y016811D01*
X04943D01*
Y016851D01*
X04939Y016891D01*
X04943Y016931D01*
Y016971D01*
X04939D01*
X04935Y016931D01*
X04931Y016971D01*
X04927D01*
Y016931D01*
X04931Y016891D01*
X04927Y016851D01*
Y016811D01*
X05405Y03122D02*
X05397Y03138D01*
X05413D01*
X05405Y03122D01*
X0513Y02062D02*
X05122Y02078D01*
X05138D01*
X0513Y02062D01*
X0517Y015629D02*
X05162Y015789D01*
X05178D01*
X0517Y015629D01*
X0581Y02802D02*
X05802Y02818D01*
X05818D01*
X0581Y02802D01*
D86*
X02843Y01175D02*
G03*
X02843Y01175I-00008J0D01*
G01*
X02823Y039D02*
G03*
X02823Y039I-00008J0D01*
G01*
X06333Y0255D02*
G03*
X06333Y0255I-00008J0D01*
G01*
M02*
