G04*
G04 #@! TF.GenerationSoftware,Altium Limited,Altium Designer,21.3.2 (30)*
G04*
G04 Layer_Physical_Order=2*
G04 Layer_Color=16711680*
%FSTAX24Y24*%
%MOIN*%
G70*
G04*
G04 #@! TF.SameCoordinates,F68421FC-E499-4976-B511-058DC5D6CA2F*
G04*
G04*
G04 #@! TF.FilePolarity,Positive*
G04*
G01*
G75*
%ADD11C,0.0079*%
%ADD73C,0.0197*%
%ADD74C,0.0787*%
%ADD75C,0.0197*%
%ADD76C,0.2756*%
%ADD77C,0.0118*%
%ADD78C,0.0630*%
%ADD79R,0.1000X0.1600*%
%ADD80R,0.1600X0.1000*%
%ADD81R,0.0591X0.0591*%
%ADD82C,0.0591*%
%ADD83C,0.0157*%
%ADD84C,0.0276*%
G36*
X05654Y040697D02*
X056548Y040677D01*
X056588Y040661D01*
X056608Y040568D01*
X056608Y040568D01*
Y038072D01*
X056544Y037998D01*
X056544Y037998D01*
X056544Y037998D01*
X05686Y036408D01*
X057785Y035025D01*
X059168Y0341D01*
X0608Y033775D01*
X060988Y033813D01*
X060988Y033813D01*
Y033813D01*
X061021Y033848D01*
X06315D01*
X063211Y033797D01*
X063229Y033769D01*
X063278Y033711D01*
X063289Y03366D01*
Y029743D01*
Y027307D01*
X063289Y027305D01*
X063289Y027304D01*
Y0273D01*
X063333Y027193D01*
X063335Y027193D01*
X063336Y02719D01*
X063426Y027153D01*
X06341Y027059D01*
X063365Y026978D01*
X062956D01*
X062413Y026753D01*
X061997Y026337D01*
X061772Y025794D01*
Y025206D01*
X061997Y024663D01*
X062413Y024247D01*
X062956Y024022D01*
X063365D01*
X06341Y023941D01*
X063426Y023847D01*
X063336Y02381D01*
X063335Y023807D01*
X063333Y023807D01*
X063289Y0237D01*
Y023696D01*
X063289Y023695D01*
X063289Y023693D01*
X063289Y021228D01*
Y017255D01*
X063225Y017188D01*
X063214Y017184D01*
X063206Y017165D01*
X06312Y017122D01*
X060895D01*
X06089Y017124D01*
X060889Y017125D01*
X060888Y017186D01*
X059298Y01687D01*
X057915Y015945D01*
X05699Y014562D01*
X056665Y01293D01*
X056703Y012742D01*
X056703Y012742D01*
X056703D01*
X056738Y012709D01*
Y010034D01*
X056672Y010007D01*
X056647Y009947D01*
X02673Y009947D01*
X026722Y009948D01*
X026698Y010008D01*
X026657Y010025D01*
X02663Y010115D01*
Y015597D01*
X026647Y01569D01*
X026648Y015698D01*
X026631Y015784D01*
X026532Y016283D01*
X0262Y016779D01*
X026096Y016848D01*
X026029Y016917D01*
X026056Y01698D01*
X026025Y017055D01*
X026025Y017055D01*
X025993Y017075D01*
X025946Y01719D01*
X025937Y017194D01*
X025911Y0216D01*
X02597Y034247D01*
X026047Y034307D01*
X026052Y034309D01*
X02606Y034327D01*
X026058Y034428D01*
X02636Y034879D01*
X026472Y03544D01*
X02646Y035441D01*
X026458Y035443D01*
Y040622D01*
X026489Y04071D01*
X026497Y040713D01*
X0265Y040722D01*
X026509Y040749D01*
X0438D01*
Y038065D01*
X042139D01*
X040402Y039802D01*
X04025Y039865D01*
X03255D01*
X032398Y039802D01*
X031798Y039202D01*
X031735Y03905D01*
Y0304D01*
X031798Y030248D01*
X032648Y029398D01*
X0328Y029335D01*
X035661D01*
X036115Y028881D01*
Y027546D01*
X036092Y027523D01*
Y027425D01*
X036084Y027404D01*
X036092Y027384D01*
Y027326D01*
X036133Y027285D01*
X036147Y027252D01*
X036179Y027239D01*
X036232Y027186D01*
X036407D01*
X03641Y027185D01*
X037661D01*
X040835Y024011D01*
Y021265D01*
X040022D01*
X039999Y021288D01*
X039801D01*
X039662Y021149D01*
Y020951D01*
X039801Y020812D01*
X039999D01*
X040022Y020835D01*
X040935D01*
X041087Y020898D01*
X041202Y021013D01*
X041265Y021165D01*
Y0241D01*
X041202Y024252D01*
X037902Y027552D01*
X03775Y027615D01*
X036545D01*
Y02897D01*
X036482Y029122D01*
X035902Y029702D01*
X03575Y029765D01*
X032889D01*
X032165Y030489D01*
Y038961D01*
X032639Y039435D01*
X040161D01*
X041898Y037698D01*
X04205Y037635D01*
X05315D01*
X053186Y03765D01*
X05325D01*
Y037677D01*
X053302Y037698D01*
X053304Y0377D01*
X05355D01*
Y038014D01*
X053565Y03805D01*
Y039111D01*
X053689Y039235D01*
X054405D01*
Y039055D01*
X055195D01*
Y039845D01*
X054405D01*
Y039665D01*
X0536D01*
X05355Y039698D01*
Y040749D01*
X056462D01*
X05654Y040697D01*
D02*
G37*
%LPC*%
G36*
X054964Y038845D02*
X05485D01*
Y0385D01*
X055195D01*
Y038614D01*
X054964Y038845D01*
D02*
G37*
G36*
X05475D02*
X054636D01*
X054405Y038614D01*
Y0385D01*
X05475D01*
Y038845D01*
D02*
G37*
G36*
X055195Y0384D02*
X05485D01*
Y038055D01*
X054964D01*
X055195Y038286D01*
Y0384D01*
D02*
G37*
G36*
X05475D02*
X054405D01*
Y038286D01*
X054636Y038055D01*
X05475D01*
Y0384D01*
D02*
G37*
G36*
X028444Y040478D02*
X027856D01*
X027313Y040253D01*
X026897Y039837D01*
X026672Y039294D01*
Y038706D01*
X026897Y038163D01*
X027313Y037747D01*
X027856Y037522D01*
X028444D01*
X028987Y037747D01*
X029403Y038163D01*
X029628Y038706D01*
Y039294D01*
X029403Y039837D01*
X028987Y040253D01*
X028444Y040478D01*
D02*
G37*
G36*
X054964Y036845D02*
X054636D01*
X054405Y036614D01*
Y036286D01*
X054636Y036055D01*
X054964D01*
X055195Y036286D01*
Y036614D01*
X054964Y036845D01*
D02*
G37*
G36*
X0486Y035759D02*
X048584D01*
Y03565D01*
X048693D01*
Y035666D01*
X0486Y035759D01*
D02*
G37*
G36*
X048484D02*
X048468D01*
X048375Y035666D01*
Y03565D01*
X048484D01*
Y035759D01*
D02*
G37*
G36*
X047877D02*
X047861D01*
Y03565D01*
X04797D01*
Y035666D01*
X047877Y035759D01*
D02*
G37*
G36*
X047761D02*
X047745D01*
X047652Y035666D01*
Y03565D01*
X047761D01*
Y035759D01*
D02*
G37*
G36*
X048693Y03555D02*
X048584D01*
Y035441D01*
X0486D01*
X048693Y035534D01*
Y03555D01*
D02*
G37*
G36*
X048484D02*
X048375D01*
Y035534D01*
X048468Y035441D01*
X048484D01*
Y03555D01*
D02*
G37*
G36*
X04797D02*
X047861D01*
Y035441D01*
X047877D01*
X04797Y035534D01*
Y03555D01*
D02*
G37*
G36*
X047761D02*
X047652D01*
Y035534D01*
X047745Y035441D01*
X047761D01*
Y03555D01*
D02*
G37*
G36*
X048961Y035398D02*
X048945D01*
Y035289D01*
X049054D01*
Y035305D01*
X048961Y035398D01*
D02*
G37*
G36*
X048845D02*
X048829D01*
X048736Y035305D01*
Y035289D01*
X048845D01*
Y035398D01*
D02*
G37*
G36*
X048238D02*
X048222D01*
Y035289D01*
X048331D01*
Y035305D01*
X048238Y035398D01*
D02*
G37*
G36*
X048122D02*
X048107D01*
X048013Y035305D01*
Y035289D01*
X048122D01*
Y035398D01*
D02*
G37*
G36*
X047516D02*
X0475D01*
Y035289D01*
X047609D01*
Y035305D01*
X047516Y035398D01*
D02*
G37*
G36*
X0474D02*
X047384D01*
X047291Y035305D01*
Y035289D01*
X0474D01*
Y035398D01*
D02*
G37*
G36*
X049054Y035189D02*
X048945D01*
Y03508D01*
X048961D01*
X049054Y035173D01*
Y035189D01*
D02*
G37*
G36*
X048845D02*
X048736D01*
Y035173D01*
X048829Y03508D01*
X048845D01*
Y035189D01*
D02*
G37*
G36*
X048331D02*
X048222D01*
Y03508D01*
X048238D01*
X048331Y035173D01*
Y035189D01*
D02*
G37*
G36*
X048122D02*
X048013D01*
Y035173D01*
X048107Y03508D01*
X048122D01*
Y035189D01*
D02*
G37*
G36*
X047609D02*
X0475D01*
Y03508D01*
X047516D01*
X047609Y035173D01*
Y035189D01*
D02*
G37*
G36*
X0474D02*
X047291D01*
Y035173D01*
X047384Y03508D01*
X0474D01*
Y035189D01*
D02*
G37*
G36*
X054964Y035845D02*
X054636D01*
X054405Y035614D01*
Y035286D01*
X054636Y035055D01*
X054964D01*
X055195Y035286D01*
Y035614D01*
X054964Y035845D01*
D02*
G37*
G36*
X0486Y035037D02*
X048584D01*
Y034928D01*
X048693D01*
Y034943D01*
X0486Y035037D01*
D02*
G37*
G36*
X048484D02*
X048468D01*
X048375Y034943D01*
Y034928D01*
X048484D01*
Y035037D01*
D02*
G37*
G36*
X047877D02*
X047861D01*
Y034928D01*
X04797D01*
Y034943D01*
X047877Y035037D01*
D02*
G37*
G36*
X047761D02*
X047745D01*
X047652Y034943D01*
Y034928D01*
X047761D01*
Y035037D01*
D02*
G37*
G36*
X048693Y034828D02*
X048584D01*
Y034718D01*
X0486D01*
X048693Y034812D01*
Y034828D01*
D02*
G37*
G36*
X048484D02*
X048375D01*
Y034812D01*
X048468Y034718D01*
X048484D01*
Y034828D01*
D02*
G37*
G36*
X04797D02*
X047861D01*
Y034718D01*
X047877D01*
X04797Y034812D01*
Y034828D01*
D02*
G37*
G36*
X047761D02*
X047652D01*
Y034812D01*
X047745Y034718D01*
X047761D01*
Y034828D01*
D02*
G37*
G36*
X048961Y034675D02*
X048945D01*
Y034566D01*
X049054D01*
Y034582D01*
X048961Y034675D01*
D02*
G37*
G36*
X048845D02*
X048829D01*
X048736Y034582D01*
Y034566D01*
X048845D01*
Y034675D01*
D02*
G37*
G36*
X048238D02*
X048222D01*
Y034566D01*
X048331D01*
Y034582D01*
X048238Y034675D01*
D02*
G37*
G36*
X048122D02*
X048107D01*
X048013Y034582D01*
Y034566D01*
X048122D01*
Y034675D01*
D02*
G37*
G36*
X047516D02*
X0475D01*
Y034566D01*
X047609D01*
Y034582D01*
X047516Y034675D01*
D02*
G37*
G36*
X0474D02*
X047384D01*
X047291Y034582D01*
Y034566D01*
X0474D01*
Y034675D01*
D02*
G37*
G36*
X049054Y034466D02*
X048945D01*
Y034357D01*
X048961D01*
X049054Y03445D01*
Y034466D01*
D02*
G37*
G36*
X048845D02*
X048736D01*
Y03445D01*
X048829Y034357D01*
X048845D01*
Y034466D01*
D02*
G37*
G36*
X048331D02*
X048222D01*
Y034357D01*
X048238D01*
X048331Y03445D01*
Y034466D01*
D02*
G37*
G36*
X048122D02*
X048013D01*
Y03445D01*
X048107Y034357D01*
X048122D01*
Y034466D01*
D02*
G37*
G36*
X047609D02*
X0475D01*
Y034357D01*
X047516D01*
X047609Y03445D01*
Y034466D01*
D02*
G37*
G36*
X0474D02*
X047291D01*
Y03445D01*
X047384Y034357D01*
X0474D01*
Y034466D01*
D02*
G37*
G36*
X0486Y034314D02*
X048584D01*
Y034205D01*
X048693D01*
Y034221D01*
X0486Y034314D01*
D02*
G37*
G36*
X048484D02*
X048468D01*
X048375Y034221D01*
Y034205D01*
X048484D01*
Y034314D01*
D02*
G37*
G36*
X047877D02*
X047861D01*
Y034205D01*
X04797D01*
Y034221D01*
X047877Y034314D01*
D02*
G37*
G36*
X047761D02*
X047745D01*
X047652Y034221D01*
Y034205D01*
X047761D01*
Y034314D01*
D02*
G37*
G36*
X048693Y034105D02*
X048584D01*
Y033996D01*
X0486D01*
X048693Y034089D01*
Y034105D01*
D02*
G37*
G36*
X048484D02*
X048375D01*
Y034089D01*
X048468Y033996D01*
X048484D01*
Y034105D01*
D02*
G37*
G36*
X04797D02*
X047861D01*
Y033996D01*
X047877D01*
X04797Y034089D01*
Y034105D01*
D02*
G37*
G36*
X047761D02*
X047652D01*
Y034089D01*
X047745Y033996D01*
X047761D01*
Y034105D01*
D02*
G37*
G36*
X043449Y034988D02*
X043252D01*
X043163Y034899D01*
X043133Y034887D01*
X041884Y033638D01*
X041852D01*
X041712Y033498D01*
Y033301D01*
X041852Y033162D01*
X042049D01*
X042188Y033301D01*
Y033334D01*
X043366Y034512D01*
X043449D01*
X043588Y034652D01*
Y034848D01*
X043449Y034988D01*
D02*
G37*
G36*
X052974Y032979D02*
X052826D01*
X052798Y032951D01*
X03835D01*
X038243Y032907D01*
X036687Y03135D01*
X036672Y031365D01*
X036328D01*
X036085Y031122D01*
Y030778D01*
X036328Y030535D01*
X036672D01*
X036915Y030778D01*
Y031122D01*
X0369Y031137D01*
X038412Y032649D01*
X038946D01*
X03895Y032551D01*
X038843Y032507D01*
X037687Y03135D01*
X037672Y031365D01*
X037328D01*
X037085Y031122D01*
Y030778D01*
X037328Y030535D01*
X037672D01*
X037915Y030778D01*
Y031122D01*
X0379Y031137D01*
X039012Y032249D01*
X043488D01*
X043543Y032193D01*
X04365Y032149D01*
X052798D01*
X052826Y032121D01*
X052974D01*
X053079Y032226D01*
Y032374D01*
X052974Y032479D01*
X052826D01*
X052798Y032451D01*
X043712D01*
X043657Y032507D01*
X04355Y032551D01*
X043554Y032649D01*
X052798D01*
X052826Y032621D01*
X052974D01*
X053079Y032726D01*
Y032874D01*
X052974Y032979D01*
D02*
G37*
G36*
X054964Y034845D02*
X054636D01*
X054405Y034614D01*
Y034286D01*
X054636Y034055D01*
X054649D01*
Y032112D01*
X054015Y031479D01*
X053976D01*
X053948Y031451D01*
X052802D01*
X052774Y031479D01*
X052626D01*
X052521Y031374D01*
Y031226D01*
X052626Y031121D01*
X052774D01*
X052802Y031149D01*
X053948D01*
X053976Y031121D01*
X054124D01*
X054229Y031226D01*
Y031265D01*
X054907Y031943D01*
X054951Y03205D01*
Y034055D01*
X054964D01*
X055195Y034286D01*
Y034614D01*
X054964Y034845D01*
D02*
G37*
G36*
X038672Y031365D02*
X03855D01*
Y031D01*
X038915D01*
Y031122D01*
X038672Y031365D01*
D02*
G37*
G36*
X03845D02*
X038328D01*
X038085Y031122D01*
Y031D01*
X03845D01*
Y031365D01*
D02*
G37*
G36*
X039672D02*
X039328D01*
X039085Y031122D01*
Y030778D01*
X039328Y030535D01*
X039672D01*
X039915Y030778D01*
Y031122D01*
X039672Y031365D01*
D02*
G37*
G36*
X038915Y0309D02*
X03855D01*
Y030535D01*
X038672D01*
X038915Y030778D01*
Y0309D01*
D02*
G37*
G36*
X03845D02*
X038085D01*
Y030778D01*
X038328Y030535D01*
X03845D01*
Y0309D01*
D02*
G37*
G36*
X035672Y031365D02*
X035328D01*
X035085Y031122D01*
Y030778D01*
X035328Y030535D01*
X035672D01*
X035915Y030778D01*
Y031122D01*
X035672Y031365D01*
D02*
G37*
G36*
X034672D02*
X034328D01*
X034085Y031122D01*
Y030778D01*
X034328Y030535D01*
X034672D01*
X034915Y030778D01*
Y031122D01*
X034672Y031365D01*
D02*
G37*
G36*
X033672D02*
X033328D01*
X033085Y031122D01*
Y030778D01*
X033328Y030535D01*
X033672D01*
X033915Y030778D01*
Y031122D01*
X033672Y031365D01*
D02*
G37*
G36*
X044598Y030438D02*
X04455D01*
Y03025D01*
X044738D01*
Y030299D01*
X044598Y030438D01*
D02*
G37*
G36*
X04445D02*
X044401D01*
X044262Y030299D01*
Y03025D01*
X04445D01*
Y030438D01*
D02*
G37*
G36*
X044738Y03015D02*
X04455D01*
Y029962D01*
X044598D01*
X044738Y030101D01*
Y03015D01*
D02*
G37*
G36*
X04445D02*
X044262D01*
Y030101D01*
X044401Y029962D01*
X04445D01*
Y03015D01*
D02*
G37*
G36*
X044648Y029438D02*
X0446D01*
Y02925D01*
X044788D01*
Y029299D01*
X044648Y029438D01*
D02*
G37*
G36*
X0445D02*
X044451D01*
X044312Y029299D01*
Y02925D01*
X0445D01*
Y029438D01*
D02*
G37*
G36*
X044788Y02915D02*
X0446D01*
Y028962D01*
X044648D01*
X044788Y029102D01*
Y02915D01*
D02*
G37*
G36*
X0445D02*
X044312D01*
Y029102D01*
X044451Y028962D01*
X0445D01*
Y02915D01*
D02*
G37*
G36*
X050799Y028238D02*
X05075D01*
Y02805D01*
X050938D01*
Y028098D01*
X050799Y028238D01*
D02*
G37*
G36*
X05065D02*
X050602D01*
X050462Y028098D01*
Y02805D01*
X05065D01*
Y028238D01*
D02*
G37*
G36*
X055774Y030679D02*
X055626D01*
X055521Y030574D01*
Y030426D01*
X055626Y030321D01*
X055665D01*
X057921Y028065D01*
Y028026D01*
X058026Y027921D01*
X058174D01*
X058279Y028026D01*
Y028174D01*
X058174Y028279D01*
X058135D01*
X055879Y030535D01*
Y030574D01*
X055774Y030679D01*
D02*
G37*
G36*
X050938Y02795D02*
X05075D01*
Y027762D01*
X050799D01*
X050938Y027901D01*
Y02795D01*
D02*
G37*
G36*
X05065D02*
X050462D01*
Y027901D01*
X050602Y027762D01*
X05065D01*
Y02795D01*
D02*
G37*
G36*
X049798Y026788D02*
X049601D01*
X049462Y026648D01*
Y026451D01*
X049601Y026312D01*
X049798D01*
X049938Y026451D01*
Y026648D01*
X049798Y026788D01*
D02*
G37*
G36*
X041649Y028688D02*
X041452D01*
X041312Y028549D01*
Y028352D01*
X041452Y028212D01*
X041484D01*
X043162Y026534D01*
Y026451D01*
X043302Y026312D01*
X043499D01*
X043638Y026451D01*
Y026648D01*
X043549Y026737D01*
X043537Y026767D01*
X041788Y028516D01*
Y028549D01*
X041649Y028688D01*
D02*
G37*
G36*
X049899Y025538D02*
X04985D01*
Y02535D01*
X050038D01*
Y025398D01*
X049899Y025538D01*
D02*
G37*
G36*
X04975D02*
X049701D01*
X049562Y025398D01*
Y02535D01*
X04975D01*
Y025538D01*
D02*
G37*
G36*
X050038Y02525D02*
X04985D01*
Y025062D01*
X049899D01*
X050038Y025201D01*
Y02525D01*
D02*
G37*
G36*
X04975D02*
X049562D01*
Y025201D01*
X049701Y025062D01*
X04975D01*
Y02525D01*
D02*
G37*
G36*
X036748Y025188D02*
X0367D01*
Y025D01*
X036888D01*
Y025048D01*
X036748Y025188D01*
D02*
G37*
G36*
X0366D02*
X036551D01*
X036412Y025048D01*
Y025D01*
X0366D01*
Y025188D01*
D02*
G37*
G36*
X036888Y0249D02*
X0367D01*
Y024712D01*
X036748D01*
X036888Y024852D01*
Y0249D01*
D02*
G37*
G36*
X0366D02*
X036412D01*
Y024852D01*
X036551Y024712D01*
X0366D01*
Y0249D01*
D02*
G37*
G36*
X041849Y023178D02*
X041652D01*
X041512Y023039D01*
Y022842D01*
X041652Y022703D01*
X041849D01*
X041988Y022842D01*
Y023039D01*
X041849Y023178D01*
D02*
G37*
G36*
X038098Y022888D02*
X03805D01*
Y0227D01*
X038238D01*
Y022748D01*
X038098Y022888D01*
D02*
G37*
G36*
X03795D02*
X037901D01*
X037762Y022748D01*
Y0227D01*
X03795D01*
Y022888D01*
D02*
G37*
G36*
X039702Y022792D02*
X039554D01*
X039449Y022687D01*
Y022539D01*
X039554Y022435D01*
X039702D01*
X039806Y022539D01*
Y022687D01*
X039702Y022792D01*
D02*
G37*
G36*
X038238Y0226D02*
X03805D01*
Y022412D01*
X038098D01*
X038238Y022552D01*
Y0226D01*
D02*
G37*
G36*
X03795D02*
X037762D01*
Y022552D01*
X037901Y022412D01*
X03795D01*
Y0226D01*
D02*
G37*
G36*
X052298Y019638D02*
X05225D01*
Y01945D01*
X052438D01*
Y019499D01*
X052298Y019638D01*
D02*
G37*
G36*
X05215D02*
X052101D01*
X051962Y019499D01*
Y01945D01*
X05215D01*
Y019638D01*
D02*
G37*
G36*
X054248Y019638D02*
X0542D01*
Y01945D01*
X054388D01*
Y019498D01*
X054248Y019638D01*
D02*
G37*
G36*
X0541D02*
X054051D01*
X053912Y019498D01*
Y01945D01*
X0541D01*
Y019638D01*
D02*
G37*
G36*
X043974Y031529D02*
X043826D01*
X043721Y031424D01*
Y031276D01*
X043749Y031248D01*
Y0238D01*
X043793Y023693D01*
X046893Y020593D01*
X046893Y020593D01*
X048121Y019365D01*
Y019326D01*
X048226Y019221D01*
X048374D01*
X048479Y019326D01*
Y019474D01*
X048374Y019579D01*
X048335D01*
X047107Y020807D01*
X047107Y020807D01*
X044051Y023862D01*
Y031248D01*
X044079Y031276D01*
Y031424D01*
X043974Y031529D01*
D02*
G37*
G36*
X052438Y01935D02*
X05225D01*
Y019163D01*
X052298D01*
X052438Y019302D01*
Y01935D01*
D02*
G37*
G36*
X05215D02*
X051962D01*
Y019302D01*
X052101Y019163D01*
X05215D01*
Y01935D01*
D02*
G37*
G36*
X054388Y01935D02*
X0542D01*
Y019162D01*
X054248D01*
X054388Y019302D01*
Y01935D01*
D02*
G37*
G36*
X0541D02*
X053912D01*
Y019302D01*
X054051Y019162D01*
X0541D01*
Y01935D01*
D02*
G37*
G36*
X038849Y018039D02*
X0388D01*
Y017851D01*
X038988D01*
Y017899D01*
X038849Y018039D01*
D02*
G37*
G36*
X0387D02*
X038651D01*
X038512Y017899D01*
Y017851D01*
X0387D01*
Y018039D01*
D02*
G37*
G36*
X038988Y017751D02*
X0388D01*
Y017563D01*
X038849D01*
X038988Y017702D01*
Y017751D01*
D02*
G37*
G36*
X0387D02*
X038512D01*
Y017702D01*
X038651Y017563D01*
X0387D01*
Y017751D01*
D02*
G37*
G36*
X047649Y017288D02*
X047452D01*
X047312Y017148D01*
Y016952D01*
X047452Y016812D01*
X047484D01*
X047558Y016739D01*
X047709Y016676D01*
X049228D01*
X049251Y016653D01*
X049448D01*
X049588Y016792D01*
Y016989D01*
X049448Y017128D01*
X049251D01*
X049228Y017105D01*
X047798D01*
X047788Y017116D01*
Y017148D01*
X047649Y017288D01*
D02*
G37*
G36*
X054964Y037845D02*
X054636D01*
X054405Y037614D01*
Y037301D01*
X044196D01*
X044089Y037257D01*
X043943Y037111D01*
X043899Y037004D01*
Y036902D01*
X043871Y036874D01*
Y036726D01*
X043976Y036621D01*
X044124D01*
X044229Y036726D01*
Y036874D01*
X044201Y036902D01*
Y036941D01*
X044259Y036999D01*
X053005D01*
X053046Y036899D01*
X053021Y036874D01*
Y036726D01*
X053049Y036698D01*
Y034671D01*
X053071Y034618D01*
Y034526D01*
X053176Y034421D01*
X053324D01*
X053429Y034526D01*
Y034674D01*
X053351Y034752D01*
Y036698D01*
X053379Y036726D01*
Y036874D01*
X053354Y036899D01*
X053395Y036999D01*
X0545D01*
X054607Y037043D01*
X054627Y037064D01*
X054636Y037055D01*
X054964D01*
X055195Y037286D01*
Y037349D01*
X055588D01*
X056049Y036888D01*
Y035D01*
X056093Y034893D01*
X059399Y031588D01*
Y022201D01*
X05265D01*
X052543Y022157D01*
X051265Y020879D01*
X051226D01*
X051121Y020774D01*
Y020626D01*
X051149Y020598D01*
Y019012D01*
X050793Y018657D01*
X050749Y01855D01*
Y0159D01*
X050793Y015793D01*
X050984Y015603D01*
X051091Y015559D01*
X051598D01*
X051626Y015531D01*
X051774D01*
X051879Y015635D01*
Y015783D01*
X051774Y015888D01*
X051626D01*
X051598Y01586D01*
X051153D01*
X051051Y015962D01*
Y018488D01*
X051407Y018843D01*
X051451Y01895D01*
Y020598D01*
X051479Y020626D01*
Y020665D01*
X052712Y021899D01*
X059504D01*
X059611Y021943D01*
X059657Y021989D01*
X059701Y022096D01*
Y03165D01*
X059657Y031757D01*
X056351Y035062D01*
Y03695D01*
X056307Y037057D01*
X055757Y037607D01*
X05565Y037651D01*
X055158D01*
X054964Y037845D01*
D02*
G37*
G36*
X03375Y0163D02*
X03195D01*
Y0151D01*
X03375D01*
Y0163D01*
D02*
G37*
G36*
X03545Y0156D02*
X0349D01*
Y01475D01*
X03545D01*
Y0156D01*
D02*
G37*
G36*
X0348D02*
X03425D01*
Y01475D01*
X0348D01*
Y0156D01*
D02*
G37*
G36*
X03545Y01465D02*
X0349D01*
Y0138D01*
X03545D01*
Y01465D01*
D02*
G37*
G36*
X0348D02*
X03425D01*
Y0138D01*
X0348D01*
Y01465D01*
D02*
G37*
G36*
X03375Y0138D02*
X0329D01*
Y01325D01*
X03375D01*
Y0138D01*
D02*
G37*
G36*
X0328D02*
X03195D01*
Y01325D01*
X0328D01*
Y0138D01*
D02*
G37*
G36*
X03375Y01315D02*
X0329D01*
Y0126D01*
X03375D01*
Y01315D01*
D02*
G37*
G36*
X0328D02*
X03195D01*
Y0126D01*
X0328D01*
Y01315D01*
D02*
G37*
G36*
X028644Y013228D02*
X028056D01*
X027513Y013003D01*
X027097Y012587D01*
X026872Y012044D01*
Y011456D01*
X027097Y010913D01*
X027513Y010497D01*
X028056Y010272D01*
X028644D01*
X029187Y010497D01*
X029603Y010913D01*
X029828Y011456D01*
Y012044D01*
X029603Y012587D01*
X029187Y013003D01*
X028644Y013228D01*
D02*
G37*
%LPD*%
D11*
X0365Y03095D02*
X03835Y0328D01*
X0529D01*
X04365Y0323D02*
X0529D01*
X04355Y0324D02*
X04365Y0323D01*
X03895Y0324D02*
X04355D01*
X0375Y03095D02*
X03895Y0324D01*
X04405Y0368D02*
Y037004D01*
X044196Y03715D01*
X0545D02*
X05485Y0375D01*
X044196Y03715D02*
X0545D01*
X0562Y035D02*
Y03695D01*
X05485Y0375D02*
X05565D01*
X0562Y03695D01*
X0557Y0305D02*
X0581Y0281D01*
X047Y0207D02*
Y0207D01*
X0439Y0238D02*
Y03135D01*
Y0238D02*
X047Y0207D01*
Y0207D02*
X0483Y0194D01*
X0483D01*
X05405Y0313D02*
X0548Y03205D01*
Y03445D01*
X0527Y0313D02*
X05405D01*
X0532Y034671D02*
Y0368D01*
Y034671D02*
X05325Y034621D01*
Y0346D02*
Y034621D01*
X0562Y035D02*
X05955Y03165D01*
Y022096D02*
Y03165D01*
X05265Y02205D02*
X059504D01*
X05955Y022096D01*
X0513Y0207D02*
X05265Y02205D01*
X0513Y01895D02*
Y0207D01*
X0509Y01855D02*
X0513Y01895D01*
X0509Y0159D02*
Y01855D01*
Y0159D02*
X051091Y015709D01*
X0517D01*
D73*
X036303Y027409D02*
X036401D01*
X03255Y03965D02*
X04025D01*
X03195Y0304D02*
Y03905D01*
X03255Y03965D01*
X03195Y0304D02*
X0328Y02955D01*
X03575D01*
X03633Y02897D01*
Y027424D02*
Y02897D01*
X04025Y03965D02*
X04205Y03785D01*
X043335Y034735D02*
X04335Y03475D01*
X04195Y0334D02*
X043285Y034735D01*
X043335D01*
X0445Y0302D02*
Y03155D01*
X04405Y032D02*
X0445Y03155D01*
X03955Y032D02*
X04405D01*
X0385Y03095D02*
X03955Y032D01*
X03641Y0274D02*
X03775D01*
X04105Y0241D01*
X036299Y027404D02*
X036303Y027409D01*
X036401D02*
X03641Y0274D01*
X04155Y02845D02*
X043385Y026615D01*
Y026565D02*
Y026615D01*
Y026565D02*
X0434Y02655D01*
X0445Y029271D02*
Y0302D01*
Y029271D02*
X04455Y029221D01*
Y0292D02*
Y029221D01*
X04105Y021165D02*
Y0241D01*
X0399Y02105D02*
X040935D01*
X04105Y021165D01*
X0393Y02185D02*
X040485D01*
Y02375D02*
X0406Y023635D01*
Y021965D02*
Y023635D01*
X040485Y02185D02*
X0406Y021965D01*
X03785Y02375D02*
X040485D01*
X05335Y03805D02*
Y0392D01*
X0536Y03945D02*
X0548D01*
X05335Y0392D02*
X0536Y03945D01*
X03785Y0228D02*
Y02375D01*
Y0228D02*
X038Y02265D01*
X03665Y02495D02*
X03785Y02375D01*
X0504Y0253D02*
X0507Y0256D01*
Y028D01*
X0498Y0253D02*
X0504D01*
X04755Y01705D02*
X047709Y016891D01*
X0522Y0194D02*
X05415D01*
X05415Y0194D01*
X047709Y016891D02*
X04935D01*
X05315Y03785D02*
X05335Y03805D01*
X04205Y03785D02*
X05315D01*
X03875Y0213D02*
X0393Y02185D01*
X03875Y017801D02*
Y0213D01*
D74*
X034389Y0132D02*
X03485Y013661D01*
X03285Y0132D02*
X034389D01*
X03485Y013661D02*
Y0147D01*
D75*
X029485Y011835D02*
D03*
X029128Y012599D02*
D03*
X028335Y012885D02*
D03*
X027572Y012528D02*
D03*
X027285Y011735D02*
D03*
X027643Y010972D02*
D03*
X028435Y010685D02*
D03*
X029199Y011043D02*
D03*
X028999Y038293D02*
D03*
X028235Y037935D02*
D03*
X027443Y038222D02*
D03*
X027085Y038985D02*
D03*
X027372Y039778D02*
D03*
X028135Y040135D02*
D03*
X028928Y039849D02*
D03*
X029285Y039085D02*
D03*
X064063Y024758D02*
D03*
X0633Y0244D02*
D03*
X062508Y024687D02*
D03*
X06215Y02545D02*
D03*
X062437Y026242D02*
D03*
X0632Y0266D02*
D03*
X063992Y026313D02*
D03*
X06435Y02555D02*
D03*
D76*
X02835Y01175D02*
D03*
X02815Y039D02*
D03*
X06325Y0255D02*
D03*
D77*
X048534Y034155D02*
D03*
X047811D02*
D03*
X048895Y034516D02*
D03*
X048172D02*
D03*
X04745D02*
D03*
X048534Y034878D02*
D03*
X047811D02*
D03*
X048895Y035239D02*
D03*
X048172D02*
D03*
X04745D02*
D03*
X048534Y0356D02*
D03*
X047811D02*
D03*
D78*
X0395Y03095D02*
D03*
X0385D02*
D03*
X0375D02*
D03*
X0365D02*
D03*
X0355D02*
D03*
X0345D02*
D03*
X0335D02*
D03*
D79*
X03485Y0147D02*
D03*
D80*
X03285Y0132D02*
D03*
Y0157D02*
D03*
D81*
X0548Y03945D02*
D03*
D82*
Y03845D02*
D03*
Y03745D02*
D03*
Y03645D02*
D03*
Y03545D02*
D03*
Y03445D02*
D03*
D83*
X0529Y0323D02*
D03*
X04405Y0368D02*
D03*
X0439Y03135D02*
D03*
X0557Y0305D02*
D03*
X0527Y0313D02*
D03*
X0529Y0328D02*
D03*
X0532Y0368D02*
D03*
X05325Y0346D02*
D03*
X0483Y0194D02*
D03*
X039628Y022613D02*
D03*
X05405Y0313D02*
D03*
X0513Y0207D02*
D03*
X0517Y015709D02*
D03*
X0581Y0281D02*
D03*
D84*
X0445Y0302D02*
D03*
X04195Y0334D02*
D03*
X04335Y03475D02*
D03*
X03633Y027424D02*
D03*
X0434Y02655D02*
D03*
X04155Y02845D02*
D03*
X0399Y02105D02*
D03*
X038Y02265D02*
D03*
X0507Y028D02*
D03*
X0498Y0253D02*
D03*
X04755Y01705D02*
D03*
X04455Y0292D02*
D03*
X05415Y0194D02*
D03*
X0522Y0194D02*
D03*
X04175Y022941D02*
D03*
X03665Y02495D02*
D03*
X03875Y017801D02*
D03*
X0497Y02655D02*
D03*
X04935Y016891D02*
D03*
M02*
