G04*
G04 #@! TF.GenerationSoftware,Altium Limited,Altium Designer,21.3.2 (30)*
G04*
G04 Layer_Color=65535*
%FSTAX24Y24*%
%MOIN*%
G70*
G04*
G04 #@! TF.SameCoordinates,F68421FC-E499-4976-B511-058DC5D6CA2F*
G04*
G04*
G04 #@! TF.FilePolarity,Positive*
G04*
G01*
G75*
%ADD10C,0.0118*%
%ADD11C,0.0079*%
%ADD12C,0.0060*%
%ADD13C,0.0050*%
%ADD14C,0.0098*%
%ADD15C,0.0320*%
%ADD16C,0.0394*%
%ADD17C,0.0040*%
%ADD18C,0.0100*%
%ADD19C,0.0070*%
%ADD20R,0.0522X0.1821*%
%ADD21R,0.1181X0.3307*%
%ADD22R,0.0500X0.1000*%
D10*
X028828Y010229D02*
G03*
X029534Y010636I-000408J001521D01*
G01*
X029799Y010998D02*
G03*
X03001Y011785I-001364J000787D01*
G01*
X027598Y010372D02*
G03*
X028385Y010161I000787J001364D01*
G01*
X027942Y013342D02*
G03*
X027236Y012934I000408J-001521D01*
G01*
X026829Y011342D02*
G03*
X027236Y010636I001521J000408D01*
G01*
X029942Y012228D02*
G03*
X029534Y012934I-001521J-000408D01*
G01*
X026972Y012573D02*
G03*
X026761Y011785I001364J-000787D01*
G01*
X029742Y039478D02*
G03*
X029334Y040184I-001521J-000408D01*
G01*
X029599Y038248D02*
G03*
X02981Y039035I-001364J000787D01*
G01*
X028628Y037479D02*
G03*
X029334Y037886I-000408J001521D01*
G01*
X027398Y037622D02*
G03*
X028185Y037411I000787J001364D01*
G01*
X026629Y038592D02*
G03*
X027036Y037886I001521J000408D01*
G01*
X026772Y039823D02*
G03*
X026561Y039035I001364J-000787D01*
G01*
X027742Y040592D02*
G03*
X027036Y040184I000408J-001521D01*
G01*
X028973Y040449D02*
G03*
X028185Y04066I-000787J-001364D01*
G01*
X029173Y013199D02*
G03*
X028385Y01341I-000787J-001364D01*
G01*
X064806Y025943D02*
G03*
X064399Y026649I-001521J-000408D01*
G01*
X064664Y024713D02*
G03*
X064875Y0255I-001364J000787D01*
G01*
X063693Y023944D02*
G03*
X064399Y024351I-000408J001521D01*
G01*
X062463Y024086D02*
G03*
X06325Y023875I000787J001364D01*
G01*
X061694Y025057D02*
G03*
X062101Y024351I001521J000408D01*
G01*
X061836Y026287D02*
G03*
X061625Y0255I001364J-000787D01*
G01*
X062807Y027057D02*
G03*
X062101Y026649I000408J-001521D01*
G01*
X064037Y026914D02*
G03*
X06325Y027125I-000787J-001364D01*
G01*
D11*
X044668Y037826D02*
G03*
X044668Y037826I-000039J0D01*
G01*
X04265Y03805D02*
X04286D01*
X04265D02*
Y04015D01*
X04334Y03896D02*
Y03924D01*
X04277Y03896D02*
Y03924D01*
X04265Y04015D02*
X04345D01*
Y03805D02*
Y04015D01*
X04286Y03805D02*
X04345D01*
X039251Y018081D02*
Y020719D01*
X038149Y018081D02*
Y020719D01*
Y018081D02*
X039251D01*
X038149Y020719D02*
X039251D01*
X03616Y02135D02*
X03675D01*
Y02345D01*
X03595D02*
X03675D01*
X03607Y02226D02*
Y02254D01*
X03664Y02226D02*
Y02254D01*
X03595Y02135D02*
Y02345D01*
Y02135D02*
X03616D01*
X05178Y01726D02*
X05209D01*
Y01534D02*
Y01726D01*
X05143Y01616D02*
Y01644D01*
X05196Y01616D02*
Y01644D01*
X05131Y01534D02*
X05209D01*
X05131D02*
Y01726D01*
X05178D01*
X03951Y01551D02*
X03998D01*
X03951Y01359D02*
Y01551D01*
Y01359D02*
X04029D01*
X04016Y01441D02*
Y01469D01*
X03963Y01441D02*
Y01469D01*
X04029Y01359D02*
Y01551D01*
X03998D02*
X04029D01*
X042247D02*
X042557D01*
Y01359D02*
Y01551D01*
X041897Y01441D02*
Y01469D01*
X042427Y01441D02*
Y01469D01*
X041777Y01359D02*
X042557D01*
X041777D02*
Y01551D01*
X042247D01*
X03535Y0174D02*
X03556D01*
X03535D02*
Y0195D01*
X03604Y01831D02*
Y01859D01*
X03547Y01831D02*
Y01859D01*
X03535Y0195D02*
X03615D01*
Y0174D02*
Y0195D01*
X03556Y0174D02*
X03615D01*
X04678Y01551D02*
X04709D01*
Y01359D02*
Y01551D01*
X04643Y01441D02*
Y01469D01*
X04696Y01441D02*
Y01469D01*
X04631Y01359D02*
X04709D01*
X04631D02*
Y01551D01*
X04678D01*
X044513D02*
X044823D01*
Y01359D02*
Y01551D01*
X044163Y01441D02*
Y01469D01*
X044693Y01441D02*
Y01469D01*
X044043Y01359D02*
X044823D01*
X044043D02*
Y01551D01*
X044513D01*
X04896Y01726D02*
X04943D01*
X04896Y01534D02*
Y01726D01*
Y01534D02*
X04974D01*
X04961Y01616D02*
Y01644D01*
X04908Y01616D02*
Y01644D01*
X04974Y01534D02*
Y01726D01*
X04943D02*
X04974D01*
X05371Y01731D02*
X05418D01*
X05371Y01539D02*
Y01731D01*
Y01539D02*
X05449D01*
X05436Y01621D02*
Y01649D01*
X05383Y01621D02*
Y01649D01*
X05449Y01539D02*
Y01731D01*
X05418D02*
X05449D01*
X05375Y019D02*
X05396D01*
X05375D02*
Y0211D01*
X05444Y01991D02*
Y02019D01*
X05387Y01991D02*
Y02019D01*
X05375Y0211D02*
X05455D01*
Y019D02*
Y0211D01*
X05396Y019D02*
X05455D01*
X0518D02*
X05201D01*
X0518D02*
Y0211D01*
X05249Y01991D02*
Y02019D01*
X05192Y01991D02*
Y02019D01*
X0518Y0211D02*
X0526D01*
Y019D02*
Y0211D01*
X05201Y019D02*
X0526D01*
X04985D02*
X05006D01*
X04985D02*
Y0211D01*
X05054Y01991D02*
Y02019D01*
X04997Y01991D02*
Y02019D01*
X04985Y0211D02*
X05065D01*
Y019D02*
Y0211D01*
X05006Y019D02*
X05065D01*
X0479Y0211D02*
X04849D01*
X0479Y019D02*
Y0211D01*
Y019D02*
X0487D01*
X04858Y01991D02*
Y02019D01*
X04801Y01991D02*
Y02019D01*
X0487Y019D02*
Y0211D01*
X04849D02*
X0487D01*
X051932Y022772D02*
X058231D01*
X051932Y029465D02*
X058231D01*
X051932Y022772D02*
Y029465D01*
X058231Y022772D02*
Y029465D01*
X0493Y0296D02*
X04989D01*
X0493Y0275D02*
Y0296D01*
Y0275D02*
X0501D01*
X04998Y02841D02*
Y02869D01*
X04941Y02841D02*
Y02869D01*
X0501Y0275D02*
Y0296D01*
X04989D02*
X0501D01*
X04951Y02485D02*
X0501D01*
Y02695D01*
X0493D02*
X0501D01*
X04942Y02576D02*
Y02604D01*
X04999Y02576D02*
Y02604D01*
X0493Y02485D02*
Y02695D01*
Y02485D02*
X04951D01*
X04167Y02139D02*
X04214D01*
Y02331D01*
X04136D02*
X04214D01*
X04149Y02221D02*
Y02249D01*
X04202Y02221D02*
Y02249D01*
X04136Y02139D02*
Y02331D01*
Y02139D02*
X04167D01*
X037863Y022158D02*
X039812D01*
X037863Y023142D02*
X039812D01*
X027638Y022715D02*
Y027046D01*
X034527D01*
Y022715D02*
Y027046D01*
X027638Y022715D02*
X034527D01*
X0537Y034D02*
X05588D01*
X0537Y0399D02*
X05588D01*
Y034D02*
Y0399D01*
X0537Y034D02*
Y0399D01*
X0426Y0376D02*
X04319D01*
X0426Y0355D02*
Y0376D01*
Y0355D02*
X0434D01*
X04328Y03641D02*
Y03669D01*
X04271Y03641D02*
Y03669D01*
X0434Y0355D02*
Y0376D01*
X04319D02*
X0434D01*
D12*
X03549Y027424D02*
G03*
X03543Y027424I-00003J0D01*
G01*
D02*
G03*
X03549Y027424I00003J0D01*
G01*
X04075Y028624D02*
Y029894D01*
X03581Y024954D02*
Y026224D01*
Y028624D02*
Y029894D01*
X04075D01*
Y024954D02*
Y026224D01*
X03581Y024954D02*
X04075D01*
D13*
X03388Y0286D02*
G03*
X03388Y0286I-00128J0D01*
G01*
X034358Y0194D02*
G03*
X034358Y0194I-002608J0D01*
G01*
X052109Y03822D02*
Y040779D01*
X045023D02*
X052109D01*
X045023Y03822D02*
Y040779D01*
X052109Y03074D02*
Y030996D01*
X051145Y03074D02*
X052109D01*
X045023D02*
X045987D01*
X045023D02*
Y030996D01*
X03132Y027301D02*
Y0286D01*
Y027301D02*
X033919D01*
X033919Y027301D02*
Y0286D01*
X033525Y027301D02*
X033919Y027694D01*
X03132Y0286D02*
Y029899D01*
X033919D01*
X033919Y029899D02*
X033919Y029899D01*
X033919Y0286D02*
Y029899D01*
Y028295D02*
X034175D01*
X033525Y029899D02*
X033919Y029506D01*
Y0286D02*
Y029643D01*
Y028905D02*
X034175D01*
X031055Y028295D02*
X03132D01*
X031055Y028905D02*
X03132D01*
X029043Y021428D02*
X029043Y021428D01*
Y021664D02*
X029437Y022057D01*
X029043Y0194D02*
Y022057D01*
X029043Y022057D02*
X029043Y022057D01*
X029043Y022057D02*
X034358D01*
Y0194D02*
Y022057D01*
X029043Y017372D02*
X029043Y017372D01*
Y017136D02*
X029437Y016743D01*
X028787Y019095D02*
X029043D01*
X034358Y019705D02*
X034624D01*
X034358Y019095D02*
X034624D01*
X028787Y019705D02*
X029043D01*
Y016743D02*
Y0194D01*
X029043Y016743D02*
X029043Y016743D01*
X029043Y016743D02*
X034358D01*
Y0194D01*
X039074Y022178D02*
Y023122D01*
D14*
X039891Y018081D02*
G03*
X039891Y018081I-000049J0D01*
G01*
D15*
X053051Y028874D02*
G03*
X053051Y028874I-000039J0D01*
G01*
D16*
X0316Y0303D02*
Y04025D01*
Y0303D02*
X04125D01*
X0316Y04025D02*
X0412D01*
X04125Y0303D02*
Y0402D01*
D17*
X0395Y01121D02*
X03952D01*
X0395Y01251D02*
X03953D01*
X04028D02*
X0403D01*
X04028Y01121D02*
X0403D01*
X0395D02*
Y01251D01*
X0403Y01121D02*
Y01251D01*
X044833Y01121D02*
Y01251D01*
X044033Y01121D02*
Y01251D01*
X044813Y01121D02*
X044833D01*
X044813Y01251D02*
X044833D01*
X044033D02*
X044063D01*
X044033Y01121D02*
X044053D01*
X041767D02*
X041787D01*
X041767Y01251D02*
X041797D01*
X042547D02*
X042567D01*
X042547Y01121D02*
X042567D01*
X041767D02*
Y01251D01*
X042567Y01121D02*
Y01251D01*
X0471Y01121D02*
Y01251D01*
X0463Y01121D02*
Y01251D01*
X04708Y01121D02*
X0471D01*
X04708Y01251D02*
X0471D01*
X0463D02*
X04633D01*
X0463Y01121D02*
X04632D01*
X0421Y01854D02*
Y01984D01*
X0413Y01854D02*
Y01984D01*
X04208Y01854D02*
X0421D01*
X04208Y01984D02*
X0421D01*
X0413D02*
X04133D01*
X0413Y01854D02*
X04132D01*
X033702Y028297D02*
X033469D01*
X033586Y02818D02*
Y028414D01*
X029634Y019988D02*
X029867D01*
X02975Y020105D02*
Y019872D01*
D18*
X04892Y01139D02*
X04937D01*
X04993D02*
X05038D01*
Y01361D01*
X04892Y01139D02*
Y01361D01*
X0494Y012D02*
Y013D01*
X0499D01*
Y012D02*
Y013D01*
X0494Y012D02*
X0499D01*
X04892Y01361D02*
X04937D01*
X04993D02*
X05038D01*
X05107Y01139D02*
X05152D01*
X05208D02*
X05253D01*
Y01361D01*
X05107Y01139D02*
Y01361D01*
X05155Y012D02*
Y013D01*
X05205D01*
Y012D02*
Y013D01*
X05155Y012D02*
X05205D01*
X05107Y01361D02*
X05152D01*
X05208D02*
X05253D01*
X05337Y01139D02*
X05382D01*
X05438D02*
X05483D01*
Y01361D01*
X05337Y01139D02*
Y01361D01*
X05385Y012D02*
Y013D01*
X05435D01*
Y012D02*
Y013D01*
X05385Y012D02*
X05435D01*
X05337Y01361D02*
X05382D01*
X05438D02*
X05483D01*
X0272Y02135D02*
X0271Y02145D01*
X0269D01*
X0268Y02135D01*
Y02095D01*
X0269Y02085D01*
X0271D01*
X0272Y02095D01*
X0274Y02085D02*
X0276D01*
X0275D01*
Y02145D01*
X0274Y02135D01*
X0279D02*
X028Y02145D01*
X0282D01*
X0283Y02135D01*
Y02095D01*
X0282Y02085D01*
X028D01*
X0279Y02095D01*
Y02135D01*
X0369Y01845D02*
Y01795D01*
X037Y01785D01*
X0372D01*
X0373Y01795D01*
Y01845D01*
X0379Y01785D02*
X0375D01*
X0379Y01825D01*
Y01835D01*
X0378Y01845D01*
X0376D01*
X0375Y01835D01*
X05635Y0305D02*
Y0299D01*
X05675D01*
X05725Y0305D02*
X05705D01*
X05695Y0304D01*
Y03D01*
X05705Y0299D01*
X05725D01*
X05735Y03D01*
Y0304D01*
X05725Y0305D01*
X05755Y0299D02*
Y0305D01*
X05785D01*
X05795Y0304D01*
Y0302D01*
X05785Y0301D01*
X05755D01*
X05775D02*
X05795Y0299D01*
X05815D02*
Y0303D01*
X05835Y0305D01*
X05855Y0303D01*
Y0299D01*
Y0302D01*
X05815D01*
X02945Y02955D02*
X02935Y02965D01*
X02915D01*
X02905Y02955D01*
Y02915D01*
X02915Y02905D01*
X02935D01*
X02945Y02915D01*
X02965Y02905D02*
X02985D01*
X02975D01*
Y02965D01*
X02965Y02955D01*
X03045Y02905D02*
Y02965D01*
X03015Y02935D01*
X03055D01*
X0411Y0277D02*
Y0271D01*
X0415D01*
X0421Y0277D02*
X0419Y0276D01*
X0417Y0274D01*
Y0272D01*
X0418Y0271D01*
X042D01*
X0421Y0272D01*
Y0273D01*
X042Y0274D01*
X0417D01*
X03585Y01115D02*
Y01075D01*
X03545Y01115D01*
X03535D01*
X03525Y01105D01*
Y01085D01*
X03535Y01075D01*
X03585Y01165D02*
X03525D01*
X03555Y01135D01*
Y01175D01*
X03525Y01195D02*
X03565D01*
X03585Y01215D01*
X03565Y01235D01*
X03525D01*
Y01255D02*
X03585D01*
Y01285D01*
X03575Y01295D01*
X03535D01*
X03525Y01285D01*
Y01255D01*
X03535Y01355D02*
X03525Y01345D01*
Y01325D01*
X03535Y01315D01*
X03575D01*
X03585Y01325D01*
Y01345D01*
X03575Y01355D01*
X03845Y024D02*
Y0234D01*
X03875D01*
X03885Y0235D01*
Y0239D01*
X03875Y024D01*
X03845D01*
X03905Y0234D02*
X03925D01*
X03915D01*
Y024D01*
X03905Y0239D01*
X0277Y02799D02*
Y02749D01*
X0278Y02739D01*
X028D01*
X0281Y02749D01*
Y02799D01*
X0283Y02739D02*
X0285D01*
X0284D01*
Y02799D01*
X0283Y02789D01*
X0549Y0335D02*
X0548Y0336D01*
X0546D01*
X0545Y0335D01*
Y0331D01*
X0546Y033D01*
X0548D01*
X0549Y0331D01*
X0551Y033D02*
X0553D01*
X0552D01*
Y0336D01*
X0551Y0335D01*
X0556D02*
X0557Y0336D01*
X0559D01*
X056Y0335D01*
Y0334D01*
X0559Y0333D01*
X0558D01*
X0559D01*
X056Y0332D01*
Y0331D01*
X0559Y033D01*
X0557D01*
X0556Y0331D01*
X04865Y0175D02*
Y0181D01*
X04895D01*
X04905Y018D01*
Y0178D01*
X04895Y0177D01*
X04865D01*
X04885D02*
X04905Y0175D01*
X04925D02*
X04945D01*
X04935D01*
Y0181D01*
X04925Y018D01*
X05015Y0175D02*
X04975D01*
X05015Y0179D01*
Y018D01*
X05005Y0181D01*
X04985D01*
X04975Y018D01*
X048Y02195D02*
X0479Y02205D01*
X0477D01*
X0476Y02195D01*
Y02155D01*
X0477Y02145D01*
X0479D01*
X048Y02155D01*
X0482Y02145D02*
X0484D01*
X0483D01*
Y02205D01*
X0482Y02195D01*
X0491Y02205D02*
X0487D01*
Y02175D01*
X0489Y02185D01*
X049D01*
X0491Y02175D01*
Y02155D01*
X049Y02145D01*
X0488D01*
X0487Y02155D01*
X048864Y01505D02*
Y01445D01*
X049163D01*
X049263Y01455D01*
Y01465D01*
X049163Y01475D01*
X048864D01*
X049163D01*
X049263Y01485D01*
Y01495D01*
X049163Y01505D01*
X048864D01*
X049463D02*
X049863D01*
X049663D01*
Y01445D01*
X050063Y01495D02*
X050163Y01505D01*
X050363D01*
X050463Y01495D01*
Y01485D01*
X050363Y01475D01*
X050263D01*
X050363D01*
X050463Y01465D01*
Y01455D01*
X050363Y01445D01*
X050163D01*
X050063Y01455D01*
X046025Y01566D02*
Y01626D01*
X046325D01*
X046425Y01616D01*
Y01596D01*
X046325Y01586D01*
X046025D01*
X046225D02*
X046425Y01566D01*
X046625D02*
X046825D01*
X046725D01*
Y01626D01*
X046625Y01616D01*
X047125Y01566D02*
X047325D01*
X047225D01*
Y01626D01*
X047125Y01616D01*
X043765Y01565D02*
Y01625D01*
X044065D01*
X044165Y01615D01*
Y01595D01*
X044065Y01585D01*
X043765D01*
X043965D02*
X044165Y01565D01*
X044365D02*
X044565D01*
X044465D01*
Y01625D01*
X044365Y01615D01*
X044864D02*
X044964Y01625D01*
X045164D01*
X045264Y01615D01*
Y01575D01*
X045164Y01565D01*
X044964D01*
X044864Y01575D01*
Y01615D01*
X041617Y01571D02*
Y016309D01*
X041917D01*
X042017Y016209D01*
Y016009D01*
X041917Y015909D01*
X041617D01*
X041817D02*
X042017Y01571D01*
X042217Y01581D02*
X042317Y01571D01*
X042517D01*
X042617Y01581D01*
Y016209D01*
X042517Y016309D01*
X042317D01*
X042217Y016209D01*
Y016109D01*
X042317Y016009D01*
X042617D01*
X0395Y01565D02*
Y01625D01*
X0398D01*
X0399Y01615D01*
Y01595D01*
X0398Y01585D01*
X0395D01*
X0397D02*
X0399Y01565D01*
X0401Y01615D02*
X0402Y01625D01*
X0404D01*
X0405Y01615D01*
Y01605D01*
X0404Y01595D01*
X0405Y01585D01*
Y01575D01*
X0404Y01565D01*
X0402D01*
X0401Y01575D01*
Y01585D01*
X0402Y01595D01*
X0401Y01605D01*
Y01615D01*
X0402Y01595D02*
X0404D01*
X0518Y015D02*
X0514D01*
Y0144D01*
X0518D01*
X0514Y0147D02*
X0516D01*
X052Y0144D02*
Y015D01*
X0524Y0144D01*
Y015D01*
X0364Y035D02*
X0363Y0349D01*
Y0347D01*
X0364Y0346D01*
X0365D01*
X0366Y0347D01*
Y0349D01*
X0367Y035D01*
X0368D01*
X0369Y0349D01*
Y0347D01*
X0368Y0346D01*
X0363Y0352D02*
Y0354D01*
Y0353D01*
X0369D01*
Y0352D01*
Y0354D01*
Y0357D02*
X0363D01*
X0365Y0359D01*
X0363Y0361D01*
X0369D01*
X0413Y0237D02*
Y0243D01*
X0416D01*
X0417Y0242D01*
Y024D01*
X0416Y0239D01*
X0413D01*
X0415D02*
X0417Y0237D01*
X0419Y0242D02*
X042Y0243D01*
X0422D01*
X0423Y0242D01*
Y0241D01*
X0422Y024D01*
X0421D01*
X0422D01*
X0423Y0239D01*
Y0238D01*
X0422Y0237D01*
X042D01*
X0419Y0238D01*
X05125Y01745D02*
Y01805D01*
X05155D01*
X05165Y01795D01*
Y01775D01*
X05155Y01765D01*
X05125D01*
X05145D02*
X05165Y01745D01*
X05225D02*
X05185D01*
X05225Y01785D01*
Y01795D01*
X05215Y01805D01*
X05195D01*
X05185Y01795D01*
X05365Y0175D02*
Y0181D01*
X05395D01*
X05405Y018D01*
Y0178D01*
X05395Y0177D01*
X05365D01*
X05385D02*
X05405Y0175D01*
X05425D02*
X05445D01*
X05435D01*
Y0181D01*
X05425Y018D01*
X0455Y01142D02*
X0461D01*
Y01182D01*
X0455Y01242D02*
Y01202D01*
X0458D01*
X0457Y01222D01*
Y01232D01*
X0458Y01242D01*
X046D01*
X0461Y01232D01*
Y01212D01*
X046Y01202D01*
X043183Y01137D02*
X043783D01*
Y01177D01*
Y01227D02*
X043183D01*
X043483Y01197D01*
Y01237D01*
X040978Y011546D02*
X041578D01*
Y011946D01*
X041078Y012146D02*
X040978Y012246D01*
Y012446D01*
X041078Y012546D01*
X041178D01*
X041278Y012446D01*
Y012346D01*
Y012446D01*
X041378Y012546D01*
X041478D01*
X041578Y012446D01*
Y012246D01*
X041478Y012146D01*
X03875Y01142D02*
X03935D01*
Y01182D01*
Y01242D02*
Y01202D01*
X03895Y01242D01*
X03885D01*
X03875Y01232D01*
Y01212D01*
X03885Y01202D01*
X0413Y02095D02*
Y02035D01*
X0417D01*
X0419D02*
X0421D01*
X042D01*
Y02095D01*
X0419Y02085D01*
X036318Y024296D02*
X036218Y024396D01*
X036018D01*
X035919Y024296D01*
Y023896D01*
X036018Y023796D01*
X036218D01*
X036318Y023896D01*
X036518D02*
X036618Y023796D01*
X036818D01*
X036918Y023896D01*
Y024296D01*
X036818Y024396D01*
X036618D01*
X036518Y024296D01*
Y024196D01*
X036618Y024096D01*
X036918D01*
X035613Y020346D02*
X035513Y020446D01*
X035313D01*
X035213Y020346D01*
Y019946D01*
X035313Y019846D01*
X035513D01*
X035613Y019946D01*
X035813Y020346D02*
X035913Y020446D01*
X036113D01*
X036213Y020346D01*
Y020246D01*
X036113Y020146D01*
X036213Y020046D01*
Y019946D01*
X036113Y019846D01*
X035913D01*
X035813Y019946D01*
Y020046D01*
X035913Y020146D01*
X035813Y020246D01*
Y020346D01*
X035913Y020146D02*
X036113D01*
X0523Y02195D02*
X0522Y02205D01*
X052D01*
X0519Y02195D01*
Y02155D01*
X052Y02145D01*
X0522D01*
X0523Y02155D01*
X0525Y02205D02*
X0529D01*
Y02195D01*
X0525Y02155D01*
Y02145D01*
X05015Y02195D02*
X05005Y02205D01*
X04985D01*
X04975Y02195D01*
Y02155D01*
X04985Y02145D01*
X05005D01*
X05015Y02155D01*
X05075Y02205D02*
X05055Y02195D01*
X05035Y02175D01*
Y02155D01*
X05045Y02145D01*
X05065D01*
X05075Y02155D01*
Y02165D01*
X05065Y02175D01*
X05035D01*
X05415Y0219D02*
X05405Y022D01*
X05385D01*
X05375Y0219D01*
Y0215D01*
X05385Y0214D01*
X05405D01*
X05415Y0215D01*
X05475Y022D02*
X05435D01*
Y0217D01*
X05455Y0218D01*
X05465D01*
X05475Y0217D01*
Y0215D01*
X05465Y0214D01*
X05445D01*
X05435Y0215D01*
X05065Y02895D02*
X05055Y02905D01*
X05035D01*
X05025Y02895D01*
Y02855D01*
X05035Y02845D01*
X05055D01*
X05065Y02855D01*
X05115Y02845D02*
Y02905D01*
X05085Y02875D01*
X05125D01*
X0507Y02625D02*
X0506Y02635D01*
X0504D01*
X0503Y02625D01*
Y02585D01*
X0504Y02575D01*
X0506D01*
X0507Y02585D01*
X0509Y02625D02*
X051Y02635D01*
X0512D01*
X0513Y02625D01*
Y02615D01*
X0512Y02605D01*
X0511D01*
X0512D01*
X0513Y02595D01*
Y02585D01*
X0512Y02575D01*
X051D01*
X0509Y02585D01*
X0532Y015D02*
Y0144D01*
X0535D01*
X0536Y0145D01*
Y0146D01*
X0535Y0147D01*
X0532D01*
X0535D01*
X0536Y0148D01*
Y0149D01*
X0535Y015D01*
X0532D01*
X0539Y0144D02*
X0541D01*
X0542Y0145D01*
Y0147D01*
X0541Y0148D01*
X0539D01*
X0538Y0147D01*
Y0145D01*
X0539Y0144D01*
X0545D02*
X0547D01*
X0548Y0145D01*
Y0147D01*
X0547Y0148D01*
X0545D01*
X0544Y0147D01*
Y0145D01*
X0545Y0144D01*
X0551Y0149D02*
Y0148D01*
X055D01*
X0552D01*
X0551D01*
Y0145D01*
X0552Y0144D01*
D19*
X03135Y0109D02*
X03465D01*
Y0102D02*
Y01565D01*
X03135Y0102D02*
Y01565D01*
X03465D01*
X03135Y0102D02*
X03465D01*
D20*
X032083Y028595D02*
D03*
D21*
X033069Y0194D02*
D03*
D22*
X04965Y0125D02*
D03*
X0518D02*
D03*
X0541Y0125D02*
D03*
M02*
