M48
;Layer_Color=9474304
;FILE_FORMAT=2:4
INCH,LZ
;TYPE=PLATED
T1F00S00C0.0079
T2F00S00C0.0157
T3F00S00C0.0197
T4F00S00C0.0315
T5F00S00C0.0354
T7F00S00C0.1575
%
T01
X0517Y015709
X0513Y0207
X0483Y0194
X0557Y0305
X0581Y0281
X039628Y022613
X0439Y03135
X04405Y0368
X04745Y035239
Y034516
X048172
X047811Y034878
Y034155
X048534
X048895Y034516
X048534Y034878
X048895Y035239
X048534Y0356
X048172Y035239
X047811Y0356
X05325Y0346
X0529Y0328
Y0323
X0527Y0313
X05405
X0532Y0368
T02
X04755Y01705
X04935Y016891
X0522Y0194
X05415Y0194
X0498Y0253
X0497Y02655
X0507Y028
X04455Y0292
X0445Y0302
X04155Y02845
X0434Y02655
X04175Y022941
X0399Y02105
X038Y02265
X03665Y02495
X03633Y027424
X03875Y017801
X04195Y0334
X04335Y03475
T03
X027643Y010972
X028435Y010685
X029199Y011043
X029485Y011835
X029128Y012599
X028335Y012885
X027572Y012528
X027285Y011735
X062508Y024687
X0633Y0244
X064063Y024758
X06435Y02555
X063992Y026313
X0632Y0266
X062437Y026242
X06215Y02545
X028999Y038293
X029285Y039085
X028928Y039849
X028135Y040135
X027372Y039778
X027085Y038985
X027443Y038222
X028235Y037935
T04
X0335Y03095
X0345
X0355
X0365
X0375
X0385
X0395
T05
X0548Y03445
Y03545
Y03645
Y03745
Y03845
Y03945
T07
X02835Y01175
X06325Y0255
X02815Y039
M30
