G04*
G04 #@! TF.GenerationSoftware,Altium Limited,Altium Designer,21.3.2 (30)*
G04*
G04 Layer_Color=255*
%FSTAX24Y24*%
%MOIN*%
G70*
G04*
G04 #@! TF.SameCoordinates,F68421FC-E499-4976-B511-058DC5D6CA2F*
G04*
G04*
G04 #@! TF.FilePolarity,Positive*
G04*
G01*
G75*
%ADD23R,0.0524X0.0524*%
%ADD24R,0.0787X0.0354*%
%ADD25R,0.0354X0.0787*%
%ADD26R,0.0669X0.0669*%
%ADD27R,0.1140X0.2130*%
%ADD28R,0.1181X0.0276*%
%ADD29O,0.1181X0.0276*%
%ADD30R,0.0945X0.0394*%
%ADD31R,0.0945X0.1299*%
%ADD32R,0.2000X0.0591*%
%ADD33O,0.2000X0.0591*%
%ADD34R,0.0630X0.0591*%
%ADD35R,0.0650X0.0600*%
%ADD36R,0.0315X0.0472*%
%ADD37R,0.1024X0.0433*%
%ADD38R,0.1102X0.0433*%
%ADD39R,0.0886X0.0610*%
%ADD40R,0.1378X0.0472*%
%ADD41R,0.0984X0.4134*%
%ADD42R,0.2559X0.3346*%
%ADD75C,0.0197*%
%ADD76C,0.2756*%
%ADD77C,0.0118*%
%ADD78C,0.0630*%
%ADD79R,0.1000X0.1600*%
%ADD80R,0.1600X0.1000*%
%ADD81R,0.0591X0.0591*%
%ADD82C,0.0591*%
D23*
X048172Y034155D02*
D03*
X04745D02*
D03*
X048895Y034878D02*
D03*
X048172D02*
D03*
X04745D02*
D03*
X048895Y0356D02*
D03*
X048172D02*
D03*
X04745D02*
D03*
X048895Y034155D02*
D03*
D24*
X051913Y03783D02*
D03*
Y03733D02*
D03*
Y03683D02*
D03*
Y03633D02*
D03*
Y03583D02*
D03*
Y03533D02*
D03*
Y03483D02*
D03*
Y03433D02*
D03*
Y03383D02*
D03*
Y03333D02*
D03*
Y03283D02*
D03*
Y03233D02*
D03*
Y03183D02*
D03*
Y03133D02*
D03*
X04522D02*
D03*
Y03183D02*
D03*
Y03233D02*
D03*
Y03283D02*
D03*
Y03333D02*
D03*
Y03383D02*
D03*
Y03433D02*
D03*
Y03483D02*
D03*
Y03533D02*
D03*
Y03583D02*
D03*
Y03633D02*
D03*
Y03683D02*
D03*
Y03733D02*
D03*
Y03783D02*
D03*
D25*
X050816Y030937D02*
D03*
X050316D02*
D03*
X049816D02*
D03*
X049316D02*
D03*
X048816D02*
D03*
X048316D02*
D03*
X047816D02*
D03*
X047316D02*
D03*
X046816D02*
D03*
X046316D02*
D03*
D26*
X04305Y03845D02*
D03*
Y03975D02*
D03*
X03635Y02305D02*
D03*
Y02175D02*
D03*
X03575Y017801D02*
D03*
Y0191D02*
D03*
X05415Y0194D02*
D03*
Y0207D02*
D03*
X0522Y0194D02*
D03*
Y0207D02*
D03*
X05025Y0194D02*
D03*
Y0207D02*
D03*
X0483Y0194D02*
D03*
Y0207D02*
D03*
X0497Y0279D02*
D03*
Y029199D02*
D03*
Y02655D02*
D03*
Y02525D02*
D03*
X043Y0359D02*
D03*
Y0372D02*
D03*
D27*
X04023Y027424D02*
D03*
X03633D02*
D03*
D28*
X0337Y0286D02*
D03*
D29*
X0315D02*
D03*
D30*
X039842Y018494D02*
D03*
Y0194D02*
D03*
Y020306D02*
D03*
D31*
X037558Y0194D02*
D03*
D32*
X0297D02*
D03*
D33*
X03375D02*
D03*
D34*
X0517Y016891D02*
D03*
Y015709D02*
D03*
X0399Y013959D02*
D03*
Y015141D02*
D03*
X042167D02*
D03*
Y013959D02*
D03*
X0467Y015141D02*
D03*
Y013959D02*
D03*
X044433Y015141D02*
D03*
Y013959D02*
D03*
X04935Y015709D02*
D03*
Y016891D02*
D03*
X0541Y015759D02*
D03*
Y016941D02*
D03*
X04175Y022941D02*
D03*
Y021759D02*
D03*
D35*
X0399Y01257D02*
D03*
Y01115D02*
D03*
X044433D02*
D03*
Y01257D02*
D03*
X042167D02*
D03*
Y01115D02*
D03*
X0467D02*
D03*
Y01257D02*
D03*
X0417Y01848D02*
D03*
Y0199D02*
D03*
D36*
X04965Y011122D02*
D03*
Y013878D02*
D03*
X0518Y011122D02*
D03*
Y013878D02*
D03*
X0541Y011122D02*
D03*
Y013878D02*
D03*
D37*
X058113Y028874D02*
D03*
Y028087D02*
D03*
Y0273D02*
D03*
Y026512D02*
D03*
Y025725D02*
D03*
Y024937D02*
D03*
Y02415D02*
D03*
Y023363D02*
D03*
X05205D02*
D03*
Y02415D02*
D03*
Y024937D02*
D03*
Y025725D02*
D03*
Y026512D02*
D03*
Y0273D02*
D03*
Y028087D02*
D03*
D38*
X052089Y028874D02*
D03*
D39*
X039625Y02265D02*
D03*
X03805D02*
D03*
D40*
X03375Y023542D02*
D03*
Y024211D02*
D03*
Y024881D02*
D03*
Y02555D02*
D03*
Y026219D02*
D03*
D41*
X028228Y024881D02*
D03*
D42*
X029508D02*
D03*
D75*
X029485Y011835D02*
D03*
X029128Y012599D02*
D03*
X028335Y012885D02*
D03*
X027572Y012528D02*
D03*
X027285Y011735D02*
D03*
X027643Y010972D02*
D03*
X028435Y010685D02*
D03*
X029199Y011043D02*
D03*
X028999Y038293D02*
D03*
X028235Y037935D02*
D03*
X027443Y038222D02*
D03*
X027085Y038985D02*
D03*
X027372Y039778D02*
D03*
X028135Y040135D02*
D03*
X028928Y039849D02*
D03*
X029285Y039085D02*
D03*
X064063Y024758D02*
D03*
X0633Y0244D02*
D03*
X062508Y024687D02*
D03*
X06215Y02545D02*
D03*
X062437Y026242D02*
D03*
X0632Y0266D02*
D03*
X063992Y026313D02*
D03*
X06435Y02555D02*
D03*
D76*
X02835Y01175D02*
D03*
X02815Y039D02*
D03*
X06325Y0255D02*
D03*
D77*
X048534Y034155D02*
D03*
X047811D02*
D03*
X048895Y034516D02*
D03*
X048172D02*
D03*
X04745D02*
D03*
X048534Y034878D02*
D03*
X047811D02*
D03*
X048895Y035239D02*
D03*
X048172D02*
D03*
X04745D02*
D03*
X048534Y0356D02*
D03*
X047811D02*
D03*
D78*
X0395Y03095D02*
D03*
X0385D02*
D03*
X0375D02*
D03*
X0365D02*
D03*
X0355D02*
D03*
X0345D02*
D03*
X0335D02*
D03*
D79*
X03485Y0147D02*
D03*
D80*
X03285Y0132D02*
D03*
Y0157D02*
D03*
D81*
X0548Y03945D02*
D03*
D82*
Y03845D02*
D03*
Y03745D02*
D03*
Y03645D02*
D03*
Y03545D02*
D03*
Y03445D02*
D03*
M02*
