G04*
G04 #@! TF.GenerationSoftware,Altium Limited,Altium Designer,21.3.2 (30)*
G04*
G04 Layer_Color=128*
%FSTAX24Y24*%
%MOIN*%
G70*
G04*
G04 #@! TF.SameCoordinates,F68421FC-E499-4976-B511-058DC5D6CA2F*
G04*
G04*
G04 #@! TF.FilePolarity,Positive*
G04*
G01*
G75*
%ADD85C,0.0020*%
D85*
X029387Y011835D02*
X029584D01*
X029485Y011737D02*
Y011934D01*
X029029Y012599D02*
X029226D01*
X029128Y0125D02*
Y012697D01*
X028237Y012885D02*
X028434D01*
X028335Y012787D02*
Y012984D01*
X027474Y012528D02*
X027671D01*
X027572Y012429D02*
Y012626D01*
X027187Y011735D02*
X027384D01*
X027285Y011637D02*
Y011834D01*
X027544Y010972D02*
X027741D01*
X027643Y010874D02*
Y011071D01*
X028337Y010685D02*
X028534D01*
X028435Y010587D02*
Y010784D01*
X0291Y011043D02*
X029297D01*
X029199Y010944D02*
Y011141D01*
X027563Y01175D02*
X029137D01*
X02835Y010963D02*
Y012537D01*
X027363Y039D02*
X028937D01*
X02815Y038213D02*
Y039787D01*
X0289Y038293D02*
X029097D01*
X028999Y038194D02*
Y038391D01*
X028137Y037935D02*
X028334D01*
X028235Y037837D02*
Y038034D01*
X027344Y038222D02*
X027541D01*
X027443Y038124D02*
Y038321D01*
X026987Y038985D02*
X027184D01*
X027085Y038887D02*
Y039084D01*
X027274Y039778D02*
X027471D01*
X027372Y039679D02*
Y039876D01*
X028037Y040135D02*
X028234D01*
X028135Y040037D02*
Y040234D01*
X028829Y039849D02*
X029026D01*
X028928Y03975D02*
Y039947D01*
X029187Y039085D02*
X029384D01*
X029285Y038987D02*
Y039184D01*
X048494Y034155D02*
X048573D01*
X048534Y034116D02*
Y034194D01*
X047772Y034155D02*
X047851D01*
X047811Y034116D02*
Y034194D01*
X048856Y034516D02*
X048934D01*
X048895Y034477D02*
Y034556D01*
X048133Y034516D02*
X048212D01*
X048172Y034477D02*
Y034556D01*
X047411Y034516D02*
X047489D01*
X04745Y034477D02*
Y034556D01*
X048494Y034878D02*
X048573D01*
X048534Y034838D02*
Y034917D01*
X047772Y034878D02*
X047851D01*
X047811Y034838D02*
Y034917D01*
X048856Y035239D02*
X048934D01*
X048895Y035199D02*
Y035278D01*
X048133Y035239D02*
X048212D01*
X048172Y035199D02*
Y035278D01*
X047411Y035239D02*
X047489D01*
X04745Y035199D02*
Y035278D01*
X048494Y0356D02*
X048573D01*
X048534Y035561D02*
Y035639D01*
X047772Y0356D02*
X047851D01*
X047811Y035561D02*
Y035639D01*
X039343Y03095D02*
X039657D01*
X0395Y030793D02*
Y031107D01*
X038343Y03095D02*
X038657D01*
X0385Y030793D02*
Y031107D01*
X037343Y03095D02*
X037657D01*
X0375Y030793D02*
Y031107D01*
X036343Y03095D02*
X036657D01*
X0365Y030793D02*
Y031107D01*
X035343Y03095D02*
X035657D01*
X0355Y030793D02*
Y031107D01*
X034343Y03095D02*
X034657D01*
X0345Y030793D02*
Y031107D01*
X033343Y03095D02*
X033657D01*
X0335Y030793D02*
Y031107D01*
X063965Y024758D02*
X064162D01*
X064063Y024659D02*
Y024856D01*
X063202Y0244D02*
X063398D01*
X0633Y024302D02*
Y024498D01*
X062409Y024687D02*
X062606D01*
X062508Y024588D02*
Y024785D01*
X062052Y02545D02*
X062248D01*
X06215Y025352D02*
Y025548D01*
X062338Y026242D02*
X062535D01*
X062437Y026144D02*
Y026341D01*
X063102Y0266D02*
X063298D01*
X0632Y026502D02*
Y026698D01*
X063894Y026313D02*
X064091D01*
X063992Y026215D02*
Y026412D01*
X064252Y02555D02*
X064448D01*
X06435Y025452D02*
Y025648D01*
X062463Y0255D02*
X064037D01*
X06325Y024713D02*
Y026287D01*
X034555Y0147D02*
X035145D01*
X03485Y014405D02*
Y014995D01*
X032555Y0132D02*
X033145D01*
X03285Y012905D02*
Y013495D01*
X032555Y0157D02*
X033145D01*
X03285Y015405D02*
Y015995D01*
X054623Y03945D02*
X054977D01*
X0548Y039273D02*
Y039627D01*
X054623Y03845D02*
X054977D01*
X0548Y038273D02*
Y038627D01*
X054623Y03745D02*
X054977D01*
X0548Y037273D02*
Y037627D01*
X054623Y03645D02*
X054977D01*
X0548Y036273D02*
Y036627D01*
X054623Y03545D02*
X054977D01*
X0548Y035273D02*
Y035627D01*
X054623Y03445D02*
X054977D01*
X0548Y034273D02*
Y034627D01*
X052861Y0323D02*
X052939D01*
X0529Y032261D02*
Y032339D01*
X044011Y0368D02*
X044089D01*
X04405Y036761D02*
Y036839D01*
X043861Y03135D02*
X043939D01*
X0439Y031311D02*
Y031389D01*
X055661Y0305D02*
X055739D01*
X0557Y030461D02*
Y030539D01*
X044421Y0302D02*
X044579D01*
X0445Y030121D02*
Y030279D01*
X052661Y0313D02*
X052739D01*
X0527Y031261D02*
Y031339D01*
X052861Y0328D02*
X052939D01*
X0529Y032761D02*
Y032839D01*
X053161Y0368D02*
X053239D01*
X0532Y036761D02*
Y036839D01*
X041871Y0334D02*
X042029D01*
X04195Y033321D02*
Y033479D01*
X043271Y03475D02*
X043429D01*
X04335Y034671D02*
Y034829D01*
X036251Y027424D02*
X036409D01*
X03633Y027345D02*
Y027503D01*
X043321Y02655D02*
X043479D01*
X0434Y026471D02*
Y026629D01*
X041471Y02845D02*
X041629D01*
X04155Y028371D02*
Y028529D01*
X039821Y02105D02*
X039979D01*
X0399Y020971D02*
Y021129D01*
X053211Y0346D02*
X053289D01*
X05325Y034561D02*
Y034639D01*
X037921Y02265D02*
X038079D01*
X038Y022571D02*
Y022729D01*
X050621Y028D02*
X050779D01*
X0507Y027921D02*
Y028079D01*
X049721Y0253D02*
X049879D01*
X0498Y025221D02*
Y025379D01*
X047471Y01705D02*
X047629D01*
X04755Y016971D02*
Y017129D01*
X044471Y0292D02*
X044629D01*
X04455Y029121D02*
Y029279D01*
X054071Y0194D02*
X054229D01*
X05415Y019321D02*
Y019479D01*
X052121Y0194D02*
X052279D01*
X0522Y019322D02*
Y019479D01*
X048261Y0194D02*
X048339D01*
X0483Y019361D02*
Y019439D01*
X041671Y022941D02*
X041829D01*
X04175Y022862D02*
Y023019D01*
X036571Y02495D02*
X036729D01*
X03665Y024871D02*
Y025029D01*
X038671Y017801D02*
X038829D01*
X03875Y017722D02*
Y01788D01*
X039588Y022613D02*
X039667D01*
X039628Y022574D02*
Y022653D01*
X049621Y02655D02*
X049779D01*
X0497Y026471D02*
Y026629D01*
X049271Y016891D02*
X049429D01*
X04935Y016812D02*
Y016969D01*
X054011Y0313D02*
X054089D01*
X05405Y031261D02*
Y031339D01*
X051261Y0207D02*
X051339D01*
X0513Y020661D02*
Y020739D01*
X051661Y015709D02*
X051739D01*
X0517Y01567D02*
Y015749D01*
X058061Y0281D02*
X058139D01*
X0581Y028061D02*
Y028139D01*
M02*
